<svg width="50" height="50" viewBox="0 0 50 50" fill="none" xmlns="http://www.w3.org/2000/svg">
<path d="M37.5 12.4999H30.0208L34.8125 7.72911C35.0067 7.53486 35.1608 7.30425 35.266 7.05046C35.3711 6.79666 35.4252 6.52465 35.4252 6.24994C35.4252 5.97523 35.3711 5.70322 35.266 5.44942C35.1608 5.19562 35.0067 4.96502 34.8125 4.77077C34.6183 4.57652 34.3876 4.42244 34.1339 4.31731C33.8801 4.21219 33.608 4.15808 33.3333 4.15808C32.7785 4.15808 32.2465 4.37847 31.8542 4.77077L25 11.5416L22.5625 7.37494C22.4257 7.13692 22.2434 6.92817 22.0259 6.76062C21.8084 6.59306 21.5601 6.46998 21.2951 6.3984C21.03 6.32683 20.7535 6.30815 20.4812 6.34344C20.209 6.37874 19.9464 6.46731 19.7083 6.60411C19.4703 6.7409 19.2616 6.92323 19.094 7.1407C18.9265 7.35817 18.8034 7.60651 18.7318 7.87154C18.6602 8.13658 18.6415 8.41312 18.6768 8.68537C18.7121 8.95762 18.8007 9.22025 18.9375 9.45827L20.8333 12.4999H12.5C10.8424 12.4999 9.25269 13.1584 8.08058 14.3305C6.90848 15.5026 6.25 17.0923 6.25 18.7499V35.4166C6.25 37.0742 6.90848 38.6639 8.08058 39.836C9.25269 41.0081 10.8424 41.6666 12.5 41.6666V43.7499C12.5 44.3025 12.7195 44.8324 13.1102 45.2231C13.5009 45.6138 14.0308 45.8333 14.5833 45.8333C15.1359 45.8333 15.6658 45.6138 16.0565 45.2231C16.4472 44.8324 16.6667 44.3025 16.6667 43.7499V41.6666H33.3333V43.7499C33.3333 44.3025 33.5528 44.8324 33.9435 45.2231C34.3342 45.6138 34.8641 45.8333 35.4167 45.8333C35.9692 45.8333 36.4991 45.6138 36.8898 45.2231C37.2805 44.8324 37.5 44.3025 37.5 43.7499V41.6666C39.1576 41.6666 40.7473 41.0081 41.9194 39.836C43.0915 38.6639 43.75 37.0742 43.75 35.4166V18.7499C43.75 17.0923 43.0915 15.5026 41.9194 14.3305C40.7473 13.1584 39.1576 12.4999 37.5 12.4999ZM39.5833 35.4166C39.5833 35.9691 39.3638 36.499 38.9731 36.8897C38.5824 37.2804 38.0525 37.4999 37.5 37.4999H12.5C11.9475 37.4999 11.4176 37.2804 11.0269 36.8897C10.6362 36.499 10.4167 35.9691 10.4167 35.4166V18.7499C10.4167 18.1974 10.6362 17.6675 11.0269 17.2768C11.4176 16.8861 11.9475 16.6666 12.5 16.6666H37.5C38.0525 16.6666 38.5824 16.8861 38.9731 17.2768C39.3638 17.6675 39.5833 18.1974 39.5833 18.7499V35.4166Z" fill="#0BBCEF"/>
</svg>
