<svg width="17" height="17" viewBox="0 0 17 17" fill="none" xmlns="http://www.w3.org/2000/svg">
<path d="M11.9997 1.75249L12.53 2.28282L12.53 2.28282L11.9997 1.75249ZM13.5382 1.11523L13.5382 0.365234L13.5382 1.11523ZM15.0766 4.82941L14.5463 4.29908L14.5463 4.29908L15.0766 4.82941ZM5.33303 14.573L5.51493 15.3006C5.64681 15.2676 5.76724 15.1995 5.86336 15.1033L5.33303 14.573ZM1.23047 15.5986L0.502862 15.4167C0.438967 15.6723 0.513853 15.9427 0.700139 16.129C0.886424 16.3153 1.15679 16.3901 1.41237 16.3262L1.23047 15.5986ZM2.25611 11.4961L1.72578 10.9657C1.62966 11.0619 1.56147 11.1823 1.5285 11.3142L2.25611 11.4961ZM9.36508 14.3845C8.95087 14.3845 8.61508 14.7202 8.61508 15.1345C8.61508 15.5487 8.95087 15.8845 9.36508 15.8845V14.3845ZM15.2497 15.8845C15.6639 15.8845 15.9997 15.5487 15.9997 15.1345C15.9997 14.7202 15.6639 14.3845 15.2497 14.3845V15.8845ZM12.53 2.28282C12.7974 2.01544 13.16 1.86523 13.5382 1.86523L13.5382 0.365234C12.7622 0.365234 12.018 0.673478 11.4694 1.22216L12.53 2.28282ZM13.5382 1.86523C13.9163 1.86523 14.2789 2.01544 14.5463 2.28282L15.607 1.22216C15.0583 0.673479 14.3141 0.365234 13.5382 0.365234L13.5382 1.86523ZM14.5463 2.28282C14.8137 2.55019 14.9639 2.91283 14.9639 3.29095L16.4639 3.29095C16.4639 2.515 16.1556 1.77083 15.607 1.22216L14.5463 2.28282ZM14.9639 3.29095C14.9639 3.66907 14.8137 4.03171 14.5463 4.29908L15.607 5.35974C16.1556 4.81106 16.4639 4.0669 16.4639 3.29095L14.9639 3.29095ZM14.5463 4.29908L4.8027 14.0427L5.86336 15.1033L15.607 5.35974L14.5463 4.29908ZM5.15113 13.8454L1.04857 14.871L1.41237 16.3262L5.51493 15.3006L5.15113 13.8454ZM1.95808 15.7805L2.98372 11.678L1.5285 11.3142L0.502862 15.4167L1.95808 15.7805ZM2.78644 12.0264L12.53 2.28282L11.4694 1.22216L1.72578 10.9657L2.78644 12.0264ZM9.36508 15.8845H15.2497V14.3845H9.36508V15.8845Z" fill="#BDBDBD"/>
</svg>
