<svg width="20" height="19" viewBox="0 0 20 19" fill="none" xmlns="http://www.w3.org/2000/svg">
<path d="M17.4993 1.66699L15.8326 3.33366M15.8326 3.33366L18.3326 5.83366L15.4159 8.75033L12.9159 6.25033M15.8326 3.33366L12.9159 6.25033M9.49092 9.67533C9.9212 10.0999 10.2633 10.6054 10.4974 11.1627C10.7315 11.7199 10.8531 12.318 10.8551 12.9225C10.8571 13.527 10.7396 14.1259 10.5092 14.6847C10.2788 15.2436 9.94014 15.7514 9.51271 16.1788C9.08528 16.6062 8.57752 16.9449 8.01867 17.1753C7.45982 17.4056 6.86092 17.5232 6.25645 17.5212C5.65197 17.5192 5.05387 17.3976 4.49658 17.1635C3.93928 16.9293 3.43381 16.5873 3.00925 16.157C2.17436 15.2926 1.71239 14.1348 1.72283 12.9331C1.73327 11.7313 2.2153 10.5818 3.06508 9.73199C3.91487 8.8822 5.06443 8.40018 6.26616 8.38974C7.4679 8.37929 8.62649 8.84043 9.49092 9.67533ZM9.49092 9.67533L12.9159 6.25033" stroke="#4ABAE9" stroke-width="2" stroke-linecap="round" stroke-linejoin="round"/>
</svg>
