<svg width="18" height="20" viewBox="0 0 18 20" fill="none" xmlns="http://www.w3.org/2000/svg">
<path d="M16.5 8.40909C16.5 13.9773 9 18.75 9 18.75C9 18.75 1.5 13.9773 1.5 8.40909C1.5 6.51038 2.29018 4.68944 3.6967 3.34685C5.10322 2.00426 7.01088 1.25 9 1.25C10.9891 1.25 12.8968 2.00426 14.3033 3.34685C15.7098 4.68944 16.5 6.51038 16.5 8.40909Z" stroke="#4ABAE9" stroke-width="2" stroke-linecap="round" stroke-linejoin="round"/>
<path d="M9 11.25C10.3807 11.25 11.5 10.1307 11.5 8.75C11.5 7.36929 10.3807 6.25 9 6.25C7.61929 6.25 6.5 7.36929 6.5 8.75C6.5 10.1307 7.61929 11.25 9 11.25Z" stroke="#4ABAE9" stroke-width="2" stroke-linecap="round" stroke-linejoin="round"/>
</svg>
