<svg width="15" height="15" viewBox="0 0 15 15" fill="none" xmlns="http://www.w3.org/2000/svg">
<g id="bx:map">
<path id="Vector" d="M7.49999 8.75C8.87874 8.75 9.99999 7.62875 9.99999 6.25C9.99999 4.87125 8.87874 3.75 7.49999 3.75C6.12124 3.75 4.99999 4.87125 4.99999 6.25C4.99999 7.62875 6.12124 8.75 7.49999 8.75ZM7.49999 5C8.18937 5 8.74999 5.56063 8.74999 6.25C8.74999 6.93938 8.18937 7.5 7.49999 7.5C6.81062 7.5 6.24999 6.93938 6.24999 6.25C6.24999 5.56063 6.81062 5 7.49999 5Z" fill="#999999"/>
<path id="Vector_2" d="M7.13749 13.6337C7.24327 13.7093 7.37001 13.7499 7.49999 13.7499C7.62998 13.7499 7.75671 13.7093 7.86249 13.6337C8.05249 13.4994 12.5181 10.275 12.5 6.24998C12.5 3.49311 10.2569 1.24998 7.49999 1.24998C4.74312 1.24998 2.49999 3.49311 2.49999 6.24686C2.48187 10.275 6.94749 13.4994 7.13749 13.6337ZM7.49999 2.49998C9.56812 2.49998 11.25 4.18186 11.25 6.25311C11.2631 9.02686 8.50749 11.5175 7.49999 12.3344C6.49312 11.5169 3.73687 9.02561 3.74999 6.24998C3.74999 4.18186 5.43187 2.49998 7.49999 2.49998Z" fill="#999999"/>
</g>
</svg>
