<svg width="159" height="58" viewBox="0 0 159 58" fill="none" xmlns="http://www.w3.org/2000/svg">
<circle cx="29" cy="29" r="29" fill="#0B9FEF"/>
<path d="M8.6 38.216C7.992 38.216 7.52 38.048 7.184 37.712C6.864 37.376 6.704 36.888 6.704 36.248V23.024C6.704 22.4 6.872 21.92 7.208 21.584C7.544 21.248 8.024 21.08 8.648 21.08H16.856C17.336 21.08 17.696 21.208 17.936 21.464C18.192 21.704 18.32 22.056 18.32 22.52C18.32 23 18.192 23.368 17.936 23.624C17.696 23.864 17.336 23.984 16.856 23.984H10.424V28.112H16.328C16.808 28.112 17.176 28.24 17.432 28.496C17.688 28.736 17.816 29.088 17.816 29.552C17.816 30.016 17.688 30.376 17.432 30.632C17.176 30.888 16.808 31.016 16.328 31.016H10.424V36.248C10.424 37.56 9.816 38.216 8.6 38.216ZM23.5948 38.264C22.7308 38.264 21.9548 38.096 21.2668 37.76C20.5788 37.424 20.0428 36.968 19.6588 36.392C19.2748 35.816 19.0828 35.168 19.0828 34.448C19.0828 33.584 19.3068 32.904 19.7548 32.408C20.2028 31.896 20.9308 31.536 21.9388 31.328C22.9468 31.104 24.2828 30.992 25.9468 30.992H27.2188V32.864H25.9708C25.1548 32.864 24.4908 32.912 23.9788 33.008C23.4828 33.088 23.1228 33.232 22.8988 33.44C22.6908 33.648 22.5868 33.936 22.5868 34.304C22.5868 34.752 22.7388 35.12 23.0428 35.408C23.3628 35.696 23.8188 35.84 24.4108 35.84C24.8748 35.84 25.2828 35.736 25.6348 35.528C26.0028 35.304 26.2908 35.008 26.4988 34.64C26.7068 34.256 26.8108 33.824 26.8108 33.344V30.584C26.8108 29.88 26.6508 29.384 26.3308 29.096C26.0108 28.792 25.4668 28.64 24.6988 28.64C24.2668 28.64 23.7948 28.696 23.2828 28.808C22.7868 28.904 22.2348 29.072 21.6268 29.312C21.2748 29.472 20.9628 29.512 20.6908 29.432C20.4188 29.336 20.2108 29.176 20.0668 28.952C19.9228 28.712 19.8508 28.456 19.8508 28.184C19.8508 27.896 19.9308 27.624 20.0908 27.368C20.2508 27.096 20.5148 26.896 20.8828 26.768C21.6348 26.464 22.3388 26.256 22.9948 26.144C23.6668 26.032 24.2828 25.976 24.8428 25.976C26.0748 25.976 27.0828 26.16 27.8668 26.528C28.6668 26.88 29.2668 27.432 29.6668 28.184C30.0668 28.92 30.2668 29.872 30.2668 31.04V36.368C30.2668 36.96 30.1228 37.416 29.8348 37.736C29.5468 38.056 29.1308 38.216 28.5868 38.216C28.0428 38.216 27.6188 38.056 27.3148 37.736C27.0268 37.416 26.8828 36.96 26.8828 36.368V35.48L27.0508 35.624C26.9548 36.168 26.7468 36.64 26.4268 37.04C26.1228 37.424 25.7308 37.728 25.2508 37.952C24.7708 38.16 24.2188 38.264 23.5948 38.264ZM37.4821 38.264C36.7781 38.264 36.0501 38.2 35.2981 38.072C34.5621 37.944 33.8901 37.728 33.2821 37.424C32.9621 37.264 32.7301 37.064 32.5861 36.824C32.4581 36.568 32.4021 36.312 32.4181 36.056C32.4341 35.8 32.5141 35.568 32.6581 35.36C32.8181 35.152 33.0181 35.016 33.2581 34.952C33.5141 34.872 33.7941 34.896 34.0981 35.024C34.7541 35.296 35.3541 35.488 35.8981 35.6C36.4421 35.712 36.9781 35.768 37.5061 35.768C38.1941 35.768 38.6901 35.664 38.9941 35.456C39.3141 35.232 39.4741 34.944 39.4741 34.592C39.4741 34.272 39.3701 34.032 39.1621 33.872C38.9541 33.712 38.6501 33.6 38.2501 33.536L35.7301 33.08C34.7381 32.904 33.9701 32.544 33.4261 32C32.8981 31.44 32.6341 30.728 32.6341 29.864C32.6341 29.064 32.8581 28.376 33.3061 27.8C33.7541 27.208 34.3701 26.76 35.1541 26.456C35.9541 26.136 36.8581 25.976 37.8661 25.976C38.5861 25.976 39.2501 26.04 39.8581 26.168C40.4661 26.296 41.0501 26.504 41.6101 26.792C41.8981 26.936 42.0981 27.128 42.2101 27.368C42.3381 27.608 42.3781 27.856 42.3301 28.112C42.2981 28.368 42.2021 28.6 42.0421 28.808C41.8821 29.016 41.6741 29.152 41.4181 29.216C41.1781 29.28 40.8981 29.248 40.5781 29.12C40.0661 28.88 39.5941 28.712 39.1621 28.616C38.7301 28.504 38.3141 28.448 37.9141 28.448C37.1941 28.448 36.6741 28.568 36.3541 28.808C36.0341 29.032 35.8741 29.32 35.8741 29.672C35.8741 29.944 35.9621 30.176 36.1381 30.368C36.3301 30.544 36.6181 30.664 37.0021 30.728L39.5221 31.184C40.5621 31.36 41.3541 31.712 41.8981 32.24C42.4421 32.752 42.7141 33.456 42.7141 34.352C42.7141 35.568 42.2341 36.528 41.2741 37.232C40.3301 37.92 39.0661 38.264 37.4821 38.264ZM50.4494 38.264C49.3454 38.264 48.4174 38.08 47.6654 37.712C46.9294 37.344 46.3774 36.808 46.0094 36.104C45.6574 35.4 45.4814 34.512 45.4814 33.44V28.928H44.4734C44.0254 28.928 43.6734 28.808 43.4174 28.568C43.1774 28.328 43.0574 28 43.0574 27.584C43.0574 27.136 43.1774 26.8 43.4174 26.576C43.6734 26.336 44.0254 26.216 44.4734 26.216H45.4814V24.392C45.4814 23.784 45.6414 23.328 45.9614 23.024C46.2814 22.704 46.7294 22.544 47.3054 22.544C47.8974 22.544 48.3454 22.704 48.6494 23.024C48.9534 23.328 49.1054 23.784 49.1054 24.392V26.216H51.3854C51.8334 26.216 52.1774 26.336 52.4174 26.576C52.6574 26.8 52.7774 27.136 52.7774 27.584C52.7774 28 52.6574 28.328 52.4174 28.568C52.1774 28.808 51.8334 28.928 51.3854 28.928H49.1054V33.296C49.1054 33.968 49.2574 34.472 49.5614 34.808C49.8814 35.144 50.3854 35.312 51.0734 35.312C51.3134 35.312 51.5374 35.288 51.7454 35.24C51.9534 35.192 52.1454 35.16 52.3214 35.144C52.5454 35.128 52.7294 35.2 52.8734 35.36C53.0174 35.504 53.0894 35.832 53.0894 36.344C53.0894 36.728 53.0254 37.064 52.8974 37.352C52.7694 37.64 52.5454 37.848 52.2254 37.976C52.0174 38.056 51.7294 38.12 51.3614 38.168C51.0094 38.232 50.7054 38.264 50.4494 38.264Z" fill="white"/>
<path d="M72.3111 38.216C71.7031 38.216 71.2391 38.048 70.9191 37.712C70.5991 37.376 70.4391 36.904 70.4391 36.296V24.152H66.1911C65.6951 24.152 65.3111 24.016 65.0391 23.744C64.7671 23.472 64.6311 23.096 64.6311 22.616C64.6311 22.12 64.7671 21.744 65.0391 21.488C65.3111 21.216 65.6951 21.08 66.1911 21.08H78.4071C78.9031 21.08 79.2871 21.216 79.5591 21.488C79.8311 21.744 79.9671 22.12 79.9671 22.616C79.9671 23.096 79.8311 23.472 79.5591 23.744C79.2871 24.016 78.9031 24.152 78.4071 24.152H74.1591V36.296C74.1591 36.904 73.9991 37.376 73.6791 37.712C73.3751 38.048 72.9191 38.216 72.3111 38.216ZM85.4808 38.264C84.0888 38.264 82.8888 38.016 81.8808 37.52C80.8888 37.008 80.1208 36.296 79.5768 35.384C79.0488 34.456 78.7848 33.368 78.7848 32.12C78.7848 30.904 79.0408 29.84 79.5527 28.928C80.0648 28 80.7768 27.28 81.6888 26.768C82.6168 26.24 83.6648 25.976 84.8328 25.976C85.6808 25.976 86.4488 26.12 87.1368 26.408C87.8248 26.68 88.4168 27.08 88.9128 27.608C89.4088 28.12 89.7848 28.752 90.0408 29.504C90.2968 30.24 90.4248 31.064 90.4248 31.976C90.4248 32.28 90.3288 32.512 90.1368 32.672C89.9448 32.816 89.6648 32.888 89.2968 32.888H81.7608V31.016H87.8088L87.4248 31.352C87.4248 30.696 87.3288 30.152 87.1368 29.72C86.9448 29.272 86.6648 28.936 86.2968 28.712C85.9448 28.488 85.5048 28.376 84.9768 28.376C84.3848 28.376 83.8808 28.512 83.4648 28.784C83.0488 29.056 82.7288 29.448 82.5048 29.96C82.2808 30.472 82.1688 31.088 82.1688 31.808V32C82.1688 33.216 82.4488 34.112 83.0088 34.688C83.5848 35.264 84.4328 35.552 85.5528 35.552C85.9368 35.552 86.3768 35.504 86.8728 35.408C87.3688 35.312 87.8328 35.16 88.2648 34.952C88.6328 34.776 88.9608 34.72 89.2488 34.784C89.5368 34.832 89.7608 34.96 89.9208 35.168C90.0808 35.376 90.1688 35.616 90.1848 35.888C90.2168 36.16 90.1608 36.432 90.0168 36.704C89.8728 36.96 89.6328 37.176 89.2968 37.352C88.7528 37.656 88.1368 37.88 87.4488 38.024C86.7768 38.184 86.1208 38.264 85.4808 38.264ZM96.7806 38.264C95.3566 38.264 94.2926 37.872 93.5886 37.088C92.8846 36.288 92.5326 35.104 92.5326 33.536V22.712C92.5326 22.104 92.6846 21.648 92.9886 21.344C93.3086 21.024 93.7646 20.864 94.3566 20.864C94.9326 20.864 95.3726 21.024 95.6766 21.344C95.9966 21.648 96.1566 22.104 96.1566 22.712V33.392C96.1566 34.048 96.2926 34.536 96.5646 34.856C96.8526 35.16 97.2286 35.312 97.6926 35.312C97.8206 35.312 97.9406 35.304 98.0526 35.288C98.1646 35.272 98.2846 35.264 98.4126 35.264C98.6686 35.232 98.8446 35.312 98.9406 35.504C99.0526 35.68 99.1086 36.04 99.1086 36.584C99.1086 37.064 99.0126 37.432 98.8206 37.688C98.6286 37.928 98.3326 38.088 97.9326 38.168C97.7726 38.184 97.5886 38.2 97.3806 38.216C97.1726 38.248 96.9726 38.264 96.7806 38.264ZM106.528 38.264C105.136 38.264 103.936 38.016 102.928 37.52C101.936 37.008 101.168 36.296 100.624 35.384C100.096 34.456 99.8316 33.368 99.8316 32.12C99.8316 30.904 100.088 29.84 100.6 28.928C101.112 28 101.824 27.28 102.736 26.768C103.664 26.24 104.712 25.976 105.88 25.976C106.728 25.976 107.496 26.12 108.184 26.408C108.872 26.68 109.464 27.08 109.96 27.608C110.456 28.12 110.832 28.752 111.088 29.504C111.344 30.24 111.472 31.064 111.472 31.976C111.472 32.28 111.376 32.512 111.184 32.672C110.992 32.816 110.712 32.888 110.344 32.888H102.808V31.016H108.856L108.472 31.352C108.472 30.696 108.376 30.152 108.184 29.72C107.992 29.272 107.712 28.936 107.344 28.712C106.992 28.488 106.552 28.376 106.024 28.376C105.432 28.376 104.928 28.512 104.512 28.784C104.096 29.056 103.776 29.448 103.552 29.96C103.328 30.472 103.216 31.088 103.216 31.808V32C103.216 33.216 103.496 34.112 104.056 34.688C104.632 35.264 105.48 35.552 106.6 35.552C106.984 35.552 107.424 35.504 107.92 35.408C108.416 35.312 108.88 35.16 109.312 34.952C109.68 34.776 110.008 34.72 110.296 34.784C110.584 34.832 110.808 34.96 110.968 35.168C111.128 35.376 111.216 35.616 111.232 35.888C111.264 36.16 111.208 36.432 111.064 36.704C110.92 36.96 110.68 37.176 110.344 37.352C109.8 37.656 109.184 37.88 108.496 38.024C107.824 38.184 107.168 38.264 106.528 38.264ZM119.316 38.264C118.036 38.264 116.916 38.016 115.956 37.52C115.012 37.008 114.284 36.288 113.771 35.36C113.26 34.432 113.004 33.336 113.004 32.072C113.004 31.128 113.148 30.28 113.436 29.528C113.724 28.776 114.14 28.136 114.684 27.608C115.244 27.08 115.916 26.68 116.7 26.408C117.484 26.12 118.356 25.976 119.316 25.976C119.812 25.976 120.34 26.04 120.9 26.168C121.46 26.28 122.012 26.48 122.556 26.768C122.876 26.912 123.092 27.12 123.204 27.392C123.332 27.648 123.38 27.92 123.348 28.208C123.316 28.48 123.212 28.728 123.036 28.952C122.876 29.16 122.668 29.304 122.412 29.384C122.156 29.448 121.868 29.4 121.548 29.24C121.244 29.064 120.924 28.936 120.588 28.856C120.268 28.776 119.964 28.736 119.676 28.736C119.196 28.736 118.772 28.816 118.404 28.976C118.036 29.12 117.724 29.336 117.468 29.624C117.228 29.896 117.036 30.24 116.892 30.656C116.764 31.072 116.7 31.552 116.7 32.096C116.7 33.152 116.956 33.984 117.468 34.592C117.996 35.184 118.732 35.48 119.676 35.48C119.964 35.48 120.268 35.448 120.588 35.384C120.908 35.304 121.228 35.176 121.548 35C121.868 34.84 122.156 34.8 122.412 34.88C122.668 34.96 122.868 35.112 123.012 35.336C123.172 35.544 123.26 35.792 123.276 36.08C123.308 36.352 123.26 36.624 123.132 36.896C123.02 37.152 122.812 37.352 122.508 37.496C121.964 37.768 121.42 37.96 120.876 38.072C120.332 38.2 119.812 38.264 119.316 38.264ZM130.47 38.264C129.206 38.264 128.102 38.016 127.158 37.52C126.23 37.024 125.51 36.312 124.998 35.384C124.486 34.456 124.23 33.36 124.23 32.096C124.23 31.152 124.374 30.304 124.662 29.552C124.95 28.8 125.366 28.16 125.91 27.632C126.47 27.088 127.134 26.68 127.902 26.408C128.67 26.12 129.526 25.976 130.47 25.976C131.734 25.976 132.83 26.224 133.758 26.72C134.702 27.216 135.43 27.92 135.942 28.832C136.47 29.744 136.734 30.832 136.734 32.096C136.734 33.056 136.582 33.912 136.278 34.664C135.99 35.416 135.574 36.064 135.03 36.608C134.486 37.152 133.822 37.568 133.038 37.856C132.27 38.128 131.414 38.264 130.47 38.264ZM130.47 35.552C130.998 35.552 131.454 35.424 131.838 35.168C132.222 34.912 132.526 34.536 132.75 34.04C132.974 33.528 133.086 32.88 133.086 32.096C133.086 30.928 132.846 30.072 132.366 29.528C131.886 28.968 131.254 28.688 130.47 28.688C129.958 28.688 129.502 28.808 129.102 29.048C128.718 29.288 128.414 29.664 128.19 30.176C127.982 30.672 127.878 31.312 127.878 32.096C127.878 33.264 128.118 34.136 128.598 34.712C129.078 35.272 129.702 35.552 130.47 35.552ZM140.811 38.216C140.219 38.216 139.763 38.056 139.443 37.736C139.139 37.416 138.987 36.96 138.987 36.368V27.848C138.987 27.256 139.139 26.808 139.443 26.504C139.763 26.184 140.203 26.024 140.763 26.024C141.339 26.024 141.779 26.184 142.083 26.504C142.387 26.808 142.539 27.256 142.539 27.848V29.384L142.275 28.424C142.595 27.688 143.091 27.096 143.763 26.648C144.435 26.2 145.227 25.976 146.139 25.976C147.051 25.976 147.811 26.192 148.419 26.624C149.027 27.056 149.459 27.72 149.715 28.616H149.379C149.731 27.8 150.267 27.16 150.987 26.696C151.723 26.216 152.563 25.976 153.507 25.976C154.419 25.976 155.163 26.16 155.739 26.528C156.331 26.88 156.771 27.424 157.059 28.16C157.347 28.88 157.491 29.8 157.491 30.92V36.368C157.491 36.96 157.331 37.416 157.011 37.736C156.707 38.056 156.267 38.216 155.691 38.216C155.099 38.216 154.643 38.056 154.323 37.736C154.019 37.416 153.867 36.96 153.867 36.368V31.04C153.867 30.256 153.739 29.688 153.483 29.336C153.243 28.968 152.827 28.784 152.235 28.784C151.547 28.784 151.011 29.024 150.627 29.504C150.243 29.984 150.051 30.664 150.051 31.544V36.368C150.051 36.96 149.891 37.416 149.571 37.736C149.267 38.056 148.827 38.216 148.251 38.216C147.675 38.216 147.227 38.056 146.907 37.736C146.587 37.416 146.427 36.96 146.427 36.368V31.04C146.427 30.256 146.299 29.688 146.043 29.336C145.803 28.968 145.387 28.784 144.795 28.784C144.107 28.784 143.571 29.024 143.187 29.504C142.803 29.984 142.611 30.664 142.611 31.544V36.368C142.611 37.6 142.011 38.216 140.811 38.216Z" fill="black"/>
</svg>
