<svg width="58" height="58" viewBox="0 0 58 58" fill="none" xmlns="http://www.w3.org/2000/svg">
<circle cx="29" cy="29" r="29" fill="black"/>
<path d="M17.6 36.216C16.992 36.216 16.52 36.048 16.184 35.712C15.864 35.376 15.704 34.888 15.704 34.248V21.024C15.704 20.4 15.872 19.92 16.208 19.584C16.544 19.248 17.024 19.08 17.648 19.08H25.856C26.336 19.08 26.696 19.208 26.936 19.464C27.192 19.704 27.32 20.056 27.32 20.52C27.32 21 27.192 21.368 26.936 21.624C26.696 21.864 26.336 21.984 25.856 21.984H19.424V26.112H25.328C25.808 26.112 26.176 26.24 26.432 26.496C26.688 26.736 26.816 27.088 26.816 27.552C26.816 28.016 26.688 28.376 26.432 28.632C26.176 28.888 25.808 29.016 25.328 29.016H19.424V34.248C19.424 35.56 18.816 36.216 17.6 36.216ZM35.5768 36.216C34.9688 36.216 34.5048 36.048 34.1848 35.712C33.8648 35.376 33.7048 34.904 33.7048 34.296V22.152H29.4568C28.9608 22.152 28.5768 22.016 28.3048 21.744C28.0328 21.472 27.8967 21.096 27.8967 20.616C27.8967 20.12 28.0328 19.744 28.3048 19.488C28.5768 19.216 28.9608 19.08 29.4568 19.08H41.6728C42.1688 19.08 42.5528 19.216 42.8248 19.488C43.0968 19.744 43.2328 20.12 43.2328 20.616C43.2328 21.096 43.0968 21.472 42.8248 21.744C42.5528 22.016 42.1688 22.152 41.6728 22.152H37.4248V34.296C37.4248 34.904 37.2648 35.376 36.9448 35.712C36.6408 36.048 36.1848 36.216 35.5768 36.216Z" fill="#C3FFC2"/>
</svg>
