<svg width="132" height="40" viewBox="0 0 132 40" fill="none" xmlns="http://www.w3.org/2000/svg">
<rect x="0.5" y="0.5" width="131" height="39" rx="6.5" fill="#EBEBEB"/>
<path d="M38.4141 9.55469H39.0625C39.349 9.55469 39.5807 9.51432 39.7578 9.43359C39.9349 9.35286 40.0638 9.24089 40.1445 9.09766C40.2253 8.95443 40.2656 8.78906 40.2656 8.60156C40.2656 8.42188 40.2214 8.25781 40.1328 8.10938C40.0443 7.95833 39.9076 7.83854 39.7227 7.75C39.5378 7.65885 39.2995 7.61328 39.0078 7.61328C38.7891 7.61328 38.5911 7.65495 38.4141 7.73828C38.237 7.81901 38.0964 7.93229 37.9922 8.07812C37.888 8.22135 37.8359 8.38672 37.8359 8.57422H37.082C37.082 8.33203 37.1328 8.11458 37.2344 7.92188C37.3359 7.72656 37.4753 7.5612 37.6523 7.42578C37.8294 7.28776 38.0339 7.18229 38.2656 7.10938C38.5 7.03646 38.7474 7 39.0078 7C39.3125 7 39.5885 7.03516 39.8359 7.10547C40.0833 7.17318 40.2956 7.27474 40.4727 7.41016C40.6497 7.54557 40.7852 7.71354 40.8789 7.91406C40.9727 8.11458 41.0195 8.34766 41.0195 8.61328C41.0195 8.80859 40.974 8.99219 40.8828 9.16406C40.7917 9.33594 40.6615 9.48698 40.4922 9.61719C40.3765 9.70616 40.245 9.78237 40.0978 9.84581C40.2823 9.90717 40.4424 9.98721 40.5781 10.0859C40.75 10.2109 40.8802 10.3659 40.9688 10.5508C41.0599 10.7331 41.1055 10.9427 41.1055 11.1797C41.1055 11.4453 41.0534 11.681 40.9492 11.8867C40.8477 12.0924 40.7031 12.2669 40.5156 12.4102C40.3281 12.5534 40.1055 12.6615 39.8477 12.7344C39.5924 12.8073 39.3125 12.8438 39.0078 12.8438C38.763 12.8438 38.5208 12.8125 38.2812 12.75C38.0443 12.6849 37.8294 12.5859 37.6367 12.4531C37.444 12.3177 37.2891 12.1458 37.1719 11.9375C37.0573 11.7292 37 11.4792 37 11.1875H37.7539C37.7539 11.3776 37.806 11.5521 37.9102 11.7109C38.0169 11.8698 38.1641 11.9974 38.3516 12.0938C38.5391 12.1875 38.7578 12.2344 39.0078 12.2344C39.2943 12.2344 39.5365 12.1901 39.7344 12.1016C39.9349 12.0104 40.0872 11.8867 40.1914 11.7305C40.2982 11.5716 40.3516 11.3932 40.3516 11.1953C40.3516 11.0208 40.3229 10.8698 40.2656 10.7422C40.2109 10.612 40.1289 10.5052 40.0195 10.4219C39.9128 10.3385 39.7786 10.2773 39.6172 10.2383C39.4583 10.1966 39.2734 10.1758 39.0625 10.1758H38.4141V9.55469Z" fill="black"/>
<path fill-rule="evenodd" clip-rule="evenodd" d="M44.7389 7.07812L46.9147 12.7656H46.1413L45.5995 11.2773H43.2209L42.6803 12.7656H41.9108L44.0788 7.07812H44.7389ZM43.4451 10.6602H45.3749L44.409 8.00639L43.4451 10.6602Z" fill="black"/>
<path d="M51.5638 7.07812V7.69531H48.8216V12.7656H48.0716V7.07812H51.5638Z" fill="black"/>
<path fill-rule="evenodd" clip-rule="evenodd" d="M53.6034 10.5352H54.9472C55.3769 10.5352 55.7402 10.4688 56.037 10.3359C56.3339 10.2005 56.5592 10.0039 56.7128 9.74609C56.8665 9.48828 56.9433 9.17708 56.9433 8.8125C56.9433 8.47656 56.8665 8.17839 56.7128 7.91797C56.5592 7.65495 56.3339 7.44922 56.037 7.30078C55.7402 7.15234 55.3769 7.07812 54.9472 7.07812H52.8495V12.7656H53.6034V10.5352ZM53.6034 9.92188V7.69531H54.9472C55.2415 7.69531 55.4797 7.7487 55.662 7.85547C55.8443 7.95964 55.9771 8.09767 56.0605 8.26954C56.1464 8.44142 56.1894 8.625 56.1894 8.82031C56.1894 9.03385 56.1464 9.22396 56.0605 9.39062C55.9771 9.5573 55.8443 9.6875 55.662 9.78125C55.4797 9.875 55.2415 9.92188 54.9472 9.92188H53.6034Z" fill="black"/>
<path d="M57.897 7.07812L59.8394 11.2847L59.6861 11.6328C59.6418 11.7292 59.5923 11.8242 59.5377 11.918C59.4856 12.0091 59.4166 12.0846 59.3306 12.1445C59.2447 12.2044 59.1275 12.2344 58.9791 12.2344C58.94 12.2344 58.8788 12.2331 58.7955 12.2305C58.7121 12.2253 58.6561 12.2201 58.6275 12.2148L58.6041 12.8164C58.6301 12.8242 58.6861 12.8307 58.772 12.8359C58.858 12.8438 58.9322 12.8477 58.9947 12.8477C59.216 12.8477 59.4009 12.819 59.5494 12.7617C59.7004 12.7044 59.8267 12.6276 59.9283 12.5312C60.0298 12.4349 60.1158 12.3255 60.1861 12.2031C60.2564 12.0781 60.3202 11.9492 60.3775 11.8164L62.3892 7.07812H61.522L60.2154 10.3804L58.7408 7.07812H57.897Z" fill="black"/>
<path d="M64.7141 9.55469H65.3625C65.649 9.55469 65.8807 9.51432 66.0578 9.43359C66.2349 9.35286 66.3638 9.24089 66.4445 9.09766C66.5253 8.95443 66.5656 8.78906 66.5656 8.60156C66.5656 8.42188 66.5214 8.25781 66.4328 8.10938C66.3443 7.95833 66.2076 7.83854 66.0227 7.75C65.8378 7.65885 65.5995 7.61328 65.3078 7.61328C65.0891 7.61328 64.8911 7.65495 64.7141 7.73828C64.537 7.81901 64.3964 7.93229 64.2922 8.07812C64.188 8.22135 64.1359 8.38672 64.1359 8.57422H63.382C63.382 8.33203 63.4328 8.11458 63.5344 7.92188C63.6359 7.72656 63.7753 7.5612 63.9523 7.42578C64.1294 7.28776 64.3339 7.18229 64.5656 7.10938C64.8 7.03646 65.0474 7 65.3078 7C65.6125 7 65.8885 7.03516 66.1359 7.10547C66.3833 7.17318 66.5956 7.27474 66.7727 7.41016C66.9497 7.54557 67.0852 7.71354 67.1789 7.91406C67.2727 8.11458 67.3195 8.34766 67.3195 8.61328C67.3195 8.80859 67.274 8.99219 67.1828 9.16406C67.0917 9.33594 66.9615 9.48698 66.7922 9.61719C66.6765 9.70616 66.545 9.78237 66.3978 9.84581C66.5823 9.90717 66.7424 9.98721 66.8781 10.0859C67.05 10.2109 67.1802 10.3659 67.2687 10.5508C67.3599 10.7331 67.4055 10.9427 67.4055 11.1797C67.4055 11.4453 67.3534 11.681 67.2492 11.8867C67.1477 12.0924 67.0031 12.2669 66.8156 12.4102C66.6281 12.5534 66.4055 12.6615 66.1477 12.7344C65.8924 12.8073 65.6125 12.8438 65.3078 12.8438C65.063 12.8438 64.8208 12.8125 64.5812 12.75C64.3443 12.6849 64.1294 12.5859 63.9367 12.4531C63.744 12.3177 63.5891 12.1458 63.4719 11.9375C63.3573 11.7292 63.3 11.4792 63.3 11.1875H64.0539C64.0539 11.3776 64.106 11.5521 64.2102 11.7109C64.3169 11.8698 64.4641 11.9974 64.6516 12.0938C64.8391 12.1875 65.0578 12.2344 65.3078 12.2344C65.5943 12.2344 65.8365 12.1901 66.0344 12.1016C66.2349 12.0104 66.3872 11.8867 66.4914 11.7305C66.5982 11.5716 66.6516 11.3932 66.6516 11.1953C66.6516 11.0208 66.6229 10.8698 66.5656 10.7422C66.5109 10.612 66.4289 10.5052 66.3195 10.4219C66.2128 10.3385 66.0786 10.2773 65.9172 10.2383C65.7583 10.1966 65.5734 10.1758 65.3625 10.1758H64.7141V9.55469Z" fill="black"/>
<path d="M69.5428 11.4609L72.3436 7.07812H73.0975V12.7656H72.3436V8.37891L69.5428 12.7656H68.7928V7.07812H69.5428V11.4609Z" fill="black"/>
<path d="M76.813 12.7656V7.69531H78.6411V7.07812H74.2466V7.69531H76.0708V12.7656H76.813Z" fill="black"/>
<path d="M83.4581 12.1523V12.7656H79.8448V7.07812H83.4191V7.69531H80.5988V9.52345H83.0597V10.1367H80.5988V12.1523H83.4581Z" fill="black"/>
<path fill-rule="evenodd" clip-rule="evenodd" d="M89.9795 9.76913C90.0334 9.74562 90.0853 9.71972 90.1352 9.69141C90.3487 9.57161 90.5154 9.41797 90.6352 9.23047C90.7549 9.04036 90.8148 8.82812 90.8148 8.59375C90.8148 8.32812 90.7732 8.10026 90.6898 7.91016C90.6065 7.72005 90.4841 7.5638 90.3227 7.44141C90.1638 7.31641 89.9698 7.22526 89.7406 7.16797C89.5115 7.10807 89.251 7.07812 88.9594 7.07812H87.0961V12.7656H89.0883C89.4685 12.7656 89.7992 12.7031 90.0805 12.5781C90.3617 12.4505 90.5792 12.2656 90.7328 12.0234C90.8891 11.7786 90.9672 11.4792 90.9672 11.125C90.9672 10.8802 90.9164 10.6562 90.8148 10.4531C90.7159 10.25 90.5714 10.0833 90.3812 9.95312C90.2634 9.87076 90.1294 9.80943 89.9795 9.76913ZM87.85 10.1055H89.1234C89.3786 10.1055 89.587 10.1471 89.7484 10.2305C89.9099 10.3138 90.0284 10.4323 90.1039 10.5859C90.1794 10.7396 90.2172 10.9219 90.2172 11.1328C90.2172 11.3411 90.1729 11.5221 90.0844 11.6758C89.9958 11.8268 89.8669 11.944 89.6977 12.0273C89.531 12.1107 89.3279 12.1523 89.0883 12.1523H87.85V10.1055ZM87.85 9.5V7.69531H88.9594C89.2094 7.69531 89.4151 7.72656 89.5766 7.78906C89.7406 7.84896 89.8617 7.94532 89.9398 8.07812C90.0206 8.20834 90.0609 8.37761 90.0609 8.58595C90.0609 8.77605 90.0154 8.9401 89.9242 9.07812C89.8357 9.21355 89.7107 9.31771 89.5492 9.39062C89.3878 9.46355 89.199 9.5 88.9828 9.5H87.85Z" fill="black"/>
<path fill-rule="evenodd" clip-rule="evenodd" d="M37.9217 27.0205L36.8846 30H34.573L39.407 17.2031H41.4021L46.2449 30H43.9246L42.8787 27.0205H37.9217ZM40.4002 19.9189L38.5457 25.2275H42.2547L40.4002 19.9189Z" fill="black"/>
<path fill-rule="evenodd" clip-rule="evenodd" d="M49.398 29.1475V33.6562H47.2623V20.4902H49.2311L49.3189 21.457C49.9459 20.6953 50.7984 20.3145 51.8766 20.3145C53.0367 20.3145 53.9464 20.7466 54.6056 21.6108C55.2647 22.4751 55.5943 23.6748 55.5943 25.21V25.3418C55.5943 26.8125 55.2603 27.9858 54.5924 28.8618C53.9244 29.7378 53.0279 30.1758 51.9029 30.1758C50.86 30.1758 50.025 29.833 49.398 29.1475ZM49.398 27.3633C49.7848 28.1016 50.4176 28.4707 51.2965 28.4707C51.9762 28.4707 52.5079 28.1968 52.8917 27.6489C53.2755 27.1011 53.4674 26.2705 53.4674 25.1572C53.4674 24.208 53.2784 23.4551 52.9005 22.8984C52.5226 22.3418 51.982 22.0635 51.2789 22.0635C50.4059 22.0635 49.7789 22.4238 49.398 23.1445V27.3633Z" fill="black"/>
<path fill-rule="evenodd" clip-rule="evenodd" d="M59.7318 29.1475V33.6562H57.5961V20.4902H59.5648L59.6527 21.457C60.2797 20.6953 61.1322 20.3145 62.2104 20.3145C63.3705 20.3145 64.2802 20.7466 64.9394 21.6108C65.5985 22.4751 65.9281 23.6748 65.9281 25.21V25.3418C65.9281 26.8125 65.5941 27.9858 64.9262 28.8618C64.2582 29.7378 63.3617 30.1758 62.2367 30.1758C61.1937 30.1758 60.3588 29.833 59.7318 29.1475ZM59.7318 27.3633C60.1186 28.1016 60.7514 28.4707 61.6303 28.4707C62.31 28.4707 62.8417 28.1968 63.2255 27.6489C63.6093 27.1011 63.8012 26.2705 63.8012 25.1572C63.8012 24.208 63.6122 23.4551 63.2343 22.8984C62.8563 22.3418 62.3158 22.0635 61.6127 22.0635C60.7396 22.0635 60.1127 22.4238 59.7318 23.1445V27.3633Z" fill="black"/>
<path d="M76.0246 29.71C75.2043 30.0205 74.2727 30.1758 73.2297 30.1758C72.1574 30.1758 71.2082 29.9326 70.382 29.4463C69.5559 28.96 68.9186 28.2642 68.4704 27.3589C68.0222 26.4536 67.7893 25.3975 67.7717 24.1904V23.1885C67.7717 21.2549 68.2346 19.7446 69.1603 18.6577C70.0861 17.5708 71.3781 17.0273 73.0363 17.0273C74.4602 17.0273 75.591 17.3789 76.4289 18.082C77.2668 18.7852 77.7707 19.7988 77.9406 21.123H75.7609C75.5148 19.582 74.6213 18.8115 73.0803 18.8115C72.0842 18.8115 71.3269 19.1704 70.8083 19.8882C70.2897 20.606 70.0217 21.6592 70.0041 23.0479V24.0322C70.0041 25.415 70.2956 26.4888 70.8786 27.2534C71.4616 28.0181 72.2717 28.4004 73.3088 28.4004C74.4455 28.4004 75.2541 28.1426 75.7346 27.627V25.1221H73.0978V23.4346H77.9494V28.3389C77.4865 28.9424 76.8449 29.3994 76.0246 29.71Z" fill="black"/>
<path fill-rule="evenodd" clip-rule="evenodd" d="M85.8223 29.1123C85.1426 29.8213 84.3105 30.1758 83.3262 30.1758C82.3711 30.1758 81.5918 29.9033 80.9883 29.3584C80.3848 28.8135 80.083 28.1396 80.083 27.3369C80.083 26.3232 80.4595 25.5454 81.2124 25.0034C81.9653 24.4614 83.042 24.1904 84.4424 24.1904H85.752V23.5664C85.752 23.0742 85.6143 22.6802 85.3389 22.3843C85.0635 22.0884 84.6445 21.9404 84.082 21.9404C83.5957 21.9404 83.1973 22.062 82.8867 22.3052C82.5762 22.5483 82.4209 22.8574 82.4209 23.2324H80.2852C80.2852 22.7109 80.458 22.2231 80.8037 21.769C81.1494 21.3149 81.6196 20.959 82.2144 20.7012C82.8091 20.4434 83.4727 20.3145 84.2051 20.3145C85.3184 20.3145 86.2061 20.5942 86.8682 21.1538C87.5303 21.7134 87.8701 22.5 87.8877 23.5137V27.8027C87.8877 28.6582 88.0078 29.3408 88.248 29.8506V30H86.0684C85.9746 29.8184 85.8926 29.5225 85.8223 29.1123ZM82.6274 28.0972C82.8999 28.3403 83.2646 28.4619 83.7217 28.4619C84.1436 28.4619 84.5405 28.3594 84.9126 28.1543C85.2847 27.9492 85.5645 27.6738 85.752 27.3281V25.5352H84.6006C83.8096 25.5352 83.2148 25.6729 82.8164 25.9482C82.418 26.2236 82.2188 26.6133 82.2188 27.1172C82.2188 27.5273 82.355 27.854 82.6274 28.0972Z" fill="black"/>
<path d="M92.5965 16.5V30H90.4607V16.5H92.5965Z" fill="black"/>
<path d="M97.3932 16.5V30H95.2574V16.5H97.3932Z" fill="black"/>
<path fill-rule="evenodd" clip-rule="evenodd" d="M106.246 29.7056C105.61 30.019 104.897 30.1758 104.106 30.1758C102.752 30.1758 101.655 29.7495 100.814 28.897C99.9735 28.0444 99.5531 26.9092 99.5531 25.4912V25.2275C99.5531 24.2783 99.7362 23.4302 100.102 22.6831C100.469 21.936 100.983 21.3545 101.645 20.9385C102.307 20.5225 103.045 20.3145 103.86 20.3145C105.155 20.3145 106.155 20.7275 106.861 21.5537C107.567 22.3799 107.92 23.5488 107.92 25.0605V25.9219H101.706C101.771 26.707 102.033 27.3281 102.493 27.7852C102.953 28.2422 103.532 28.4707 104.229 28.4707C105.207 28.4707 106.004 28.0752 106.62 27.2842L107.771 28.3828C107.39 28.9512 106.882 29.3921 106.246 29.7056ZM101.742 24.3574H105.811V24.1992C105.764 23.4844 105.574 22.9438 105.24 22.5776C104.906 22.2114 104.443 22.0283 103.851 22.0283C103.265 22.0283 102.792 22.2334 102.432 22.6436C102.071 23.0537 101.841 23.625 101.742 24.3574Z" fill="black"/>
<path d="M111.908 23.4961V30H109.773V20.4902H111.812L111.864 21.5537C112.38 20.7275 113.095 20.3145 114.009 20.3145C114.314 20.3145 114.566 20.3555 114.765 20.4375L114.756 22.4414C114.475 22.3945 114.185 22.3711 113.886 22.3711C112.907 22.3711 112.248 22.7461 111.908 23.4961Z" fill="black"/>
<path d="M120.221 31.4414C119.641 33.041 118.656 33.8408 117.268 33.8408C116.957 33.8408 116.614 33.7881 116.239 33.6826V32.0303L116.644 32.0566C117.183 32.0566 117.588 31.9585 117.861 31.7622C118.133 31.5659 118.349 31.2363 118.507 30.7734L118.814 29.9561L115.475 20.4902H117.777L119.79 26.9414L121.724 20.4902H124L120.221 31.4414Z" fill="black"/>
<path d="M18.4372 21.5065L18.0174 20.5518L17.6039 21.5065L17.5759 21.5721H18.4656L18.4372 21.5065Z" fill="black"/>
<path fill-rule="evenodd" clip-rule="evenodd" d="M27.7491 9.58769C27.032 9.20422 26.3208 9 24.3595 9H13.6405C11.6792 9 10.968 9.20422 10.2509 9.58769C9.5339 9.97117 8.97117 10.5339 8.58769 11.2509C8.20422 11.968 8 12.6792 8 14.6405V25.3595C8 27.3208 8.20422 28.032 8.58769 28.7491C8.97117 29.4661 9.5339 30.0288 10.2509 30.4123C10.968 30.7958 11.6792 31 13.6405 31H24.3595C26.3208 31 27.032 30.7958 27.7491 30.4123C28.4661 30.0288 29.0288 29.4661 29.4123 28.7491C29.7958 28.032 30 27.3208 30 25.3595V14.6405C30 12.6792 29.7958 11.968 29.4123 11.2509C29.0288 10.5339 28.4661 9.97117 27.7491 9.58769ZM15.6032 19.8313L16.1914 19.8314V21.4399C16.1914 22.2568 15.7341 22.7255 14.9365 22.7255C14.1464 22.7255 13.6928 22.2657 13.6928 21.4635V19.8332H14.281V21.4439C14.281 21.9201 14.5166 22.1745 14.9441 22.1745C15.3693 22.1745 15.6032 21.927 15.6032 21.4634V19.8313ZM10.3744 19.8306H10.9629V20.981H12.2913V19.8306H12.8799V22.682H12.2913V21.524H10.9629V22.682H10.3744V19.8306ZM21.2653 19.8292H21.7451L22.4035 21.79L23.0455 19.8307H23.6555L22.6476 22.6809H22.1565L21.4974 20.8085L20.8376 22.6809H20.3505L19.3404 19.8307H19.966L20.607 21.79L21.2653 19.8292ZM17.7683 19.8299H18.2826L18.2939 19.8466L19.5597 22.6794H18.9428L18.6827 22.0861H17.3554L17.338 22.1278L17.0913 22.6794H16.4908L17.7683 19.8299ZM24.1299 19.8324L26.2636 19.8325V20.3519H24.71V20.9354H25.7802V21.4547H24.71V22.1608H26.3196V22.6798H24.1299V19.8324ZM27.0198 19.8303H27.6004V22.6776H27.0198V19.8303ZM13.2286 11.3941C13.2286 11.3941 13.2178 11.0809 13.4331 11.0693C13.4828 11.0667 13.5445 11.0802 13.6212 11.1172C14.8087 13.0855 16.7928 14.2355 18.9756 14.2349C21.1542 14.2313 23.1454 13.069 24.3306 11.1045C24.7817 10.9576 24.7359 11.3814 24.7359 11.3814C23.5801 13.632 21.4281 14.7496 18.9741 14.7532C16.5168 14.7531 14.386 13.6477 13.2286 11.3941Z" fill="black"/>
<rect x="0.5" y="0.5" width="131" height="39" rx="6.5" stroke="#0BBCEF"/>
</svg>
