<svg width="132" height="40" viewBox="0 0 132 40" fill="none" xmlns="http://www.w3.org/2000/svg">
<rect x="0.5" y="0.5" width="131" height="39" rx="6.5" fill="#EBEBEB"/>
<path d="M36.4141 9.55469H37.0625C37.349 9.55469 37.5807 9.51432 37.7578 9.43359C37.9349 9.35286 38.0638 9.24089 38.1445 9.09766C38.2253 8.95443 38.2656 8.78906 38.2656 8.60156C38.2656 8.42188 38.2214 8.25781 38.1328 8.10938C38.0443 7.95833 37.9076 7.83854 37.7227 7.75C37.5378 7.65885 37.2995 7.61328 37.0078 7.61328C36.7891 7.61328 36.5911 7.65495 36.4141 7.73828C36.237 7.81901 36.0964 7.93229 35.9922 8.07812C35.888 8.22135 35.8359 8.38672 35.8359 8.57422H35.082C35.082 8.33203 35.1328 8.11458 35.2344 7.92188C35.3359 7.72656 35.4753 7.5612 35.6523 7.42578C35.8294 7.28776 36.0339 7.18229 36.2656 7.10938C36.5 7.03646 36.7474 7 37.0078 7C37.3125 7 37.5885 7.03516 37.8359 7.10547C38.0833 7.17318 38.2956 7.27474 38.4727 7.41016C38.6497 7.54557 38.7852 7.71354 38.8789 7.91406C38.9727 8.11458 39.0195 8.34766 39.0195 8.61328C39.0195 8.80859 38.974 8.99219 38.8828 9.16406C38.7917 9.33594 38.6615 9.48698 38.4922 9.61719C38.3765 9.70616 38.245 9.78237 38.0978 9.84581C38.2823 9.90717 38.4424 9.98721 38.5781 10.0859C38.75 10.2109 38.8802 10.3659 38.9688 10.5508C39.0599 10.7331 39.1055 10.9427 39.1055 11.1797C39.1055 11.4453 39.0534 11.681 38.9492 11.8867C38.8477 12.0924 38.7031 12.2669 38.5156 12.4102C38.3281 12.5534 38.1055 12.6615 37.8477 12.7344C37.5924 12.8073 37.3125 12.8438 37.0078 12.8438C36.763 12.8438 36.5208 12.8125 36.2812 12.75C36.0443 12.6849 35.8294 12.5859 35.6367 12.4531C35.444 12.3177 35.2891 12.1458 35.1719 11.9375C35.0573 11.7292 35 11.4792 35 11.1875H35.7539C35.7539 11.3776 35.806 11.5521 35.9102 11.7109C36.0169 11.8698 36.1641 11.9974 36.3516 12.0938C36.5391 12.1875 36.7578 12.2344 37.0078 12.2344C37.2943 12.2344 37.5365 12.1901 37.7344 12.1016C37.9349 12.0104 38.0872 11.8867 38.1914 11.7305C38.2982 11.5716 38.3516 11.3932 38.3516 11.1953C38.3516 11.0208 38.3229 10.8698 38.2656 10.7422C38.2109 10.612 38.1289 10.5052 38.0195 10.4219C37.9128 10.3385 37.7786 10.2773 37.6172 10.2383C37.4583 10.1966 37.2734 10.1758 37.0625 10.1758H36.4141V9.55469Z" fill="black"/>
<path fill-rule="evenodd" clip-rule="evenodd" d="M42.7389 7.07812L44.9147 12.7656H44.1413L43.5995 11.2773H41.2209L40.6803 12.7656H39.9108L42.0788 7.07812H42.7389ZM41.4451 10.6602H43.3749L42.409 8.00639L41.4451 10.6602Z" fill="black"/>
<path d="M49.5638 7.07812V7.69531H46.8216V12.7656H46.0716V7.07812H49.5638Z" fill="black"/>
<path fill-rule="evenodd" clip-rule="evenodd" d="M51.6034 10.5352H52.9472C53.3769 10.5352 53.7402 10.4688 54.037 10.3359C54.3339 10.2005 54.5592 10.0039 54.7128 9.74609C54.8665 9.48828 54.9433 9.17708 54.9433 8.8125C54.9433 8.47656 54.8665 8.17839 54.7128 7.91797C54.5592 7.65495 54.3339 7.44922 54.037 7.30078C53.7402 7.15234 53.3769 7.07812 52.9472 7.07812H50.8495V12.7656H51.6034V10.5352ZM51.6034 9.92188V7.69531H52.9472C53.2415 7.69531 53.4797 7.7487 53.662 7.85547C53.8443 7.95964 53.9771 8.09767 54.0605 8.26954C54.1464 8.44142 54.1894 8.625 54.1894 8.82031C54.1894 9.03385 54.1464 9.22396 54.0605 9.39062C53.9771 9.5573 53.8443 9.6875 53.662 9.78125C53.4797 9.875 53.2415 9.92188 52.9472 9.92188H51.6034Z" fill="black"/>
<path d="M55.897 7.07812L57.8394 11.2847L57.6861 11.6328C57.6418 11.7292 57.5923 11.8242 57.5377 11.918C57.4856 12.0091 57.4166 12.0846 57.3306 12.1445C57.2447 12.2044 57.1275 12.2344 56.9791 12.2344C56.94 12.2344 56.8788 12.2331 56.7955 12.2305C56.7121 12.2253 56.6561 12.2201 56.6275 12.2148L56.6041 12.8164C56.6301 12.8242 56.6861 12.8307 56.772 12.8359C56.858 12.8438 56.9322 12.8477 56.9947 12.8477C57.216 12.8477 57.4009 12.819 57.5494 12.7617C57.7004 12.7044 57.8267 12.6276 57.9283 12.5312C58.0298 12.4349 58.1158 12.3255 58.1861 12.2031C58.2564 12.0781 58.3202 11.9492 58.3775 11.8164L60.3892 7.07812H59.522L58.2154 10.3804L56.7408 7.07812H55.897Z" fill="black"/>
<path d="M62.7141 9.55469H63.3625C63.649 9.55469 63.8807 9.51432 64.0578 9.43359C64.2349 9.35286 64.3638 9.24089 64.4445 9.09766C64.5253 8.95443 64.5656 8.78906 64.5656 8.60156C64.5656 8.42188 64.5214 8.25781 64.4328 8.10938C64.3443 7.95833 64.2076 7.83854 64.0227 7.75C63.8378 7.65885 63.5995 7.61328 63.3078 7.61328C63.0891 7.61328 62.8911 7.65495 62.7141 7.73828C62.537 7.81901 62.3964 7.93229 62.2922 8.07812C62.188 8.22135 62.1359 8.38672 62.1359 8.57422H61.382C61.382 8.33203 61.4328 8.11458 61.5344 7.92188C61.6359 7.72656 61.7753 7.5612 61.9523 7.42578C62.1294 7.28776 62.3339 7.18229 62.5656 7.10938C62.8 7.03646 63.0474 7 63.3078 7C63.6125 7 63.8885 7.03516 64.1359 7.10547C64.3833 7.17318 64.5956 7.27474 64.7727 7.41016C64.9497 7.54557 65.0852 7.71354 65.1789 7.91406C65.2727 8.11458 65.3195 8.34766 65.3195 8.61328C65.3195 8.80859 65.274 8.99219 65.1828 9.16406C65.0917 9.33594 64.9615 9.48698 64.7922 9.61719C64.6765 9.70616 64.545 9.78237 64.3978 9.84581C64.5823 9.90717 64.7424 9.98721 64.8781 10.0859C65.05 10.2109 65.1802 10.3659 65.2687 10.5508C65.3599 10.7331 65.4055 10.9427 65.4055 11.1797C65.4055 11.4453 65.3534 11.681 65.2492 11.8867C65.1477 12.0924 65.0031 12.2669 64.8156 12.4102C64.6281 12.5534 64.4055 12.6615 64.1477 12.7344C63.8924 12.8073 63.6125 12.8438 63.3078 12.8438C63.063 12.8438 62.8208 12.8125 62.5812 12.75C62.3443 12.6849 62.1294 12.5859 61.9367 12.4531C61.744 12.3177 61.5891 12.1458 61.4719 11.9375C61.3573 11.7292 61.3 11.4792 61.3 11.1875H62.0539C62.0539 11.3776 62.106 11.5521 62.2102 11.7109C62.3169 11.8698 62.4641 11.9974 62.6516 12.0938C62.8391 12.1875 63.0578 12.2344 63.3078 12.2344C63.5943 12.2344 63.8365 12.1901 64.0344 12.1016C64.2349 12.0104 64.3872 11.8867 64.4914 11.7305C64.5982 11.5716 64.6516 11.3932 64.6516 11.1953C64.6516 11.0208 64.6229 10.8698 64.5656 10.7422C64.5109 10.612 64.4289 10.5052 64.3195 10.4219C64.2128 10.3385 64.0786 10.2773 63.9172 10.2383C63.7583 10.1966 63.5734 10.1758 63.3625 10.1758H62.7141V9.55469Z" fill="black"/>
<path d="M67.5428 11.4609L70.3436 7.07812H71.0975V12.7656H70.3436V8.37891L67.5428 12.7656H66.7928V7.07812H67.5428V11.4609Z" fill="black"/>
<path d="M74.813 12.7656V7.69531H76.6411V7.07812H72.2466V7.69531H74.0708V12.7656H74.813Z" fill="black"/>
<path d="M81.4581 12.1523V12.7656H77.8448V7.07812H81.4191V7.69531H78.5988V9.52345H81.0597V10.1367H78.5988V12.1523H81.4581Z" fill="black"/>
<path fill-rule="evenodd" clip-rule="evenodd" d="M87.9795 9.76913C88.0334 9.74562 88.0853 9.71972 88.1352 9.69141C88.3487 9.57161 88.5154 9.41797 88.6352 9.23047C88.7549 9.04036 88.8148 8.82812 88.8148 8.59375C88.8148 8.32812 88.7732 8.10026 88.6898 7.91016C88.6065 7.72005 88.4841 7.5638 88.3227 7.44141C88.1638 7.31641 87.9698 7.22526 87.7406 7.16797C87.5115 7.10807 87.251 7.07812 86.9594 7.07812H85.0961V12.7656H87.0883C87.4685 12.7656 87.7992 12.7031 88.0805 12.5781C88.3617 12.4505 88.5792 12.2656 88.7328 12.0234C88.8891 11.7786 88.9672 11.4792 88.9672 11.125C88.9672 10.8802 88.9164 10.6562 88.8148 10.4531C88.7159 10.25 88.5714 10.0833 88.3812 9.95312C88.2634 9.87076 88.1294 9.80943 87.9795 9.76913ZM85.85 10.1055H87.1234C87.3786 10.1055 87.587 10.1471 87.7484 10.2305C87.9099 10.3138 88.0284 10.4323 88.1039 10.5859C88.1794 10.7396 88.2172 10.9219 88.2172 11.1328C88.2172 11.3411 88.1729 11.5221 88.0844 11.6758C87.9958 11.8268 87.8669 11.944 87.6977 12.0273C87.531 12.1107 87.3279 12.1523 87.0883 12.1523H85.85V10.1055ZM85.85 9.5V7.69531H86.9594C87.2094 7.69531 87.4151 7.72656 87.5766 7.78906C87.7406 7.84896 87.8617 7.94532 87.9398 8.07812C88.0206 8.20834 88.0609 8.37761 88.0609 8.58595C88.0609 8.77605 88.0154 8.9401 87.9242 9.07812C87.8357 9.21355 87.7107 9.31771 87.5492 9.39062C87.3878 9.46355 87.199 9.5 86.9828 9.5H85.85Z" fill="black"/>
<path d="M21.3733 13.3248C22.995 13.3752 24.4977 14.1831 25.4283 15.5047C23.9599 16.4024 23.0563 17.9855 23.0341 19.6995C23.0362 21.6386 24.204 23.3885 26 24.1439C25.6546 25.2597 25.1339 26.3141 24.4573 27.2682C23.5486 28.6199 22.5958 29.9404 21.0837 29.9648C20.3645 29.9813 19.879 29.7757 19.3731 29.5614C18.8455 29.3379 18.2956 29.1049 17.4352 29.1049C16.5227 29.1049 15.9482 29.3454 15.3942 29.5772C14.9154 29.7776 14.4518 29.9716 13.7985 29.9985C12.3584 30.0516 11.2578 28.5559 10.3161 27.2169C8.43381 24.4824 6.96814 19.5108 8.93309 16.1279C9.85579 14.4791 11.581 13.4329 13.4776 13.372C14.2944 13.3553 15.0781 13.6683 15.7653 13.9427C16.2908 14.1526 16.7598 14.34 17.1438 14.34C17.4814 14.34 17.9373 14.16 18.4686 13.9503C19.3056 13.62 20.3297 13.2159 21.3733 13.3248Z" fill="black"/>
<path d="M18.1322 9.67668C18.9678 8.73022 20.1314 8.13156 21.3911 8C21.4894 9.27724 21.0832 10.5423 20.2587 11.5265C19.4588 12.5159 18.2467 13.0857 16.9702 13.0727C16.889 11.8322 17.307 10.6105 18.1322 9.67668Z" fill="black"/>
<path fill-rule="evenodd" clip-rule="evenodd" d="M37.2228 26.4938H42.0785L43.2436 29.9319H45.3353L40.7361 17.2119H38.5992L34 29.9319H36.0567L37.2228 26.4938ZM41.5746 24.9073H37.7257L39.6241 19.3276H39.6772L41.5746 24.9073Z" fill="black"/>
<path fill-rule="evenodd" clip-rule="evenodd" d="M51.3922 30.0292C53.7233 30.0292 55.2681 28.1776 55.2681 25.2957C55.2681 22.4218 53.7143 20.5613 51.3571 20.5613C50.1442 20.5222 49.0079 21.1521 48.3998 22.2008H48.3647V20.6583H46.5194V33.0001H48.4258V28.4067H48.4699C49.0522 29.4619 50.1872 30.0921 51.3922 30.0292ZM50.8542 22.1838C52.3369 22.1838 53.3086 23.4182 53.3086 25.2957C53.3086 27.1903 52.3369 28.4157 50.8542 28.4157C49.3976 28.4157 48.4178 27.1643 48.4178 25.2957C48.4178 23.4442 49.3976 22.1838 50.8542 22.1838Z" fill="black"/>
<path fill-rule="evenodd" clip-rule="evenodd" d="M61.6145 30.0292C63.9457 30.0292 65.4904 28.1776 65.4904 25.2957C65.4904 22.4218 63.9366 20.5613 61.5794 20.5613C60.3665 20.5222 59.2302 21.1521 58.6221 22.2008H58.587V20.6583H56.7417V33.0001H58.6481V28.4067H58.6922C59.2745 29.4619 60.4095 30.0921 61.6145 30.0292ZM58.6401 25.2957C58.6401 23.4442 59.6199 22.1838 61.0765 22.1838C62.5592 22.1838 63.5309 23.4182 63.5309 25.2957C63.5309 27.1903 62.5592 28.4157 61.0765 28.4157C59.6199 28.4157 58.6401 27.1643 58.6401 25.2957Z" fill="black"/>
<path d="M75.292 28.4776C73.615 28.4776 72.3878 27.6494 72.2465 26.388L70.295 26.3879C70.4182 28.6886 72.3257 30.144 75.1507 30.144C78.1701 30.144 80.0685 28.6536 80.0685 26.2738C80.0685 24.4133 78.9826 23.3649 76.3689 22.7478L74.9654 22.4036C73.3235 21.9986 72.6523 21.4694 72.6523 20.5701C72.6523 19.4418 73.7031 18.6665 75.2389 18.6665C76.7746 18.6665 77.8255 19.4328 77.9407 20.7021H79.8652C79.8031 18.5075 77.9578 17 75.266 17C72.5461 17 70.6306 18.5075 70.6306 20.7021C70.6306 22.4747 71.7166 23.567 74.0558 24.1312L75.7067 24.5283C77.3577 24.9335 78.055 25.5246 78.055 26.512C78.055 27.6493 76.8989 28.4776 75.292 28.4776Z" fill="black"/>
<path d="M84.1829 20.6586V18.4639H82.2675V20.6586H80.9171V22.1661H82.2675V27.4817C82.2675 29.2802 83.0008 29.9854 84.8812 29.9854C85.2362 29.992 85.591 29.9625 85.9401 29.8974V28.399C85.732 28.4246 85.5226 28.4393 85.313 28.443C84.5366 28.443 84.1829 28.0729 84.1829 27.2786V22.1661H85.9491V20.6586H84.1829Z" fill="black"/>
<path fill-rule="evenodd" clip-rule="evenodd" d="M91.3769 20.5439C88.693 20.5439 86.972 22.3774 86.972 25.2953C86.972 28.2212 88.676 30.0468 91.3769 30.0468C94.0787 30.0468 95.7828 28.2212 95.7828 25.2953C95.7828 22.3774 94.0697 20.5439 91.3769 20.5439ZM88.9144 25.2953C88.9144 23.3027 89.8321 22.1123 91.3769 22.1123C92.9216 22.1123 93.8403 23.2937 93.8403 25.2953C93.8403 27.3049 92.9216 28.4773 91.3769 28.4773C89.8321 28.4773 88.9144 27.3049 88.9144 25.2953Z" fill="black"/>
<path d="M99.1728 20.6583H97.3545V29.9321H99.2609V24.4314C99.1975 23.8749 99.3808 23.3185 99.7627 22.9083C100.145 22.4981 100.687 22.2751 101.248 22.2978C101.537 22.2893 101.827 22.3282 102.104 22.4128V20.6323C101.89 20.5843 101.671 20.5605 101.451 20.5612C100.403 20.5213 99.4705 21.2206 99.2169 22.2368H99.1728V20.6583Z" fill="black"/>
<path fill-rule="evenodd" clip-rule="evenodd" d="M106.895 30.0469C108.995 30.0469 110.637 28.8915 110.894 27.208H109.084C108.736 28.0685 107.864 28.599 106.939 28.5124C106.245 28.5379 105.574 28.2646 105.096 27.762C104.618 27.2594 104.379 26.576 104.44 25.8856V25.7706H111V25.1184C111 22.3065 109.384 20.5439 106.814 20.5439C104.202 20.5439 102.516 22.4305 102.516 25.3394C102.516 28.2393 104.193 30.0469 106.895 30.0469ZM108.469 22.7663C108.901 23.2131 109.127 23.8198 109.093 24.4402H104.449C104.448 23.814 104.697 23.2132 105.141 22.7712C105.585 22.3292 106.187 22.0827 106.814 22.0864C107.437 22.0731 108.036 22.3195 108.469 22.7663Z" fill="black"/>
<rect x="0.5" y="0.5" width="131" height="39" rx="6.5" stroke="#0BBCEF"/>
</svg>
