<svg width="132" height="40" viewBox="0 0 132 40" fill="none" xmlns="http://www.w3.org/2000/svg">
<rect x="0.5" y="0.5" width="131" height="39" rx="6.5" fill="#EBEBEB"/>
<path d="M17.6001 9L27.5085 18.9778L30 16.4688V16.0507C30 13.599 29.7447 12.71 29.2654 11.8137C28.786 10.9174 28.0826 10.214 27.1863 9.73461C26.29 9.25527 25.401 9 22.9493 9H17.6001Z" fill="#1F1F1F"/>
<path d="M15.3168 9L18.0257 11.7222L8 21.7976V16.0507C8 13.599 8.25527 12.71 8.73461 11.8137C9.21396 10.9174 9.91738 10.214 10.8137 9.73461C11.71 9.25527 12.599 9 15.0507 9H15.3168Z" fill="#1F1F1F"/>
<path d="M20.8074 30.9997H15.0507C12.599 30.9997 11.71 30.7444 10.8137 30.2651C9.91738 29.7857 9.21396 29.0823 8.73461 28.186C8.28345 27.3424 8.03079 26.5052 8.00264 24.3655L11.1094 21.2383L20.8074 30.9997Z" fill="#1F1F1F"/>
<path d="M30 18.7051V23.9496C30 26.4013 29.7447 27.2903 29.2654 28.1866C28.786 29.0829 28.0826 29.7863 27.1863 30.2657C26.3463 30.7149 25.5127 30.9674 23.393 30.9973L20.5755 28.1682L30 18.7051Z" fill="#1F1F1F"/>
<path d="M19.5632 21.6687L21.8685 19.3635L22.717 20.212L19.0002 23.9288L15.2835 20.212L16.132 19.3635L18.4373 21.6688V16.1924H19.5632V21.6687Z" fill="#1F1F1F"/>
<path d="M43.984 18.819C43.1793 18.819 42.471 19.023 41.859 19.431C41.2583 19.839 40.7937 20.4227 40.465 21.182C40.1363 21.93 39.972 22.8083 39.972 23.817C39.972 24.837 40.1307 25.7267 40.448 26.486C40.7653 27.234 41.2187 27.812 41.808 28.22C42.3973 28.6167 43.0887 28.815 43.882 28.815C44.494 28.815 45.0323 28.696 45.497 28.458C45.973 28.22 46.415 27.8743 46.823 27.421V25.024H43.814V23.222H48.71V28.118C48.0867 28.934 47.367 29.5573 46.551 29.988C45.7463 30.4073 44.8567 30.617 43.882 30.617C42.692 30.617 41.655 30.3393 40.771 29.784C39.887 29.2287 39.2013 28.441 38.714 27.421C38.238 26.3897 38 25.1883 38 23.817C38 22.4343 38.2437 21.233 38.731 20.213C39.2183 19.1817 39.9097 18.3883 40.805 17.833C41.7117 17.2777 42.7713 17 43.984 17C44.9813 17 45.871 17.2267 46.653 17.68C47.4463 18.122 48.081 18.734 48.557 19.516L47.027 20.587C46.6757 20.0543 46.2223 19.6293 45.667 19.312C45.123 18.9833 44.562 18.819 43.984 18.819Z" fill="#1F1F1F"/>
<path d="M58.9869 24.956C58.9869 25.4887 58.9416 25.942 58.8509 26.316H52.4759C52.5666 27.1547 52.8329 27.812 53.2749 28.288C53.7282 28.764 54.3346 29.002 55.0939 29.002C55.5359 29.002 55.9496 28.8887 56.3349 28.662C56.7202 28.424 57.0432 28.0897 57.3039 27.659L58.7999 28.492C58.4259 29.172 57.9272 29.699 57.3039 30.073C56.6806 30.4357 55.9439 30.617 55.0939 30.617C54.1646 30.617 53.3599 30.4187 52.6799 30.022C51.9999 29.6253 51.4729 29.0643 51.0989 28.339C50.7362 27.6023 50.5549 26.741 50.5549 25.755C50.5549 24.7463 50.7306 23.868 51.0819 23.12C51.4332 22.372 51.9376 21.7997 52.5949 21.403C53.2522 20.995 54.0229 20.791 54.9069 20.791C56.1649 20.791 57.1566 21.165 57.8819 21.913C58.6186 22.661 58.9869 23.6753 58.9869 24.956ZM57.0999 24.718C57.0999 24.0153 56.9016 23.4543 56.5049 23.035C56.1082 22.6157 55.5756 22.406 54.9069 22.406C54.2836 22.406 53.7679 22.61 53.3599 23.018C52.9519 23.4147 52.6799 23.9813 52.5439 24.718H57.0999Z" fill="#1F1F1F"/>
<path d="M65.9663 22.7799H63.3653V27.5229C63.3653 27.9762 63.4843 28.3276 63.7223 28.5769C63.9717 28.8262 64.3173 28.9509 64.7593 28.9509C65.0767 28.9509 65.411 28.8886 65.7623 28.7639V30.4979C65.3317 30.6452 64.8613 30.7189 64.3513 30.7189C63.4333 30.7189 62.7307 30.4639 62.2433 29.9539C61.756 29.4326 61.5123 28.6902 61.5123 27.7269V22.7799H60.0503V21.0289H61.5123V18.1729H63.3653V21.0289H65.9663V22.7799Z" fill="#1F1F1F"/>
<path d="M78.0404 30.3793H76.0004L74.6234 26.4523H69.9144L68.5374 30.3793H66.4974L71.2744 17.2383H73.2634L78.0404 30.3793ZM72.2094 19.9073L70.5604 24.6333H73.9774L72.3114 19.9073H72.2094Z" fill="#1F1F1F"/>
<path d="M79.4111 34.493V21.029H81.2641V22.304H81.3491C81.6777 21.828 82.0857 21.4597 82.5731 21.199C83.0604 20.927 83.5817 20.791 84.1371 20.791C84.8964 20.791 85.5707 20.995 86.1601 21.403C86.7494 21.7997 87.2084 22.3607 87.5371 23.086C87.8657 23.8 88.0301 24.6217 88.0301 25.551C88.0301 26.537 87.8657 27.4153 87.5371 28.186C87.2084 28.9567 86.7494 29.5573 86.1601 29.988C85.5707 30.4073 84.8964 30.617 84.1371 30.617C83.5477 30.617 83.0151 30.4867 82.5391 30.226C82.0631 29.9653 81.6664 29.597 81.3491 29.121H81.2641V34.493H79.4111ZM81.1961 25.704C81.1961 26.6333 81.4171 27.387 81.8591 27.965C82.3124 28.543 82.8904 28.832 83.5931 28.832C84.3411 28.832 84.9531 28.543 85.4291 27.965C85.9051 27.387 86.1431 26.6333 86.1431 25.704C86.1431 25.1033 86.0354 24.565 85.8201 24.089C85.6161 23.613 85.3214 23.2447 84.9361 22.984C84.5621 22.712 84.1371 22.576 83.6611 22.576C83.1851 22.576 82.7601 22.712 82.3861 22.984C82.0121 23.2447 81.7174 23.613 81.5021 24.089C81.2981 24.565 81.1961 25.1033 81.1961 25.704Z" fill="#1F1F1F"/>
<path d="M89.9118 34.493V21.029H91.7648V22.304H91.8498C92.1784 21.828 92.5864 21.4597 93.0738 21.199C93.5611 20.927 94.0824 20.791 94.6378 20.791C95.3971 20.791 96.0714 20.995 96.6608 21.403C97.2501 21.7997 97.7091 22.3607 98.0378 23.086C98.3664 23.8 98.5308 24.6217 98.5308 25.551C98.5308 26.537 98.3664 27.4153 98.0378 28.186C97.7091 28.9567 97.2501 29.5573 96.6608 29.988C96.0714 30.4073 95.3971 30.617 94.6378 30.617C94.0484 30.617 93.5158 30.4867 93.0398 30.226C92.5638 29.9653 92.1671 29.597 91.8498 29.121H91.7648V34.493H89.9118ZM91.6968 25.704C91.6968 26.6333 91.9178 27.387 92.3598 27.965C92.8131 28.543 93.3911 28.832 94.0938 28.832C94.8418 28.832 95.4538 28.543 95.9298 27.965C96.4058 27.387 96.6438 26.6333 96.6438 25.704C96.6438 25.1033 96.5361 24.565 96.3208 24.089C96.1168 23.613 95.8221 23.2447 95.4368 22.984C95.0628 22.712 94.6378 22.576 94.1618 22.576C93.6858 22.576 93.2608 22.712 92.8868 22.984C92.5128 23.2447 92.2181 23.613 92.0028 24.089C91.7988 24.565 91.6968 25.1033 91.6968 25.704Z" fill="#1F1F1F"/>
<path d="M103.625 30.617C102.707 30.617 101.914 30.4187 101.245 30.022C100.588 29.614 100.095 29.07 99.7664 28.39L101.33 27.591C101.557 28.033 101.869 28.3787 102.265 28.628C102.673 28.8773 103.132 29.002 103.642 29.002C104.164 29.002 104.566 28.9057 104.849 28.713C105.144 28.509 105.291 28.237 105.291 27.897C105.291 27.5683 105.138 27.302 104.832 27.098C104.538 26.8827 104.045 26.6957 103.353 26.537C102.243 26.2763 101.404 25.925 100.837 25.483C100.282 25.0297 100.004 24.4403 100.004 23.715C100.004 22.8197 100.322 22.1113 100.956 21.59C101.602 21.0573 102.464 20.791 103.54 20.791C104.368 20.791 105.093 20.978 105.716 21.352C106.34 21.726 106.838 22.2473 107.212 22.916L105.716 23.783C105.444 23.341 105.121 23.001 104.747 22.763C104.373 22.525 103.971 22.406 103.54 22.406C103.042 22.406 102.645 22.5137 102.35 22.729C102.056 22.9443 101.908 23.2277 101.908 23.579C101.908 23.8963 102.073 24.1683 102.401 24.395C102.741 24.6103 103.268 24.7973 103.982 24.956C106.124 25.432 107.195 26.35 107.195 27.71C107.195 28.594 106.867 29.3023 106.209 29.835C105.563 30.3563 104.702 30.617 103.625 30.617Z" fill="#1F1F1F"/>
<path d="M40.0898 10.0352H39.4141V9.55469H40.0625C40.349 9.55469 40.5807 9.51432 40.7578 9.43359C40.9349 9.35286 41.0638 9.24089 41.1445 9.09766C41.2253 8.95443 41.2656 8.78906 41.2656 8.60156C41.2656 8.42188 41.2214 8.25781 41.1328 8.10938C41.0443 7.95833 40.9076 7.83854 40.7227 7.75C40.5378 7.65885 40.2995 7.61328 40.0078 7.61328C39.7891 7.61328 39.5911 7.65495 39.4141 7.73828C39.237 7.81901 39.0964 7.93229 38.9922 8.07812C38.888 8.22135 38.8359 8.38672 38.8359 8.57422H38.082C38.082 8.33203 38.1328 8.11458 38.2344 7.92188C38.3359 7.72656 38.4753 7.5612 38.6523 7.42578C38.8294 7.28776 39.0339 7.18229 39.2656 7.10938C39.5 7.03646 39.7474 7 40.0078 7C40.3125 7 40.5885 7.03516 40.8359 7.10547C41.0833 7.17318 41.2956 7.27474 41.4727 7.41016C41.6497 7.54557 41.7852 7.71354 41.8789 7.91406C41.9727 8.11458 42.0195 8.34766 42.0195 8.61328C42.0195 8.80859 41.974 8.99219 41.8828 9.16406C41.7917 9.33594 41.6615 9.48698 41.4922 9.61719C41.3229 9.7474 41.1198 9.85026 40.8828 9.92578C40.6458 9.9987 40.3815 10.0352 40.0898 10.0352ZM39.4141 9.70312H40.0898C40.4102 9.70312 40.6953 9.73568 40.9453 9.80078C41.1953 9.86589 41.4062 9.96094 41.5781 10.0859C41.75 10.2109 41.8802 10.3659 41.9688 10.5508C42.0599 10.7331 42.1055 10.9427 42.1055 11.1797C42.1055 11.4453 42.0534 11.681 41.9492 11.8867C41.8477 12.0924 41.7031 12.2669 41.5156 12.4102C41.3281 12.5534 41.1055 12.6615 40.8477 12.7344C40.5924 12.8073 40.3125 12.8438 40.0078 12.8438C39.763 12.8438 39.5208 12.8125 39.2812 12.75C39.0443 12.6849 38.8294 12.5859 38.6367 12.4531C38.444 12.3177 38.2891 12.1458 38.1719 11.9375C38.0573 11.7292 38 11.4792 38 11.1875H38.7539C38.7539 11.3776 38.806 11.5521 38.9102 11.7109C39.0169 11.8698 39.1641 11.9974 39.3516 12.0938C39.5391 12.1875 39.7578 12.2344 40.0078 12.2344C40.2943 12.2344 40.5365 12.1901 40.7344 12.1016C40.9349 12.0104 41.0872 11.8867 41.1914 11.7305C41.2982 11.5716 41.3516 11.3932 41.3516 11.1953C41.3516 11.0208 41.3229 10.8698 41.2656 10.7422C41.2109 10.612 41.1289 10.5052 41.0195 10.4219C40.9128 10.3385 40.7786 10.2773 40.6172 10.2383C40.4583 10.1966 40.2734 10.1758 40.0625 10.1758H39.4141V9.70312Z" fill="#1F1F1F"/>
<path d="M45.5631 7.58203L43.6803 12.7656H42.9108L45.0788 7.07812H45.5748L45.5631 7.58203ZM47.1413 12.7656L45.2545 7.58203L45.2428 7.07812H45.7389L47.9147 12.7656H47.1413ZM47.0436 10.6602V11.2773H43.8483V10.6602H47.0436Z" fill="#1F1F1F"/>
<path d="M52.5638 7.07812V7.69531H49.8216V12.7656H49.0716V7.07812H52.5638Z" fill="#1F1F1F"/>
<path d="M55.9472 10.5352H54.4277V9.92188H55.9472C56.2415 9.92188 56.4797 9.875 56.662 9.78125C56.8443 9.6875 56.9771 9.5573 57.0605 9.39062C57.1464 9.22396 57.1894 9.03385 57.1894 8.82031C57.1894 8.625 57.1464 8.44142 57.0605 8.26954C56.9771 8.09767 56.8443 7.95964 56.662 7.85547C56.4797 7.7487 56.2415 7.69531 55.9472 7.69531H54.6034V12.7656H53.8495V7.07812H55.9472C56.3769 7.07812 56.7402 7.15234 57.037 7.30078C57.3339 7.44922 57.5592 7.65495 57.7128 7.91797C57.8665 8.17839 57.9433 8.47656 57.9433 8.8125C57.9433 9.17708 57.8665 9.48828 57.7128 9.74609C57.5592 10.0039 57.3339 10.2005 57.037 10.3359C56.7402 10.4688 56.3769 10.5352 55.9472 10.5352Z" fill="#1F1F1F"/>
<path d="M61.0181 10.8789L62.522 7.07812H63.3892L61.3775 11.8164C61.3202 11.9492 61.2564 12.0781 61.1861 12.2031C61.1158 12.3255 61.0298 12.4349 60.9283 12.5312C60.8267 12.6276 60.7004 12.7044 60.5494 12.7617C60.4009 12.819 60.216 12.8477 59.9947 12.8477C59.9322 12.8477 59.858 12.8438 59.772 12.8359C59.6861 12.8307 59.6301 12.8242 59.6041 12.8164L59.6275 12.2148C59.6561 12.2201 59.7121 12.2253 59.7955 12.2305C59.8788 12.2331 59.94 12.2344 59.9791 12.2344C60.1275 12.2344 60.2447 12.2044 60.3306 12.1445C60.4166 12.0846 60.4856 12.0091 60.5377 11.918C60.5923 11.8242 60.6418 11.7292 60.6861 11.6328L61.0181 10.8789ZM59.7408 7.07812L61.3228 10.6211L61.5103 11.3203L60.8775 11.3672L58.897 7.07812H59.7408Z" fill="#1F1F1F"/>
<path d="M66.3898 10.0352H65.7141V9.55469H66.3625C66.649 9.55469 66.8807 9.51432 67.0578 9.43359C67.2349 9.35286 67.3638 9.24089 67.4445 9.09766C67.5253 8.95443 67.5656 8.78906 67.5656 8.60156C67.5656 8.42188 67.5214 8.25781 67.4328 8.10938C67.3443 7.95833 67.2076 7.83854 67.0227 7.75C66.8378 7.65885 66.5995 7.61328 66.3078 7.61328C66.0891 7.61328 65.8911 7.65495 65.7141 7.73828C65.537 7.81901 65.3964 7.93229 65.2922 8.07812C65.188 8.22135 65.1359 8.38672 65.1359 8.57422H64.382C64.382 8.33203 64.4328 8.11458 64.5344 7.92188C64.6359 7.72656 64.7753 7.5612 64.9523 7.42578C65.1294 7.28776 65.3339 7.18229 65.5656 7.10938C65.8 7.03646 66.0474 7 66.3078 7C66.6125 7 66.8885 7.03516 67.1359 7.10547C67.3833 7.17318 67.5956 7.27474 67.7727 7.41016C67.9497 7.54557 68.0852 7.71354 68.1789 7.91406C68.2727 8.11458 68.3195 8.34766 68.3195 8.61328C68.3195 8.80859 68.274 8.99219 68.1828 9.16406C68.0917 9.33594 67.9615 9.48698 67.7922 9.61719C67.6229 9.7474 67.4198 9.85026 67.1828 9.92578C66.9458 9.9987 66.6815 10.0352 66.3898 10.0352ZM65.7141 9.70312H66.3898C66.7102 9.70312 66.9953 9.73568 67.2453 9.80078C67.4953 9.86589 67.7062 9.96094 67.8781 10.0859C68.05 10.2109 68.1802 10.3659 68.2687 10.5508C68.3599 10.7331 68.4055 10.9427 68.4055 11.1797C68.4055 11.4453 68.3534 11.681 68.2492 11.8867C68.1477 12.0924 68.0031 12.2669 67.8156 12.4102C67.6281 12.5534 67.4055 12.6615 67.1477 12.7344C66.8924 12.8073 66.6125 12.8438 66.3078 12.8438C66.063 12.8438 65.8208 12.8125 65.5812 12.75C65.3443 12.6849 65.1294 12.5859 64.9367 12.4531C64.744 12.3177 64.5891 12.1458 64.4719 11.9375C64.3573 11.7292 64.3 11.4792 64.3 11.1875H65.0539C65.0539 11.3776 65.106 11.5521 65.2102 11.7109C65.3169 11.8698 65.4641 11.9974 65.6516 12.0938C65.8391 12.1875 66.0578 12.2344 66.3078 12.2344C66.5943 12.2344 66.8365 12.1901 67.0344 12.1016C67.2349 12.0104 67.3872 11.8867 67.4914 11.7305C67.5982 11.5716 67.6516 11.3932 67.6516 11.1953C67.6516 11.0208 67.6229 10.8698 67.5656 10.7422C67.5109 10.612 67.4289 10.5052 67.3195 10.4219C67.2128 10.3385 67.0786 10.2773 66.9172 10.2383C66.7583 10.1966 66.5734 10.1758 66.3625 10.1758H65.7141V9.70312Z" fill="#1F1F1F"/>
<path d="M70.5428 11.4609L73.3436 7.07812H74.0975V12.7656H73.3436V8.37891L70.5428 12.7656H69.7928V7.07812H70.5428V11.4609Z" fill="#1F1F1F"/>
<path d="M77.813 7.07812V12.7656H77.0708V7.07812H77.813ZM79.6411 7.07812V7.69531H75.2466V7.07812H79.6411Z" fill="#1F1F1F"/>
<path d="M84.4581 12.1523V12.7656H81.4464V12.1523H84.4581ZM81.5988 7.07812V12.7656H80.8448V7.07812H81.5988ZM84.0597 9.52345V10.1367H81.4464V9.52345H84.0597ZM84.4191 7.07812V7.69531H81.4464V7.07812H84.4191Z" fill="#1F1F1F"/>
<path d="M90.1234 10.1055H88.682L88.6742 9.5H89.9828C90.199 9.5 90.3878 9.46355 90.5492 9.39062C90.7107 9.31771 90.8357 9.21355 90.9242 9.07812C91.0154 8.9401 91.0609 8.77605 91.0609 8.58595C91.0609 8.37761 91.0206 8.20834 90.9398 8.07812C90.8617 7.94532 90.7406 7.84896 90.5766 7.78906C90.4151 7.72656 90.2094 7.69531 89.9594 7.69531H88.85V12.7656H88.0961V7.07812H89.9594C90.251 7.07812 90.5115 7.10807 90.7406 7.16797C90.9698 7.22526 91.1638 7.31641 91.3227 7.44141C91.4841 7.5638 91.6065 7.72005 91.6898 7.91016C91.7732 8.10026 91.8148 8.32812 91.8148 8.59375C91.8148 8.82812 91.7549 9.04036 91.6352 9.23047C91.5154 9.41797 91.3487 9.57161 91.1352 9.69141C90.9242 9.8112 90.6768 9.88802 90.393 9.92188L90.1234 10.1055ZM90.0883 12.7656H88.3852L88.8109 12.1523H90.0883C90.3279 12.1523 90.531 12.1107 90.6977 12.0273C90.8669 11.944 90.9958 11.8268 91.0844 11.6758C91.1729 11.5221 91.2172 11.3411 91.2172 11.1328C91.2172 10.9219 91.1794 10.7396 91.1039 10.5859C91.0284 10.4323 90.9099 10.3138 90.7484 10.2305C90.587 10.1471 90.3786 10.1055 90.1234 10.1055H89.0492L89.057 9.5H90.5258L90.6859 9.71875C90.9594 9.74219 91.1911 9.82031 91.3812 9.95312C91.5714 10.0833 91.7159 10.25 91.8148 10.4531C91.9164 10.6562 91.9672 10.8802 91.9672 11.125C91.9672 11.4792 91.8891 11.7786 91.7328 12.0234C91.5792 12.2656 91.3617 12.4505 91.0805 12.5781C90.7992 12.7031 90.4685 12.7656 90.0883 12.7656Z" fill="#1F1F1F"/>
<rect x="0.5" y="0.5" width="131" height="39" rx="6.5" stroke="#0BBCEF"/>
</svg>
