<svg width="132" height="40" viewBox="0 0 132 40" fill="none" xmlns="http://www.w3.org/2000/svg">
<rect x="0.5" y="0.5" width="131" height="39" rx="6.5" fill="#EBEBEB"/>
<path d="M64.3729 21.7035C62.0201 21.7091 60.1174 23.6202 60.1229 25.9722C60.1284 28.3241 62.0402 30.2263 64.3929 30.2208C66.7456 30.2153 68.6484 28.3042 68.6429 25.9522C68.6593 24.8169 68.2141 23.7236 67.4091 22.9226C66.6041 22.1217 65.5084 21.6817 64.3729 21.7035ZM64.3729 28.5314C63.3161 28.6052 62.3215 28.0258 61.8649 27.0703C61.4082 26.1147 61.5823 24.9772 62.3038 24.2018C63.0254 23.4264 64.1477 23.1707 65.1341 23.557C66.1204 23.9434 66.7703 24.8932 66.7729 25.9522C66.8054 26.6146 66.5689 27.2622 66.117 27.7478C65.6651 28.2334 65.0362 28.516 64.3729 28.5314ZM55.0529 21.7035C52.7001 21.7091 50.7974 23.6202 50.8029 25.9722C50.8084 28.3241 52.7202 30.2263 55.0729 30.2208C57.4256 30.2153 59.3284 28.3042 59.3229 25.9522C59.3393 24.8169 58.8941 23.7236 58.0891 22.9226C57.2841 22.1217 56.1884 21.6817 55.0529 21.7035ZM55.0529 28.5314C53.9961 28.6052 53.0015 28.0258 52.5449 27.0703C52.0882 26.1147 52.2623 24.9772 52.9838 24.2018C53.7054 23.4264 54.8277 23.1707 55.8141 23.557C56.8004 23.9434 57.4503 24.8932 57.4529 25.9522C57.4854 26.6146 57.2489 27.2622 56.797 27.7478C56.3451 28.2334 55.7162 28.516 55.0529 28.5314ZM43.9729 23.0131V24.8125H48.2929C48.2251 25.6601 47.8727 26.4598 47.2929 27.0818C46.4165 27.9744 45.2028 28.4539 43.9529 28.4014C41.3019 28.4014 39.1529 26.2531 39.1529 23.6029C39.1529 20.9528 41.3019 18.8044 43.9529 18.8044C45.1733 18.7863 46.3518 19.2496 47.2329 20.094L48.5029 18.8244C47.2989 17.634 45.6661 16.9782 43.9729 17.005C41.5518 16.9108 39.2733 18.1483 38.0347 20.2301C36.7962 22.3118 36.7962 24.9041 38.0347 26.9858C39.2733 29.0675 41.5518 30.305 43.9729 30.2108C45.7031 30.2799 47.3804 29.607 48.5829 28.3614C49.633 27.2082 50.1925 25.6915 50.1429 24.1328C50.1464 23.7576 50.1163 23.3829 50.0529 23.0131H43.9729ZM89.2829 24.4127C88.7489 22.8424 87.3008 21.7646 85.6429 21.7035C84.5372 21.7014 83.48 22.1568 82.7222 22.9617C81.9645 23.7665 81.5738 24.8491 81.6429 25.9522C81.6253 27.8264 82.844 29.4886 84.6371 30.036C86.4303 30.5835 88.3699 29.8857 89.4029 28.3214L87.9529 27.3218C87.513 28.0546 86.7177 28.4997 85.8629 28.4914C84.9757 28.528 84.1573 28.0157 83.8029 27.2018L89.4929 24.8525L89.2829 24.4127ZM83.4829 25.8322C83.4419 25.2059 83.6555 24.5896 84.0753 24.1229C84.4951 23.6562 85.0856 23.3786 85.7129 23.353C86.3693 23.311 86.9874 23.6652 87.2829 24.2527L83.4829 25.8322ZM78.8629 29.9509H80.7329V17.4549H78.8629V29.9509ZM75.8029 22.6532H75.7329C75.1584 22.0282 74.3417 21.6819 73.4929 21.7035C71.223 21.8136 69.4392 23.6854 69.4392 25.9572C69.4392 28.229 71.223 30.1008 73.4929 30.2108C74.3513 30.2281 75.1726 29.8615 75.7329 29.2112H75.8029V29.821C75.8029 31.4504 74.9329 32.3202 73.5329 32.3202C72.5764 32.2992 71.7272 31.703 71.3829 30.8106L69.7629 31.4804C70.376 33.0199 71.8755 34.0219 73.5329 33.9996C75.7229 33.9996 77.5329 32.71 77.5329 29.571V21.9535H75.8029V22.6532ZM71.2334 25.9572C71.2334 24.5951 72.293 23.4678 73.6529 23.383C74.2999 23.4109 74.9079 23.7001 75.3377 24.1844C75.7675 24.6687 75.9822 25.3067 75.9329 25.9522C75.988 26.6 75.7755 27.2422 75.3448 27.7294C74.9142 28.2166 74.3028 28.5064 73.6529 28.5314C72.293 28.4466 71.2334 27.3193 71.2334 25.9572ZM93.5629 17.4549V29.9509H95.4329V25.2124H98.0429C99.4956 25.3167 100.885 24.6011 101.643 23.358C102.401 22.1148 102.401 20.5525 101.643 19.3093C100.885 18.0662 99.4956 17.3505 98.0429 17.4549H93.5629ZM98.0429 23.453H95.4329V19.1943H98.0829C99.2648 19.1943 100.223 20.1521 100.223 21.3336C100.223 22.5152 99.2648 23.473 98.0829 23.473L98.0429 23.453ZM109.583 21.6635C108.191 21.5777 106.882 22.3285 106.253 23.5729L107.903 24.2627C108.243 23.6488 108.913 23.2925 109.613 23.353C110.092 23.297 110.574 23.436 110.95 23.7386C111.326 24.0412 111.565 24.4822 111.613 24.9625V25.0825C111.012 24.7665 110.342 24.6018 109.663 24.6026C107.883 24.6026 106.063 25.6023 106.063 27.4217C106.098 28.2031 106.449 28.9366 107.035 29.4547C107.622 29.9728 108.393 30.2312 109.173 30.1708C110.128 30.2237 111.038 29.7575 111.553 28.9512H111.613V29.9509H113.413V25.1424C113.413 22.9531 111.753 21.6835 109.623 21.6835L109.583 21.6635ZM109.353 28.5114C108.743 28.5114 107.893 28.2015 107.893 27.4517C107.893 26.452 108.953 26.1121 109.893 26.1121C110.487 26.0975 111.074 26.2425 111.593 26.532C111.463 27.6548 110.523 28.5088 109.393 28.5314L109.353 28.5114ZM119.973 21.9535L117.833 27.3717H117.773L115.553 21.9535H113.553L116.883 29.5311L114.983 33.7397H116.983L122.053 21.9535H119.973ZM103.173 29.9509H105.033V17.4549H103.173V29.9509ZM22.7926 23.8662L10.2539 30.5429C10.2539 30.5429 9.45446 31 8.93856 31C8.86928 31 8.80533 30.994 8.74579 30.9831L19.8632 20.7848L22.7926 23.8662ZM19.1438 20.0281L8.73826 30.9809C7.86303 30.8115 8.00845 29.5243 8.00987 29.3958V10.2747C8.00987 10.2747 7.99379 9.23321 8.6926 9.03521L19.1438 20.0281ZM8.71297 9.02946C8.78068 9.01228 8.85242 9 8.93375 9C9.54824 9 10.1219 9.38246 10.1219 9.38246L22.8036 16.1757L19.9946 19.1324L8.71297 9.02946ZM28.2078 20.9826L24.3529 23.0355L20.8398 19.8894L24.1196 16.8806L28.2078 19.0705C28.2078 19.0705 29 19.407 29 19.9629C29 20.5965 28.2078 20.9826 28.2078 20.9826ZM39.272 13C40.496 13 41.424 12.2927 41.424 11.3232C41.424 10.6159 40.944 10.0199 40.272 9.89272V9.81324C40.848 9.66225 41.24 9.19338 41.24 8.55762C41.24 7.63576 40.368 7 39.224 7C37.96 7 37.12 7.7947 37.12 8.89934H37.832C37.832 8.16821 38.384 7.63576 39.224 7.63576C39.96 7.63576 40.52 8.03311 40.52 8.61325C40.52 9.16159 40.04 9.56689 39.384 9.56689H38.624V10.2026H39.344C40.128 10.2026 40.688 10.6477 40.688 11.2675C40.688 11.9113 40.072 12.3642 39.256 12.3642C38.336 12.3642 37.712 11.7523 37.712 10.9099H37C37 12.1258 37.912 13 39.272 13ZM42.768 12.8013L43.248 11.5457H46.12L46.6 12.8013H47.296L45.192 7.19868H44.2L42.072 12.8013H42.768ZM45.912 10.9497H43.464L44.656 7.83444H44.728L45.912 10.9497ZM49.104 12.8013V7.83444H52.152V7.19868H48.368V12.8013H49.104ZM53.944 12.8013V10.6318H55.48C56.68 10.6318 57.504 9.97219 57.504 8.91523C57.512 7.84238 56.712 7.19868 55.48 7.19868H53.232V12.8013H53.944ZM55.48 9.98808H53.944V7.83444H55.48C56.296 7.83444 56.784 8.25563 56.784 8.91523C56.784 9.56689 56.296 9.98808 55.48 9.98808ZM59.096 12.9603C59.968 12.9603 60.352 12.5788 61.04 11.196L63.04 7.19868H62.272L60.792 10.1629H60.712L58.96 7.19868H58.184L60.4 10.9099L60.296 11.1404C59.832 12.1099 59.472 12.3166 58.96 12.3166C58.76 12.3166 58.528 12.2768 58.376 12.2212V12.857C58.52 12.9205 58.824 12.9603 59.096 12.9603ZM65.872 13C67.096 13 68.024 12.2927 68.024 11.3232C68.024 10.6159 67.544 10.0199 66.872 9.89272V9.81324C67.448 9.66225 67.84 9.19338 67.84 8.55762C67.84 7.63576 66.968 7 65.824 7C64.56 7 63.72 7.7947 63.72 8.89934H64.432C64.432 8.16821 64.984 7.63576 65.824 7.63576C66.56 7.63576 67.12 8.03311 67.12 8.61325C67.12 9.16159 66.64 9.56689 65.984 9.56689H65.224V10.2026H65.944C66.728 10.2026 67.288 10.6477 67.288 11.2675C67.288 11.9113 66.672 12.3642 65.856 12.3642C64.936 12.3642 64.312 11.7523 64.312 10.9099H63.6C63.6 12.1258 64.512 13 65.872 13ZM70.248 12.8013L72.92 8.15232H72.992V12.8013H73.72V7.19868H72.68L70.008 11.8477H69.936V7.19868H69.2V12.8013H70.248ZM77.264 12.8013V7.83444H79.136V7.19868H74.664V7.83444H76.536V12.8013H77.264ZM84.016 12.8013V12.1656H80.8V10.2185H83.616V9.58278H80.8V7.83444H83.936V7.19868H80.064V12.8013H84.016ZM89.784 12.8013C90.92 12.8013 91.736 12.1338 91.736 11.2278C91.736 10.6238 91.328 10.0993 90.752 9.9404V9.86093C91.232 9.70993 91.576 9.23311 91.576 8.70066C91.576 7.82649 90.824 7.19868 89.792 7.19868H87.336V12.8013H89.784ZM89.704 9.60662H88.064V7.83444H89.704C90.376 7.83444 90.856 8.20795 90.856 8.7245C90.856 9.24106 90.376 9.60662 89.704 9.60662ZM89.688 12.1656H88.064V10.2424H89.688C90.456 10.2424 91.016 10.6397 91.016 11.1881C91.016 11.7523 90.456 12.1656 89.688 12.1656Z" fill="#1F1F1F"/>
<rect x="0.5" y="0.5" width="131" height="39" rx="6.5" stroke="#0BBCEF"/>
</svg>
