<svg width="132" height="40" viewBox="0 0 132 40" fill="none" xmlns="http://www.w3.org/2000/svg">
<rect x="0.5" y="0.5" width="131" height="39" rx="6.5" fill="#EBEBEB"/>
<path fill-rule="evenodd" clip-rule="evenodd" d="M9.54648 29.4535C11.093 31 13.582 31 18.56 31H19.44C24.418 31 26.907 31 28.4536 29.4535C30 27.907 30 25.418 30 20.4399V19.5599C30 14.5819 30 12.0929 28.4536 10.5464C26.907 9 24.418 9 19.44 9H18.56C13.582 9 11.093 9 9.54648 10.5464C8 12.0929 8 14.5819 8 19.5599V20.4399C8 25.418 8 27.907 9.54648 29.4535ZM24.9852 23.6229L23.4982 23.2514C23.3195 23.1999 23.1934 23.039 23.187 22.852L23.0015 17.3809C22.9479 16.6568 22.4103 16.0808 21.8486 15.9112C21.8171 15.9017 21.7834 15.9145 21.7647 15.9417C21.7457 15.9692 21.753 16.0074 21.7795 16.0279C21.9183 16.1353 22.3 16.4857 22.3 17.0901L22.2989 24.2433C22.2989 24.9341 21.6462 25.4407 20.973 25.2725L19.4633 24.8954C19.2961 24.8367 19.1799 24.6809 19.1738 24.5012L18.9883 19.0298C18.9347 18.3056 18.3971 17.7297 17.8354 17.5601C17.8038 17.5505 17.7702 17.5634 17.7515 17.5905C17.7325 17.6181 17.7398 17.6563 17.7663 17.6768C17.905 17.7842 18.2877 18.1337 18.2877 18.7381L18.2865 25.8929C18.2865 26.5837 17.6339 27.0903 16.9606 26.9221L12.6971 25.857C12.1043 25.7089 11.6887 25.1788 11.6887 24.5706V17.4061C11.6887 16.7154 12.3414 16.2088 13.0147 16.377L15.7011 17.0481V15.7565C15.7011 15.0658 16.3538 14.5593 17.027 14.7274L19.7134 15.3985V14.107C19.7134 13.4162 20.3661 12.9096 21.0393 13.0778L25.3028 14.1429C25.8956 14.2909 26.3112 14.8212 26.3112 15.4293V22.5938C26.3112 23.2845 25.6585 23.7911 24.9852 23.6229Z" fill="#1F1F1F"/>
<path d="M42.9336 12.1523V12.7656H38.6289V12.1523H42.9336ZM38.75 12.1523V14.1641H38.0039L38 12.1523H38.75ZM43.5898 12.1523L43.582 14.1602H42.8359V12.1523H43.5898ZM42.1953 7.07812V7.69531H39.7031V7.07812H42.1953ZM42.8438 7.07812V12.7656H42.0938V7.07812H42.8438ZM39.4453 7.07812H40.1992L40.082 9.3672C40.0664 9.71095 40.0339 10.0286 39.9844 10.3203C39.9349 10.6094 39.8737 10.8737 39.8008 11.1133C39.7279 11.3529 39.6445 11.5677 39.5508 11.7578C39.457 11.9453 39.3568 12.1081 39.25 12.2461C39.1432 12.3815 39.0312 12.4935 38.9141 12.582C38.7995 12.668 38.6836 12.7292 38.5664 12.7656H38.2227V12.1523H38.4648C38.5326 12.0794 38.6094 11.974 38.6953 11.8359C38.7839 11.6979 38.8711 11.5195 38.957 11.3008C39.0456 11.0794 39.1224 10.8099 39.1875 10.4922C39.2552 10.1745 39.3008 9.79949 39.3242 9.3672L39.4453 7.07812Z" fill="#1F1F1F"/>
<path d="M49.1217 9.74219V10.1016C49.1217 10.5286 49.0683 10.9115 48.9616 11.25C48.8548 11.5885 48.7011 11.8763 48.5006 12.1133C48.3001 12.3503 48.0592 12.5312 47.778 12.6562C47.4993 12.7812 47.1868 12.8438 46.8405 12.8438C46.5045 12.8438 46.1959 12.7812 45.9147 12.6562C45.636 12.5312 45.3939 12.3503 45.1881 12.1133C44.985 11.8763 44.8274 11.5885 44.7155 11.25C44.6035 10.9115 44.5475 10.5286 44.5475 10.1016V9.74219C44.5475 9.3151 44.6022 8.93359 44.7116 8.59766C44.8235 8.25911 44.9811 7.97135 45.1842 7.73438C45.3873 7.49479 45.6282 7.3125 45.9069 7.1875C46.1881 7.0625 46.4967 7 46.8327 7C47.179 7 47.4915 7.0625 47.7702 7.1875C48.0514 7.3125 48.2923 7.49479 48.4928 7.73438C48.6959 7.97135 48.8509 8.25911 48.9577 8.59766C49.067 8.93359 49.1217 9.3151 49.1217 9.74219ZM48.3756 10.1016V9.73438C48.3756 9.39583 48.3405 9.09635 48.2702 8.83594C48.2024 8.57552 48.1022 8.35677 47.9694 8.17969C47.8366 8.0026 47.6738 7.86849 47.4811 7.77734C47.291 7.6862 47.0748 7.64062 46.8327 7.64062C46.5983 7.64062 46.386 7.6862 46.1959 7.77734C46.0084 7.86849 45.847 8.0026 45.7116 8.17969C45.5788 8.35677 45.4759 8.57552 45.403 8.83594C45.3301 9.09635 45.2936 9.39583 45.2936 9.73438V10.1016C45.2936 10.4427 45.3301 10.7448 45.403 11.0078C45.4759 11.2682 45.5801 11.4883 45.7155 11.668C45.8535 11.8451 46.0163 11.9792 46.2038 12.0703C46.3939 12.1615 46.6061 12.207 46.8405 12.207C47.0853 12.207 47.3027 12.1615 47.4928 12.0703C47.6829 11.9792 47.8431 11.8451 47.9733 11.668C48.1061 11.4883 48.2064 11.2682 48.2741 11.0078C48.3418 10.7448 48.3756 10.4427 48.3756 10.1016Z" fill="#1F1F1F"/>
<path d="M54.0442 10.957H54.7942C54.7552 11.3164 54.6523 11.638 54.4856 11.9219C54.319 12.2057 54.0833 12.431 53.7786 12.5977C53.4739 12.7617 53.0937 12.8438 52.638 12.8438C52.3046 12.8438 52.0013 12.7812 51.7278 12.6562C51.457 12.5312 51.2239 12.3542 51.0286 12.125C50.8333 11.8932 50.6822 11.6159 50.5755 11.293C50.4713 10.9674 50.4192 10.6055 50.4192 10.207V9.64062C50.4192 9.24219 50.4713 8.88151 50.5755 8.55859C50.6822 8.23307 50.8346 7.95443 51.0325 7.72266C51.233 7.49089 51.4739 7.3125 51.7552 7.1875C52.0364 7.0625 52.3528 7 52.7044 7C53.1341 7 53.4973 7.08073 53.7942 7.24219C54.0911 7.40365 54.3216 7.6276 54.4856 7.91406C54.6523 8.19792 54.7552 8.52734 54.7942 8.90234H54.0442C54.0078 8.63672 53.9401 8.40885 53.8411 8.21875C53.7421 8.02604 53.6015 7.8776 53.4192 7.77344C53.2369 7.66927 52.9986 7.61719 52.7044 7.61719C52.4518 7.61719 52.2291 7.66536 52.0364 7.76172C51.8463 7.85807 51.6861 7.99479 51.5559 8.17188C51.4283 8.34896 51.332 8.5612 51.2669 8.80859C51.2018 9.05599 51.1692 9.33073 51.1692 9.63281V10.207C51.1692 10.4857 51.1979 10.7474 51.2552 10.9922C51.3151 11.237 51.4049 11.4518 51.5247 11.6367C51.6445 11.8216 51.7968 11.9674 51.9817 12.0742C52.1666 12.1784 52.3854 12.2305 52.638 12.2305C52.9583 12.2305 53.2135 12.1797 53.4036 12.0781C53.5937 11.9766 53.7369 11.8307 53.8333 11.6406C53.9322 11.4505 54.0026 11.2227 54.0442 10.957Z" fill="#1F1F1F"/>
<path d="M58.1659 7.07812V12.7656H57.4237V7.07812H58.1659ZM59.9941 7.07812V7.69531H55.5995V7.07812H59.9941Z" fill="#1F1F1F"/>
<path d="M62.9595 10.8789L64.4634 7.07812H65.3306L63.3189 11.8164C63.2616 11.9492 63.1978 12.0781 63.1275 12.2031C63.0572 12.3255 62.9712 12.4349 62.8697 12.5312C62.7681 12.6276 62.6418 12.7044 62.4908 12.7617C62.3423 12.819 62.1574 12.8477 61.9361 12.8477C61.8736 12.8477 61.7994 12.8438 61.7134 12.8359C61.6275 12.8307 61.5715 12.8242 61.5455 12.8164L61.5689 12.2148C61.5976 12.2201 61.6535 12.2253 61.7369 12.2305C61.8202 12.2331 61.8814 12.2344 61.9205 12.2344C62.0689 12.2344 62.1861 12.2044 62.272 12.1445C62.358 12.0846 62.427 12.0091 62.4791 11.918C62.5337 11.8242 62.5832 11.7292 62.6275 11.6328L62.9595 10.8789ZM61.6822 7.07812L63.2642 10.6211L63.4517 11.3203L62.8189 11.3672L60.8384 7.07812H61.6822Z" fill="#1F1F1F"/>
<path d="M70.9328 7.07812V12.7656H70.1828V7.69531H67.3781V12.7656H66.6242V7.07812H70.9328Z" fill="#1F1F1F"/>
<path d="M76.3748 9.52345V10.1367H73.2967V9.52345H76.3748ZM73.4139 7.07812V12.7656H72.66V7.07812H73.4139ZM77.0311 7.07812V12.7656H76.2811V7.07812H77.0311Z" fill="#1F1F1F"/>
<path d="M83.1098 9.74219V10.1016C83.1098 10.5286 83.0565 10.9115 82.9497 11.25C82.8429 11.5885 82.6893 11.8763 82.4887 12.1133C82.2882 12.3503 82.0473 12.5312 81.7661 12.6562C81.4874 12.7812 81.1749 12.8438 80.8286 12.8438C80.4927 12.8438 80.1841 12.7812 79.9028 12.6562C79.6242 12.5312 79.382 12.3503 79.1762 12.1133C78.9731 11.8763 78.8156 11.5885 78.7036 11.25C78.5916 10.9115 78.5356 10.5286 78.5356 10.1016V9.74219C78.5356 9.3151 78.5903 8.93359 78.6997 8.59766C78.8117 8.25911 78.9692 7.97135 79.1723 7.73438C79.3755 7.49479 79.6164 7.3125 79.895 7.1875C80.1762 7.0625 80.4848 7 80.8208 7C81.1671 7 81.4796 7.0625 81.7583 7.1875C82.0395 7.3125 82.2804 7.49479 82.4809 7.73438C82.6841 7.97135 82.839 8.25911 82.9458 8.59766C83.0552 8.93359 83.1098 9.3151 83.1098 9.74219ZM82.3637 10.1016V9.73438C82.3637 9.39583 82.3286 9.09635 82.2583 8.83594C82.1906 8.57552 82.0903 8.35677 81.9575 8.17969C81.8247 8.0026 81.6619 7.86849 81.4692 7.77734C81.2791 7.6862 81.063 7.64062 80.8208 7.64062C80.5864 7.64062 80.3742 7.6862 80.1841 7.77734C79.9966 7.86849 79.8351 8.0026 79.6997 8.17969C79.5669 8.35677 79.464 8.57552 79.3911 8.83594C79.3182 9.09635 79.2817 9.39583 79.2817 9.73438V10.1016C79.2817 10.4427 79.3182 10.7448 79.3911 11.0078C79.464 11.2682 79.5682 11.4883 79.7036 11.668C79.8416 11.8451 80.0044 11.9792 80.1919 12.0703C80.382 12.1615 80.5942 12.207 80.8286 12.207C81.0734 12.207 81.2908 12.1615 81.4809 12.0703C81.671 11.9792 81.8312 11.8451 81.9614 11.668C82.0942 11.4883 82.1945 11.2682 82.2622 11.0078C82.3299 10.7448 82.3637 10.4427 82.3637 10.1016Z" fill="#1F1F1F"/>
<path d="M88.9705 10.1055H87.5291L87.5212 9.5H88.8298C89.046 9.5 89.2348 9.46355 89.3962 9.39062C89.5577 9.31771 89.6827 9.21355 89.7712 9.07812C89.8624 8.9401 89.908 8.77605 89.908 8.58595C89.908 8.37761 89.8676 8.20834 89.7869 8.07812C89.7087 7.94532 89.5877 7.84896 89.4236 7.78906C89.2621 7.72656 89.0564 7.69531 88.8064 7.69531H87.697V12.7656H86.9431V7.07812H88.8064C89.0981 7.07812 89.3585 7.10807 89.5877 7.16797C89.8168 7.22526 90.0108 7.31641 90.1697 7.44141C90.3311 7.5638 90.4535 7.72005 90.5369 7.91016C90.6202 8.10026 90.6619 8.32812 90.6619 8.59375C90.6619 8.82812 90.602 9.04036 90.4822 9.23047C90.3624 9.41797 90.1957 9.57161 89.9822 9.69141C89.7712 9.8112 89.5239 9.88802 89.24 9.92188L88.9705 10.1055ZM88.9353 12.7656H87.2322L87.658 12.1523H88.9353C89.1749 12.1523 89.378 12.1107 89.5447 12.0273C89.714 11.944 89.8429 11.8268 89.9314 11.6758C90.0199 11.5221 90.0642 11.3411 90.0642 11.1328C90.0642 10.9219 90.0265 10.7396 89.9509 10.5859C89.8754 10.4323 89.7569 10.3138 89.5955 10.2305C89.434 10.1471 89.2257 10.1055 88.9705 10.1055H87.8962L87.9041 9.5H89.3728L89.533 9.71875C89.8064 9.74219 90.0382 9.82031 90.2283 9.95312C90.4184 10.0833 90.5629 10.25 90.6619 10.4531C90.7634 10.6562 90.8142 10.8802 90.8142 11.125C90.8142 11.4792 90.7361 11.7786 90.5798 12.0234C90.4262 12.2656 90.2087 12.4505 89.9275 12.5781C89.6462 12.7031 89.3155 12.7656 88.9353 12.7656Z" fill="#1F1F1F"/>
<path d="M43.9555 26.0729C45.8166 25.5944 47.0396 24.1586 47.0396 22.2798C47.0396 19.9579 45.1963 18.3271 42.6084 18.3271H38V30.8232H40.127V26.2324H41.6336L44.9304 30.8232H47.4296L43.9555 26.0729ZM42.6084 20.2769C43.9378 20.2769 44.8595 21.0922 44.8595 22.2798C44.8595 23.4674 43.9378 24.2827 42.6084 24.2827H40.127V20.2769H42.6084Z" fill="#1F1F1F"/>
<path d="M52.2166 31.0005C53.3333 31.0005 54.3613 30.4156 54.9463 29.4407L55.3539 30.8233H56.8783V21.6064H54.8399V26.9415C54.8399 28.2532 53.9714 29.1749 52.7838 29.1749C51.614 29.1749 50.7987 28.2532 50.7987 26.9415V21.6064H48.7603V27.172C48.7603 29.3876 50.2492 31.0005 52.2166 31.0005Z" fill="#1F1F1F"/>
<path d="M63.3832 31.0009C65.7406 31.0009 67.6903 29.6538 67.6903 27.4205C67.6903 24.9213 65.6519 24.1946 63.8972 23.5919C62.5324 23.1311 61.3448 22.7057 61.3448 21.589C61.3448 20.6142 62.2488 20.1002 63.3123 20.1002C64.4289 20.1002 65.2265 20.6851 65.6697 21.6777L67.6903 21.3409C67.0522 19.3912 65.4392 18.1504 63.2414 18.1504C60.9726 18.1504 59.1647 19.4621 59.1647 21.6954C59.1647 24.2123 61.203 24.9036 62.9578 25.4885C64.3049 25.9316 65.5101 26.357 65.5101 27.4914C65.5101 28.484 64.6062 29.0512 63.4009 29.0512C62.0184 29.0512 61.2739 28.3954 60.6181 27.2078L58.562 27.5623C59.1647 29.6716 61.0789 31.0009 63.3832 31.0009Z" fill="#1F1F1F"/>
<path d="M73.2359 29.0504C72.5442 29.0504 72.2077 28.7136 72.2077 28.0224V23.3785H74.9551V21.606H72.2077V18.9473H70.6833L70.1693 21.606H68.6627V23.3785H70.1693V28.0224C70.1693 29.8303 71.2151 30.8229 73.2359 30.8229H74.9551L75.1323 29.0504H73.2359Z" fill="#1F1F1F"/>
<path d="M80.9568 31.0001C83.8461 31.0001 85.8845 29.0149 85.8845 26.2144C85.8845 23.4139 83.8461 21.4287 80.9568 21.4287C78.0682 21.4287 76.0299 23.4139 76.0299 26.2144C76.0299 29.0149 78.0682 31.0001 80.9568 31.0001ZM80.9568 29.139C79.291 29.139 78.1568 27.9515 78.1568 26.2144C78.1568 24.4774 79.291 23.2898 80.9568 23.2898C82.6234 23.2898 83.7575 24.4774 83.7575 26.2144C83.7575 27.9515 82.6234 29.139 80.9568 29.139Z" fill="#1F1F1F"/>
<path d="M89.6947 30.8233V25.3818C89.6947 24.2119 90.2618 23.5561 91.5025 23.5561H92.6719L92.4947 21.6064H92.1049C91.0241 21.6064 90.1905 21.9077 89.5701 22.9357L89.1803 21.6064H87.6564V30.8233H89.6947Z" fill="#1F1F1F"/>
<path d="M102.702 26.1081C102.702 23.4494 100.717 21.4287 97.9164 21.4287C95.1165 21.4287 93.1307 23.4316 93.1307 26.2144C93.1307 28.9972 95.1165 31.0001 97.9164 31.0001C99.8309 31.0001 101.639 30.0962 102.33 28.3414L100.416 28.0224C99.9728 28.6782 99.1219 29.139 98.041 29.139C96.4811 29.139 95.453 28.1819 95.2577 26.7639H102.667C102.685 26.5689 102.702 26.3562 102.702 26.1081ZM97.9164 23.2012C99.1932 23.2012 100.15 24.0165 100.487 25.1687H95.3823C95.7188 23.9811 96.6757 23.2012 97.9164 23.2012Z" fill="#1F1F1F"/>
<rect x="0.5" y="0.5" width="131" height="39" rx="6.5" stroke="#0BBCEF"/>
</svg>
