<svg width="132" height="40" viewBox="0 0 132 40" fill="none" xmlns="http://www.w3.org/2000/svg">
<rect x="0.5" y="0.5" width="131" height="39" rx="6.5" fill="#EBEBEB"/>
<path d="M47.8405 10.957H47.0905C47.0488 11.2227 46.9785 11.4505 46.8795 11.6406C46.7832 11.8307 46.6399 11.9766 46.4498 12.0781C46.2597 12.1797 46.0045 12.2305 45.6842 12.2305C45.4316 12.2305 45.2129 12.1784 45.028 12.0742C44.8431 11.9674 44.6907 11.8216 44.5709 11.6367C44.4511 11.4518 44.3613 11.237 44.3014 10.9922C44.2441 10.7474 44.2155 10.4857 44.2155 10.207V9.63281C44.2155 9.33073 44.248 9.05599 44.3131 8.80859C44.3782 8.5612 44.4746 8.34896 44.6022 8.17188C44.7324 7.99479 44.8926 7.85807 45.0827 7.76172C45.2754 7.66536 45.498 7.61719 45.7506 7.61719C46.0449 7.61719 46.2832 7.66927 46.4655 7.77344C46.6478 7.8776 46.7884 8.02604 46.8873 8.21875C46.9863 8.40885 47.054 8.63672 47.0905 8.90234H47.8405C47.8014 8.52734 47.6985 8.19792 47.5319 7.91406C47.3678 7.6276 47.1373 7.40365 46.8405 7.24219C46.5436 7.08073 46.1803 7 45.7506 7C45.3991 7 45.0827 7.0625 44.8014 7.1875C44.5202 7.3125 44.2793 7.49089 44.0788 7.72266C43.8808 7.95443 43.7285 8.23307 43.6217 8.55859C43.5176 8.88151 43.4655 9.24219 43.4655 9.64062V10.207C43.4655 10.6055 43.5176 10.9674 43.6217 11.293C43.7285 11.6159 43.8795 11.8932 44.0748 12.125C44.2702 12.3542 44.5032 12.5312 44.7741 12.6562C45.0475 12.7812 45.3509 12.8438 45.6842 12.8438C46.1399 12.8438 46.5202 12.7617 46.8248 12.5977C47.1295 12.431 47.3652 12.2057 47.5319 11.9219C47.6985 11.638 47.8014 11.3164 47.8405 10.957Z" fill="black"/>
<path d="M39.9424 11.2847L38 7.07812H38.8438L40.3183 10.3804L41.625 7.07812H42.4922L40.4805 11.8164C40.4232 11.9492 40.3594 12.0781 40.2891 12.2031C40.2188 12.3255 40.1328 12.4349 40.0312 12.5312C39.9297 12.6276 39.8034 12.7044 39.6523 12.7617C39.5039 12.819 39.319 12.8477 39.0977 12.8477C39.0352 12.8477 38.9609 12.8438 38.875 12.8359C38.7891 12.8307 38.7331 12.8242 38.707 12.8164L38.7305 12.2148C38.7591 12.2201 38.8151 12.2253 38.8984 12.2305C38.9818 12.2331 39.043 12.2344 39.082 12.2344C39.2305 12.2344 39.3477 12.2044 39.4336 12.1445C39.5195 12.0846 39.5885 12.0091 39.6406 11.918C39.6953 11.8242 39.7448 11.7292 39.7891 11.6328L39.9424 11.2847Z" fill="black"/>
<path d="M51.2122 7.69531V12.7656H50.47V7.69531H48.6458V7.07812H53.0403V7.69531H51.2122Z" fill="black"/>
<path fill-rule="evenodd" clip-rule="evenodd" d="M56.2128 7.07812L58.3886 12.7656H57.6152L57.0735 11.2773H54.6948L54.1542 12.7656H53.3847L55.5527 7.07812H56.2128ZM54.919 10.6602H56.8488L55.8829 8.00639L54.919 10.6602Z" fill="black"/>
<path d="M60.2642 10.1367H63.1314V12.7656H63.8814V7.07812H63.1314V9.52345H60.2642V7.07812H59.5103V12.7656H60.2642V10.1367Z" fill="black"/>
<path fill-rule="evenodd" clip-rule="evenodd" d="M69.9602 10.1016V9.74219C69.9602 9.3151 69.9055 8.93359 69.7961 8.59766C69.6893 8.25911 69.5344 7.97135 69.3312 7.73438C69.1307 7.49479 68.8898 7.3125 68.6086 7.1875C68.3299 7.0625 68.0174 7 67.6711 7C67.3352 7 67.0266 7.0625 66.7453 7.1875C66.4667 7.3125 66.2258 7.49479 66.0227 7.73438C65.8195 7.97135 65.662 8.25911 65.55 8.59766C65.4406 8.93359 65.3859 9.3151 65.3859 9.74219V10.1016C65.3859 10.5286 65.4419 10.9115 65.5539 11.25C65.6659 11.5885 65.8234 11.8763 66.0266 12.1133C66.2323 12.3503 66.4745 12.5312 66.7531 12.6562C67.0344 12.7812 67.343 12.8438 67.6789 12.8438C68.0253 12.8438 68.3378 12.7812 68.6164 12.6562C68.8977 12.5312 69.1385 12.3503 69.3391 12.1133C69.5396 11.8763 69.6932 11.5885 69.8 11.25C69.9068 10.9115 69.9602 10.5286 69.9602 10.1016ZM69.2141 9.73438V10.1016C69.2141 10.4427 69.1802 10.7448 69.1125 11.0078C69.0448 11.2682 68.9445 11.4883 68.8117 11.668C68.6815 11.8451 68.5214 11.9792 68.3312 12.0703C68.1411 12.1615 67.9237 12.207 67.6789 12.207C67.4445 12.207 67.2323 12.1615 67.0422 12.0703C66.8547 11.9792 66.6919 11.8451 66.5539 11.668C66.4185 11.4883 66.3143 11.2682 66.2414 11.0078C66.1685 10.7448 66.132 10.4427 66.132 10.1016V9.73438C66.132 9.39583 66.1685 9.09635 66.2414 8.83594C66.3143 8.57552 66.4172 8.35677 66.55 8.17969C66.6854 8.0026 66.8469 7.86849 67.0344 7.77734C67.2245 7.6862 67.4367 7.64062 67.6711 7.64062C67.9133 7.64062 68.1294 7.6862 68.3195 7.77734C68.5122 7.86849 68.675 8.0026 68.8078 8.17969C68.9406 8.35677 69.0409 8.57552 69.1086 8.83594C69.1789 9.09635 69.2141 9.39583 69.2141 9.73438Z" fill="black"/>
<path fill-rule="evenodd" clip-rule="evenodd" d="M74.4881 9.69141C74.4383 9.71972 74.3864 9.74562 74.3325 9.76913C74.4824 9.80943 74.6163 9.87076 74.7342 9.95312C74.9243 10.0833 75.0689 10.25 75.1678 10.4531C75.2694 10.6562 75.3202 10.8802 75.3202 11.125C75.3202 11.4792 75.242 11.7786 75.0858 12.0234C74.9321 12.2656 74.7147 12.4505 74.4334 12.5781C74.1522 12.7031 73.8215 12.7656 73.4413 12.7656H71.4491V7.07812H73.3123C73.604 7.07812 73.8644 7.10807 74.0936 7.16797C74.3228 7.22526 74.5168 7.31641 74.6756 7.44141C74.8371 7.5638 74.9595 7.72005 75.0428 7.91016C75.1261 8.10026 75.1678 8.32812 75.1678 8.59375C75.1678 8.82812 75.1079 9.04036 74.9881 9.23047C74.8683 9.41797 74.7017 9.57161 74.4881 9.69141ZM72.203 10.1055V12.1523H73.4413C73.6808 12.1523 73.884 12.1107 74.0506 12.0273C74.2199 11.944 74.3488 11.8268 74.4373 11.6758C74.5259 11.5221 74.5702 11.3411 74.5702 11.1328C74.5702 10.9219 74.5324 10.7396 74.4569 10.5859C74.3814 10.4323 74.2629 10.3138 74.1014 10.2305C73.9399 10.1471 73.7316 10.1055 73.4764 10.1055H72.203ZM72.203 7.69531V9.5H73.3358C73.5519 9.5 73.7407 9.46355 73.9022 9.39062C74.0636 9.31771 74.1886 9.21355 74.2772 9.07812C74.3683 8.9401 74.4139 8.77605 74.4139 8.58595C74.4139 8.37761 74.3735 8.20834 74.2928 8.07812C74.2147 7.94532 74.0936 7.84896 73.9295 7.78906C73.7681 7.72656 73.5623 7.69531 73.3123 7.69531H72.203Z" fill="black"/>
<path d="M80.3794 7.07812L77.5786 11.4609V7.07812H76.8286V12.7656H77.5786L80.3794 8.37891V12.7656H81.1333V7.07812H80.3794Z" fill="black"/>
<path d="M84.8488 12.7656H84.1066V7.69531H82.2823V7.07812H86.6769V7.69531H84.8488V12.7656Z" fill="black"/>
<path d="M91.4939 12.7656V12.1523H88.6345V10.1367H91.0955V9.52345H88.6345V7.69531H91.4548V7.07812H87.8806V12.7656H91.4939Z" fill="black"/>
<path d="M95.8858 10.1367H98.753V12.7656H99.503V7.07812H98.753V9.52345H95.8858V7.07812H95.1319V12.7656H95.8858V10.1367Z" fill="black"/>
<path fill-rule="evenodd" clip-rule="evenodd" d="M103.554 7.07812L105.73 12.7656H104.957L104.415 11.2773H102.036L101.496 12.7656H100.726L102.894 7.07812H103.554ZM102.261 10.6602H104.19L103.224 8.00639L102.261 10.6602Z" fill="black"/>
<path d="M46.2956 29.0658C45.4822 29.6886 44.3788 30 42.9852 30C42.064 30 41.2171 29.8305 40.4445 29.4916C39.6719 29.1527 39.0714 28.6849 38.6428 28.0882C38.2143 27.4915 38 26.7963 38 26.0027H40.2127C40.2127 26.721 40.4518 27.2772 40.9299 27.6711C41.408 28.0651 42.0931 28.262 42.9852 28.262C43.7549 28.262 44.3336 28.1071 44.7213 27.7971C45.1091 27.4872 45.3029 27.0773 45.3029 26.5675C45.3029 26.0114 45.1061 25.5827 44.7126 25.2814C44.319 24.9802 43.6091 24.676 42.5829 24.369C41.5567 24.0619 40.7404 23.7201 40.134 23.3436C38.9737 22.6194 38.3936 21.6751 38.3936 20.5107C38.3936 19.4911 38.8119 18.6511 39.6486 17.9906C40.4853 17.3302 41.5713 17 42.9065 17C43.7928 17 44.5828 17.1622 45.2767 17.4866C45.9705 17.8111 46.5157 18.2731 46.9122 18.8727C47.3087 19.4723 47.5069 20.137 47.5069 20.867H45.3029C45.3029 20.2065 45.0945 19.6895 44.6776 19.3158C44.2607 18.9422 43.6645 18.7553 42.889 18.7553C42.166 18.7553 41.6048 18.9089 41.2054 19.2159C40.806 19.523 40.6063 19.9516 40.6063 20.502C40.6063 20.9655 40.8221 21.3522 41.2535 21.6621C41.685 21.972 42.3963 22.2733 43.3876 22.5658C44.3788 22.8584 45.1747 23.1915 45.7752 23.5652C46.3758 23.9388 46.816 24.3675 47.0959 24.8513C47.3757 25.335 47.5157 25.9013 47.5157 26.5501C47.5157 27.6045 47.109 28.4431 46.2956 29.0658Z" fill="black"/>
<path d="M51.5834 23.0134V29.8262H49.4581V20.4238H51.461L51.5222 21.4057C52.1869 20.6352 53.0965 20.25 54.2509 20.25C55.5162 20.25 56.3821 20.7308 56.8485 21.6925C57.5365 20.7308 58.5044 20.25 59.7522 20.25C60.7959 20.25 61.5728 20.5368 62.083 21.1103C62.5932 21.6838 62.8541 22.5296 62.8658 23.6477V29.8262H60.7405V23.7086C60.7405 23.1119 60.6093 22.6745 60.3469 22.3964C60.0845 22.1183 59.6502 21.9793 59.0438 21.9793C58.5598 21.9793 58.1648 22.1082 57.8587 22.366C57.5526 22.6238 57.3383 22.9612 57.2158 23.3783L57.2246 29.8262H55.0993V23.639C55.0702 22.5325 54.5017 21.9793 53.3938 21.9793C52.5426 21.9793 51.9391 22.324 51.5834 23.0134Z" fill="black"/>
<path fill-rule="evenodd" clip-rule="evenodd" d="M70.6681 28.9485C69.9917 29.6495 69.1637 30 68.1842 30C67.2338 30 66.4583 29.7306 65.8577 29.1918C65.2572 28.6531 64.9569 27.9869 64.9569 27.1932C64.9569 26.191 65.3315 25.4219 66.0808 24.886C66.83 24.3502 67.9014 24.0822 69.2949 24.0822H70.5981V23.4652C70.5981 22.9786 70.4611 22.589 70.187 22.2965C69.913 22.0039 69.4961 21.8576 68.9363 21.8576C68.4524 21.8576 68.0559 21.9778 67.7469 22.2182C67.4379 22.4587 67.2833 22.7643 67.2833 23.135H65.1581C65.1581 22.6194 65.3301 22.1371 65.6741 21.6882C66.0181 21.2392 66.486 20.8873 67.0778 20.6324C67.6696 20.3775 68.33 20.25 69.0588 20.25C70.1666 20.25 71.05 20.5266 71.7088 21.0799C72.3677 21.6331 72.7059 22.4109 72.7234 23.4131V27.6537C72.7234 28.4996 72.8429 29.1745 73.082 29.6785V29.8262H70.9129C70.8197 29.6466 70.738 29.3541 70.6681 28.9485ZM67.4889 27.9449C67.76 28.1853 68.123 28.3055 68.5778 28.3055C68.9976 28.3055 69.3926 28.2041 69.7628 28.0013C70.1331 27.7986 70.4115 27.5263 70.5981 27.1845V25.4118H69.4524C68.6652 25.4118 68.0734 25.5479 67.6769 25.8202C67.2804 26.0925 67.0822 26.4777 67.0822 26.9759C67.0822 27.3815 67.2178 27.7044 67.4889 27.9449Z" fill="black"/>
<path d="M77.2809 23.3957V29.8262H75.1556V20.4238H77.1847L77.2372 21.4753C77.7503 20.6584 78.4616 20.25 79.3712 20.25C79.6744 20.25 79.9251 20.2906 80.1233 20.3717L80.1146 22.3529C79.8347 22.3066 79.5461 22.2834 79.2487 22.2834C78.275 22.2834 77.6191 22.6542 77.2809 23.3957Z" fill="black"/>
<path d="M86.4913 29.8004C86.0073 29.9337 85.5409 30.0003 85.0919 30.0003C83.4593 30.0003 82.643 29.1052 82.643 27.3151V21.9883H81.0862V20.4241H82.643V18.1387H84.7683V20.4241H86.4388V21.9883H84.7683V27.2369C84.7683 27.5961 84.8397 27.8554 84.9826 28.0147C85.1254 28.174 85.3805 28.2536 85.7479 28.2536C85.9927 28.2536 86.2406 28.2247 86.4913 28.1667V29.8004Z" fill="black"/>
<path d="M97.854 18.9465V29.8262H95.6588V18.9465H91.723V17.1738H101.825V18.9465H97.854Z" fill="black"/>
<path d="M114 17.1738L109.417 29.8262H107.274L102.709 17.1738H105.132L108.333 27.0715L111.569 17.1738H114Z" fill="black"/>
<path d="M24 27H14C13.4477 27 13 27.4477 13 28C13 28.5523 13.4477 29 14 29H24C24.5523 29 25 28.5523 25 28C25 27.4477 24.5523 27 24 27Z" fill="black"/>
<path d="M10 11H28C29.1046 11 30 11.8954 30 13V24C30 25.1046 29.1046 26 28 26H10C8.89543 26 8 25.1046 8 24V13C8 11.8954 8.89543 11 10 11Z" fill="black"/>
<rect x="0.5" y="0.5" width="131" height="39" rx="6.5" stroke="#0BBCEF"/>
</svg>
