<svg width="21" height="21" viewBox="0 0 21 21" fill="none" xmlns="http://www.w3.org/2000/svg">
<path d="M19.75 9.75H12.25V2.25C12.25 1.91848 12.1183 1.60054 11.8839 1.36612C11.6495 1.1317 11.3315 1 11 1C10.6685 1 10.3505 1.1317 10.1161 1.36612C9.8817 1.60054 9.75 1.91848 9.75 2.25V9.75H2.25C1.91848 9.75 1.60054 9.8817 1.36612 10.1161C1.1317 10.3505 1 10.6685 1 11C1 11.3315 1.1317 11.6495 1.36612 11.8839C1.60054 12.1183 1.91848 12.25 2.25 12.25H9.75V19.75C9.75 20.0815 9.8817 20.3995 10.1161 20.6339C10.3505 20.8683 10.6685 21 11 21C11.3315 21 11.6495 20.8683 11.8839 20.6339C12.1183 20.3995 12.25 20.0815 12.25 19.75V12.25H19.75C20.0815 12.25 20.3995 12.1183 20.6339 11.8839C20.8683 11.6495 21 11.3315 21 11C21 10.6685 20.8683 10.3505 20.6339 10.1161C20.3995 9.8817 20.0815 9.75 19.75 9.75Z" fill="#0b9fef" stroke="#0BBCEF"/>
</svg>
