<svg width="15" height="17" viewBox="0 0 15 17" fill="none" xmlns="http://www.w3.org/2000/svg">
<path d="M13.8693 6.24094C13.8693 6.2976 13.4252 11.9142 13.1715 14.2784C13.0127 15.7292 12.0774 16.61 10.6745 16.6342C9.59577 16.6583 8.54136 16.6667 7.50316 16.6667C6.40094 16.6667 5.32302 16.6583 4.27672 16.6342C2.92082 16.6017 1.98474 15.705 1.83399 14.2784C1.57302 11.9059 1.137 6.2976 1.12889 6.24094C1.12079 6.06927 1.1759 5.90678 1.28774 5.77594C1.39796 5.65344 1.55681 5.58095 1.72377 5.58095H13.2826C13.4487 5.58095 13.5994 5.65344 13.7186 5.77594C13.8296 5.90678 13.8855 6.06927 13.8693 6.24094Z" fill="#FF1212"/>
<path d="M15 3.31413C15 2.97164 14.7301 2.70247 14.4059 2.70247H11.9762C11.4818 2.70247 11.0522 2.35164 10.942 1.85581L10.8059 1.24749C10.6154 0.514162 9.95732 0 9.22061 0H5.77939C5.03458 0 4.38378 0.514162 4.18603 1.28832L4.05879 1.85665C3.94775 2.35164 3.51821 2.70247 3.02464 2.70247H0.594878C0.269883 2.70247 0 2.97164 0 3.31413V3.6308C0 3.96496 0.269883 4.24246 0.594878 4.24246H14.4059C14.7301 4.24246 15 3.96496 15 3.6308V3.31413Z" fill="#FF1212"/>
</svg>
