<svg width="11" height="17" viewBox="0 0 11 17" fill="none" xmlns="http://www.w3.org/2000/svg">
<path d="M2.2042 10.7925L4.4942 13.0925V1.5025C4.4942 1.23728 4.59956 0.982928 4.7871 0.795392C4.97463 0.607856 5.22899 0.5025 5.4942 0.5025C5.75942 0.5025 6.01377 0.607856 6.20131 0.795392C6.38885 0.982928 6.4942 1.23728 6.4942 1.5025V13.0925L8.7842 10.7925C8.87717 10.6988 8.98777 10.6244 9.10963 10.5736C9.23149 10.5228 9.36219 10.4967 9.4942 10.4967C9.62622 10.4967 9.75692 10.5228 9.87878 10.5736C10.0006 10.6244 10.1112 10.6988 10.2042 10.7925C10.2979 10.8855 10.3723 10.9961 10.4231 11.1179C10.4739 11.2398 10.5 11.3705 10.5 11.5025C10.5 11.6345 10.4739 11.7652 10.4231 11.8871C10.3723 12.0089 10.2979 12.1195 10.2042 12.2125L6.2042 16.2125C6.1091 16.3035 5.99696 16.3749 5.8742 16.4225C5.63074 16.5225 5.35767 16.5225 5.1142 16.4225C4.99145 16.3749 4.87931 16.3035 4.7842 16.2125L0.784204 12.2125C0.690965 12.1193 0.617005 12.0086 0.566545 11.8867C0.516084 11.7649 0.490112 11.6344 0.490112 11.5025C0.490112 11.3706 0.516084 11.2401 0.566545 11.1182C0.617005 10.9964 0.690965 10.8857 0.784204 10.7925C0.877443 10.6993 0.988133 10.6253 1.10995 10.5748C1.23178 10.5244 1.36234 10.4984 1.4942 10.4984C1.62606 10.4984 1.75663 10.5244 1.87845 10.5748C2.00028 10.6253 2.11097 10.6993 2.2042 10.7925Z" fill="#0b9fef"/>
</svg>
