<svg width="19" height="19" viewBox="0 0 19 19" fill="none" xmlns="http://www.w3.org/2000/svg">
<path d="M3.16659 15.8332C2.73117 15.8332 2.35856 15.6783 2.04875 15.3685C1.73842 15.0581 1.58325 14.6853 1.58325 14.2498V11.8748C1.58325 11.2151 1.81415 10.6544 2.27596 10.1925C2.73777 9.73074 3.29853 9.49984 3.95825 9.49984H4.74992V4.74984C4.74992 4.31442 4.90509 3.94181 5.21542 3.632C5.52522 3.32167 5.89784 3.1665 6.33325 3.1665H12.6666C13.102 3.1665 13.4749 3.32167 13.7852 3.632C14.095 3.94181 14.2499 4.31442 14.2499 4.74984V9.49984H15.0416C15.7013 9.49984 16.2621 9.73074 16.7239 10.1925C17.1857 10.6544 17.4166 11.2151 17.4166 11.8748V14.2498C17.4166 14.6853 17.2617 15.0581 16.9519 15.3685C16.6415 15.6783 16.2687 15.8332 15.8333 15.8332H3.16659ZM6.33325 9.49984H12.6666V4.74984H6.33325V9.49984ZM3.16659 14.2498H15.8333V11.8748C15.8333 11.6505 15.7573 11.4624 15.6053 11.3104C15.4538 11.1589 15.2659 11.0832 15.0416 11.0832H3.95825C3.73395 11.0832 3.54579 11.1589 3.39379 11.3104C3.24232 11.4624 3.16659 11.6505 3.16659 11.8748V14.2498ZM14.2499 13.4582C14.4742 13.4582 14.6621 13.3822 14.8136 13.2302C14.9656 13.0787 15.0416 12.8908 15.0416 12.6665C15.0416 12.4422 14.9656 12.254 14.8136 12.102C14.6621 11.9506 14.4742 11.8748 14.2499 11.8748C14.0256 11.8748 13.8377 11.9506 13.6863 12.102C13.5343 12.254 13.4583 12.4422 13.4583 12.6665C13.4583 12.8908 13.5343 13.0787 13.6863 13.2302C13.8377 13.3822 14.0256 13.4582 14.2499 13.4582ZM3.16659 11.0832H15.8333H3.16659Z" fill="#0b9fef"/>
</svg>
