<svg width="19" height="19" viewBox="0 0 19 19" fill="none" xmlns="http://www.w3.org/2000/svg">
<path d="M4.79686 14.2028C4.70613 14.1152 4.63375 14.0103 4.58396 13.8944C4.53417 13.7785 4.50797 13.6539 4.50687 13.5277C4.50578 13.4016 4.52981 13.2765 4.57758 13.1597C4.62535 13.043 4.69589 12.9369 4.78508 12.8477C4.87428 12.7585 4.98035 12.688 5.0971 12.6402C5.21385 12.5924 5.33895 12.5684 5.46509 12.5695C5.59123 12.5706 5.71589 12.5968 5.83179 12.6466C5.9477 12.6964 6.05253 12.7688 6.14016 12.8595C6.80446 13.524 7.65091 13.9765 8.57244 14.1599C9.49396 14.3432 10.4492 14.2491 11.3172 13.8896C12.1853 13.53 12.9272 12.921 13.4491 12.1397C13.971 11.3584 14.2495 10.4399 14.2494 9.50029C14.2494 9.24834 14.3494 9.0067 14.5276 8.82854C14.7058 8.65038 14.9474 8.55029 15.1994 8.55029C15.4513 8.55029 15.693 8.65038 15.8711 8.82854C16.0493 9.0067 16.1494 9.24834 16.1494 9.50029C16.1495 10.8156 15.7595 12.1014 15.0288 13.1951C14.2981 14.2888 13.2595 15.1412 12.0443 15.6445C10.8291 16.1479 9.49191 16.2796 8.20188 16.023C6.91184 15.7663 5.72688 15.1329 4.79686 14.2028V14.2028Z" fill="#0b9fef"/>
<path d="M12.8807 12.1908C12.7769 12.2601 12.6605 12.3082 12.5381 12.3324C12.4157 12.3567 12.2897 12.3566 12.1674 12.3321C12.045 12.3077 11.9287 12.2594 11.825 12.19C11.7213 12.1206 11.6323 12.0315 11.563 11.9277C11.4232 11.718 11.3724 11.4614 11.4217 11.2143C11.4711 10.9672 11.6166 10.7498 11.8262 10.61L14.6762 8.71001C14.78 8.64077 14.8964 8.59265 15.0188 8.56841C15.1412 8.54416 15.2672 8.54426 15.3895 8.56869C15.5119 8.59313 15.6282 8.64142 15.7319 8.71082C15.8356 8.78022 15.9246 8.86936 15.9938 8.97316C16.0631 9.07696 16.1112 9.19338 16.1354 9.31577C16.1597 9.43816 16.1596 9.56413 16.1352 9.68649C16.1107 9.80884 16.0624 9.92519 15.993 10.0289C15.9236 10.1326 15.8345 10.2216 15.7307 10.2908L12.8807 12.1908V12.1908Z" fill="#0b9fef"/>
<path d="M17.8905 11.8229C18.0303 12.0326 18.0811 12.2891 18.0318 12.5363C17.9824 12.7834 17.8369 13.0007 17.6273 13.1406C17.4177 13.2804 17.1611 13.3312 16.914 13.2819C16.6669 13.2325 16.4495 13.0871 16.3097 12.8774L14.4097 10.0274C14.3404 9.92363 14.2923 9.80721 14.2681 9.68482C14.2438 9.56243 14.2439 9.43646 14.2684 9.3141C14.3177 9.06699 14.4632 8.84961 14.6728 8.70978C14.8824 8.56994 15.139 8.51911 15.3861 8.56846C15.6333 8.61781 15.8506 8.7633 15.9905 8.97293L17.8905 11.8229ZM14.1142 4.60863C14.205 4.69626 14.2773 4.80109 14.3271 4.91699C14.3769 5.0329 14.4031 5.15756 14.4042 5.2837C14.4053 5.40984 14.3813 5.53493 14.3335 5.65168C14.2857 5.76844 14.2152 5.8745 14.126 5.9637C14.0368 6.0529 13.9307 6.12344 13.814 6.17121C13.6972 6.21897 13.5721 6.24301 13.446 6.24192C13.3198 6.24082 13.1952 6.21461 13.0793 6.16482C12.9634 6.11504 12.8586 6.04266 12.7709 5.95193C12.1066 5.28745 11.2602 4.83491 10.3386 4.65156C9.41711 4.46821 8.46191 4.56227 7.59385 4.92186C6.72579 5.28145 5.98388 5.89041 5.46196 6.6717C4.94003 7.453 4.66154 8.37154 4.66172 9.31113C4.66172 9.56308 4.56163 9.80472 4.38347 9.98288C4.20531 10.161 3.96367 10.2611 3.71172 10.2611C3.45976 10.2611 3.21813 10.161 3.03997 9.98288C2.86181 9.80472 2.76172 9.56308 2.76172 9.31113C2.76162 7.99581 3.15159 6.71001 3.88229 5.61633C4.613 4.52266 5.65162 3.67024 6.86681 3.16688C8.082 2.66351 9.41916 2.53182 10.7092 2.78845C11.9992 3.04508 13.1842 3.67851 14.1142 4.60863V4.60863Z" fill="#0b9fef"/>
<path d="M6.03163 6.62066C6.24126 6.48082 6.49785 6.42999 6.74496 6.47934C6.99207 6.52869 7.20945 6.67418 7.34928 6.88381C7.48912 7.09344 7.53995 7.35003 7.4906 7.59713C7.44125 7.84424 7.29576 8.06162 7.08613 8.20146L4.23518 10.1015C4.13139 10.1707 4.01497 10.2188 3.89258 10.2431C3.77018 10.2673 3.64421 10.2672 3.52186 10.2428C3.3995 10.2183 3.28316 10.17 3.17947 10.1006C3.07578 10.0312 2.98677 9.94211 2.91753 9.83831C2.7777 9.62868 2.72687 9.37209 2.77622 9.12498C2.82557 8.87788 2.97106 8.66049 3.18068 8.52066L6.03068 6.62066H6.03163Z" fill="#0b9fef"/>
<path d="M1.02105 6.9886C0.951807 6.8848 0.90369 6.76838 0.879442 6.64599C0.855195 6.5236 0.855291 6.39763 0.879727 6.27527C0.904163 6.15292 0.952459 6.03657 1.02186 5.93288C1.09126 5.82919 1.1804 5.74019 1.2842 5.67095C1.38799 5.60171 1.50441 5.55359 1.6268 5.52934C1.7492 5.5051 1.87517 5.50519 1.99752 5.52963C2.11988 5.55407 2.23622 5.60236 2.33991 5.67176C2.4436 5.74116 2.53261 5.8303 2.60185 5.9341L4.50185 8.7841C4.57109 8.8879 4.6192 9.00431 4.64345 9.12671C4.6677 9.2491 4.6676 9.37507 4.64317 9.49742C4.61873 9.61978 4.57043 9.73612 4.50104 9.83981C4.43164 9.9435 4.34249 10.0325 4.2387 10.1017C4.1349 10.171 4.01848 10.2191 3.89609 10.2434C3.7737 10.2676 3.64773 10.2675 3.52537 10.2431C3.40302 10.2186 3.28667 10.1703 3.18298 10.1009C3.07929 10.0315 2.99029 9.9424 2.92105 9.8386L1.02105 6.9886V6.9886Z" fill="#0b9fef"/>
</svg>
