<svg width="11" height="17" viewBox="0 0 11 17" fill="none" xmlns="http://www.w3.org/2000/svg">
<path d="M2.19444 6.2075L4.48444 3.9075V15.4975C4.48444 15.7627 4.5898 16.0171 4.77733 16.2046C4.96487 16.3921 5.21922 16.4975 5.48444 16.4975C5.74965 16.4975 6.00401 16.3921 6.19155 16.2046C6.37908 16.0171 6.48444 15.7627 6.48444 15.4975V3.9075L8.77444 6.2075C8.8674 6.30123 8.978 6.37562 9.09986 6.42639C9.22172 6.47716 9.35243 6.5033 9.48444 6.5033C9.61645 6.5033 9.74716 6.47716 9.86901 6.42639C9.99087 6.37562 10.1015 6.30123 10.1944 6.2075C10.2882 6.11454 10.3626 6.00394 10.4133 5.88208C10.4641 5.76022 10.4902 5.62951 10.4902 5.4975C10.4902 5.36549 10.4641 5.23478 10.4133 5.11292C10.3626 4.99106 10.2882 4.88046 10.1944 4.7875L6.19444 0.787501C6.09933 0.69646 5.98719 0.625095 5.86444 0.577501C5.62098 0.477483 5.3479 0.477483 5.10444 0.577501C4.98169 0.625095 4.86954 0.69646 4.77444 0.787501L0.774438 4.7875C0.6812 4.88074 0.607239 4.99143 0.556779 5.11325C0.506319 5.23507 0.480347 5.36564 0.480347 5.4975C0.480347 5.62936 0.506319 5.75993 0.556779 5.88175C0.607239 6.00357 0.6812 6.11426 0.774438 6.2075C0.867677 6.30074 0.978367 6.3747 1.10019 6.42516C1.22201 6.47562 1.35258 6.50159 1.48444 6.50159C1.6163 6.50159 1.74687 6.47562 1.86869 6.42516C1.99051 6.3747 2.1012 6.30074 2.19444 6.2075Z" fill="#0b9fef"/>
</svg>
