<svg width="277" height="61" viewBox="0 0 277 61" fill="none" xmlns="http://www.w3.org/2000/svg">
<path d="M52.7272 17.3533L51.408 19.1577H30.6993C29.905 18.0915 30.1651 18.3515 29.3804 17.3531L41.0537 0.928467L52.7272 17.3533Z" fill="#4ABAE9"/>
<path d="M51.3388 20.9546H30.7681L30.0454 22.4057L39.8047 36.2022H41.0404L42.2861 36.1958L52.0507 22.3915L51.3388 20.9546Z" fill="#4ABAE9"/>
<path d="M28.5676 23.4398L38.3434 37.2596L37.724 38.4118H17.0152L15.696 36.6075L25.3568 23.0146L27.0389 23.2374L28.5676 23.4398Z" fill="#4ABAE9"/>
<path d="M17.084 40.2087L16.3845 41.6308L26.1541 55.4419L27.3612 55.4513L28.6353 55.4612L38.3889 41.6727L37.6545 40.2087H17.084Z" fill="#4ABAE9"/>
<path d="M51.9825 56.5714L51.2529 58.6918H30.8552L30.0918 56.5267L39.8723 42.7004L41.0908 42.7101L42.1833 42.7188L51.9825 56.5714Z" fill="#4ABAE9"/>
<path d="M24.6815 56.4843L23.8834 58.6916H0L11.672 42.2688L13.7824 42.5354L14.9178 42.6814L24.6815 56.4843Z" fill="#4ABAE9"/>
<path d="M65.6896 41.5892L55.9025 55.4248L54.7061 55.4578L53.4222 55.483L43.6829 41.7146L44.4534 40.2087H65.0239L65.6896 41.5892Z" fill="#4ABAE9"/>
<path d="M57.3906 56.4443L58.2238 58.6916H82.1069L70.435 42.2688L68.3859 42.5134L67.1392 42.6622L57.3906 56.4443Z" fill="#4ABAE9"/>
<path d="M66.4126 36.6075L56.7514 23.0144C56.7514 23.0144 55.1849 23.2922 55.1299 23.2922C55.0748 23.2922 53.5237 23.4337 53.5237 23.4337L43.7534 37.2456L44.3843 38.4118H65.0937L66.4126 36.6075Z" fill="#4ABAE9"/>
<path d="M213.082 38.2125C213.289 38.3604 213.512 38.435 213.754 38.435L218.769 38.3313C219.046 38.3313 219.269 38.2568 219.441 38.1088C219.613 37.931 219.699 37.7383 219.699 37.5308V28.774C219.699 27.9138 219.974 27.2027 220.526 26.6396L239.332 7.70383C239.436 7.58462 239.453 7.46646 239.384 7.3472C239.315 7.22904 239.09 7.16943 238.712 7.16943H231.324C230.876 7.16943 230.497 7.33337 230.188 7.65915L219.699 18.2384V8.01468C219.699 7.77726 219.596 7.58462 219.389 7.43666C219.217 7.25884 219.011 7.16943 218.769 7.16943L213.754 7.27311C213.512 7.27311 213.289 7.36251 213.082 7.54033C212.91 7.68829 212.824 7.88094 212.824 8.11836V37.6344C212.824 37.842 212.91 38.0346 213.082 38.2125Z" fill="#4B5660"/>
<path d="M233.028 38.3311C232.305 38.3013 231.771 38.2267 231.427 38.1086C231.117 37.9606 230.858 37.753 230.651 37.4858L224.479 30.0401C224.237 29.7144 224.117 29.4471 224.117 29.2396C224.117 28.9734 224.255 28.6913 224.531 28.3954C224.806 28.1282 225.115 27.8174 225.461 27.4618C225.839 27.0765 226.201 26.7209 226.544 26.3951L227.63 25.2838C227.837 25.0464 228.078 24.9282 228.353 24.9282C228.663 24.9282 228.921 25.0613 229.129 25.3274L239.124 37.3975C239.193 37.5156 239.228 37.62 239.228 37.7083C239.228 38.0937 238.918 38.3013 238.298 38.3311H233.028Z" fill="#4B5660"/>
<path fill-rule="evenodd" clip-rule="evenodd" d="M89.6377 38.3751C89.4656 38.3751 89.3277 38.3166 89.2248 38.1973C89.1213 38.0792 89.0869 37.9461 89.1213 37.7981L98.266 7.88184C98.3347 7.70407 98.4553 7.55502 98.6275 7.43685C98.834 7.28889 99.0581 7.21436 99.2989 7.21436H110.046C110.252 7.21436 110.458 7.27401 110.665 7.39217C110.872 7.51138 111.01 7.65935 111.078 7.83711L120.223 37.7534V37.8865C120.223 38.2123 120.051 38.3751 119.707 38.3751H114.644C114.437 38.3751 114.213 38.3166 113.972 38.1973C113.765 38.0494 113.645 37.8865 113.61 37.7087L111.078 29.4406C111.01 29.1744 110.838 28.952 110.562 28.7742C110.286 28.5964 109.994 28.507 109.684 28.507H99.6609C99.3509 28.507 99.0581 28.5964 98.7825 28.7742C98.5068 28.952 98.3347 29.1744 98.266 29.4406L95.7342 37.664C95.6999 37.8716 95.5621 38.0494 95.3207 38.1973C95.1143 38.3166 94.9078 38.3751 94.7008 38.3751H89.6377ZM108.082 23.7507C108.427 23.7507 108.685 23.6474 108.857 23.4398C109.064 23.2323 109.133 22.9949 109.064 22.7288L106.17 13.5717C106.136 13.3343 105.981 13.1267 105.705 12.949C105.43 12.7712 105.137 12.6818 104.827 12.6818H104.517C104.207 12.6818 103.914 12.7712 103.639 12.949C103.363 13.1267 103.208 13.3343 103.174 13.5717L100.332 22.7288L100.281 22.9502C100.281 23.1875 100.367 23.3802 100.539 23.5282C100.711 23.6762 100.952 23.7507 101.262 23.7507H108.082Z" fill="#4B5660"/>
<path d="M173.452 12.4606C173.658 12.6086 173.882 12.6821 174.123 12.6821H198.095C198.371 12.6821 198.595 12.5937 198.767 12.4159C198.974 12.2381 199.077 12.0454 199.077 11.8378V8.01512C199.077 7.80755 198.974 7.62979 198.767 7.48182C198.595 7.30406 198.371 7.2146 198.095 7.2146H174.123C173.882 7.2146 173.658 7.28913 173.452 7.43709C173.28 7.58506 173.193 7.77775 173.193 8.01512V11.8378C173.193 12.0752 173.28 12.2828 173.452 12.4606Z" fill="#4B5660"/>
<path d="M174.123 38.3312C173.882 38.3312 173.658 38.2567 173.452 38.1087C173.28 37.931 173.193 37.7383 173.193 37.5306V16.9938C173.193 16.7565 173.28 16.5638 173.452 16.4159C173.658 16.2678 173.882 16.1934 174.123 16.1934H178.515C178.791 16.1934 179.014 16.2678 179.186 16.4159C179.359 16.5638 179.445 16.7565 179.445 16.9938V20.1938C179.445 20.7569 179.893 21.039 180.788 21.039H193.808C194.048 21.039 194.255 21.1125 194.428 21.2615C194.6 21.3797 194.686 21.5425 194.686 21.7501V25.5728C194.686 25.7804 194.6 25.9582 194.428 26.1062C194.255 26.2254 194.048 26.2839 193.808 26.2839H180.633C179.841 26.2839 179.445 26.5958 179.445 27.2176V32.0632C179.445 32.2708 179.548 32.4635 179.755 32.6413C179.961 32.819 180.185 32.9074 180.426 32.9074H198.199C198.475 32.9074 198.699 32.9819 198.871 33.1299C199.042 33.2779 199.129 33.4706 199.129 33.7079V37.5306C199.129 37.7383 199.042 37.931 198.871 38.1087C198.699 38.2567 198.475 38.3312 198.199 38.3312H174.123Z" fill="#4B5660"/>
<path d="M158.987 7.2146H143.488C143.08 7.2146 142.75 7.49883 142.75 7.85015V11.6601C142.75 12.0103 143.08 12.2945 143.488 12.2945H151.687C152.18 12.3004 153.129 12.5563 153.145 13.5397V37.6962C153.145 38.0475 153.476 38.3317 153.883 38.3317H158.987C159.395 38.3317 159.725 38.0475 159.725 37.6962V11.6655V11.6601V7.85015C159.725 7.49883 159.395 7.2146 158.987 7.2146Z" fill="#4B5660"/>
<path d="M131.678 7.85015C131.678 7.49883 132.008 7.2146 132.416 7.2146H137.583C137.991 7.2146 138.321 7.49883 138.321 7.85015V37.6962C138.321 38.0475 137.991 38.3317 137.583 38.3317H132.416C132.008 38.3317 131.678 38.0475 131.678 37.6962V7.85015Z" fill="#4B5660"/>
<path d="M254.511 36.1914C257.168 37.5951 260.055 38.306 263.176 38.3242C265.58 38.3381 267.857 37.9326 270.007 37.1055C272.189 36.2796 274.097 35.0906 275.731 33.5383C275.927 33.3659 276.026 33.1638 276.027 32.9321C276.029 32.556 275.853 32.237 275.497 31.9741C275.076 31.6246 274.575 31.231 273.993 30.7943C273.41 30.3275 272.958 29.9778 272.634 29.7452C272.44 29.5705 272.181 29.4818 271.856 29.4799C271.465 29.4776 271.107 29.5909 270.781 29.8207C269.736 30.7404 268.562 31.4423 267.26 31.9262C265.956 32.4112 264.606 32.6486 263.209 32.6405C261.259 32.6291 259.442 32.1707 257.757 31.2641C256.106 30.3578 254.796 29.1489 253.831 27.6397C252.865 26.1295 252.247 24.4769 252.258 22.6834C252.268 20.89 252.906 19.2457 253.889 17.7467C254.872 16.2478 256.196 15.0554 257.859 14.1683C259.554 13.2814 261.376 12.8442 263.326 12.8555C264.821 12.8642 266.249 13.1468 267.611 13.7044C268.972 14.2329 270.17 15.0068 271.204 16.0249C271.398 16.1995 271.608 16.288 271.837 16.2893C272.096 16.2909 272.324 16.2049 272.52 16.0325C272.781 15.8314 273.255 15.4725 273.94 14.9559C274.626 14.4103 275.312 13.8936 275.996 13.4061C276.225 13.2048 276.34 13.0174 276.341 12.8439C276.342 12.6413 276.245 12.4526 276.052 12.278C274.437 10.6487 272.527 9.39373 270.322 8.51322C268.117 7.63281 265.797 7.1849 263.36 7.17076C260.24 7.15261 257.344 7.84443 254.67 9.24623C252.03 10.6202 249.923 12.5022 248.349 14.8944C246.807 17.2577 246.061 19.8418 246.044 22.6473C246.028 25.4829 246.743 28.1046 248.257 30.5148C249.802 32.895 251.887 34.7879 254.511 36.1914Z" fill="#4B5660"/>
<path d="M108.681 54.4105C109.476 54.1062 109.956 53.4743 109.956 52.5733C109.956 51.2041 108.88 50.4669 107.101 50.4669H103.579V58.6583H107.323C109.336 58.6583 110.366 57.8275 110.366 56.4232C110.366 55.3584 109.781 54.6796 108.681 54.4105ZM104.737 51.3914H107.019C108.142 51.3914 108.774 51.8595 108.774 52.7371C108.774 53.6148 108.142 54.0711 107.019 54.0711H104.737V51.3914ZM107.3 57.7339H104.737V54.9605H107.3C108.529 54.9605 109.184 55.3818 109.184 56.3296C109.184 57.2892 108.529 57.7339 107.3 57.7339Z" fill="#4B5660"/>
<path d="M114.521 52.3977C113.526 52.3977 112.602 52.6786 111.958 53.1935L112.426 54.036C112.906 53.6265 113.655 53.369 114.392 53.369C115.504 53.369 116.054 53.919 116.054 54.8669V55.0892H114.275C112.426 55.0892 111.783 55.9084 111.783 56.903C111.783 57.9796 112.672 58.7285 114.076 58.7285C115.047 58.7285 115.738 58.4009 116.112 57.8392V58.6583H117.177V54.9137C117.177 53.2169 116.218 52.3977 114.521 52.3977ZM114.263 57.8626C113.409 57.8626 112.894 57.4764 112.894 56.8562C112.894 56.3296 113.21 55.8967 114.322 55.8967H116.054V56.7626C115.773 57.4764 115.106 57.8626 114.263 57.8626Z" fill="#4B5660"/>
<path d="M127.087 52.4563V57.6754H124.361V52.4563H123.237V57.6754H120.499V52.4563H119.376V58.6583H128.211V52.4563H127.087Z" fill="#4B5660"/>
<path d="M133.886 58.6583H135.009V56.0605H138.543V58.6583H139.666V52.4563H138.543V55.0892H135.009V52.4563H133.886V58.6583Z" fill="#4B5660"/>
<path d="M144.238 52.3977C143.243 52.3977 142.319 52.6786 141.675 53.1935L142.143 54.036C142.623 53.6265 143.372 53.369 144.109 53.369C145.221 53.369 145.771 53.919 145.771 54.8669V55.0892H143.992C142.143 55.0892 141.5 55.9084 141.5 56.903C141.5 57.9796 142.389 58.7285 143.793 58.7285C144.765 58.7285 145.455 58.4009 145.83 57.8392V58.6583H146.894V54.9137C146.894 53.2169 145.935 52.3977 144.238 52.3977ZM143.981 57.8626C143.126 57.8626 142.611 57.4764 142.611 56.8562C142.611 56.3296 142.927 55.8967 144.039 55.8967H145.771V56.7626C145.49 57.4764 144.823 57.8626 143.981 57.8626Z" fill="#4B5660"/>
<path d="M154.452 57.6754V52.4563H149.643L149.549 54.5509C149.467 56.119 149.315 57.6286 148.426 57.6754H148.098V60.0977H149.163V58.6583H154.347V60.0977H155.4V57.6754H154.452ZM150.579 54.6328L150.638 53.4392H153.329V57.6754H149.853C150.415 57.1839 150.532 55.9201 150.579 54.6328Z" fill="#4B5660"/>
<path d="M162.645 55.5924C162.645 53.685 161.369 52.3977 159.579 52.3977C157.788 52.3977 156.466 53.7201 156.466 55.5573C156.466 57.4062 157.8 58.7285 159.801 58.7285C160.831 58.7285 161.685 58.3775 162.247 57.7222L161.626 56.9966C161.17 57.4998 160.562 57.7456 159.836 57.7456C158.607 57.7456 157.73 57.0201 157.589 55.9318H162.621C162.633 55.8264 162.645 55.686 162.645 55.5924ZM159.579 53.3456C160.667 53.3456 161.451 54.0828 161.568 55.1243H157.589C157.706 54.0711 158.502 53.3456 159.579 53.3456Z" fill="#4B5660"/>
<path d="M171.752 58.6583H173.086L170.956 55.4637L172.922 52.4563H171.717L170.044 55.0775H168.827V52.4563H167.703V55.0775H166.486L164.813 52.4563H163.619L165.585 55.452L163.455 58.6583H164.789L166.498 56.0371H167.703V58.6583H168.827V56.0371H170.032L171.752 58.6583Z" fill="#4B5660"/>
<path d="M174.498 58.6583H175.621V56.0605H179.155V58.6583H180.279V52.4563H179.155V55.0892H175.621V52.4563H174.498V58.6583Z" fill="#4B5660"/>
<path d="M185.435 54.5626L183.762 54.5509V52.4563H182.638V58.6583L185.248 58.67C186.91 58.6817 187.846 57.9328 187.846 56.5871C187.846 55.3116 187.003 54.5743 185.435 54.5626ZM188.77 58.6583H189.894V52.4563H188.77V58.6583ZM185.166 57.8158L183.762 57.8041V55.3701L185.166 55.3935C186.184 55.4052 186.711 55.7562 186.711 56.5754C186.711 57.4062 186.172 57.8275 185.166 57.8158Z" fill="#4B5660"/>
<path d="M195.155 51.6488C196.29 51.6488 196.981 51.0871 197.004 50.0339H196.22C196.209 50.619 195.787 50.9935 195.144 50.9935C194.512 50.9935 194.09 50.619 194.079 50.0339H193.318C193.33 51.0871 194.02 51.6488 195.155 51.6488ZM192.253 58.6583H193.283L197.074 54.1414V58.6583H198.198V52.4563H197.18L193.377 56.9732V52.4563H192.253V58.6583Z" fill="#4B5660"/>
<path d="M203.872 58.6583H204.902L208.693 54.1414V58.6583H209.817V52.4563H208.799L204.995 56.9732V52.4563H203.872V58.6583Z" fill="#4B5660"/>
<path d="M212.173 58.6583H213.296V56.0605H216.83V58.6583H217.954V52.4563H216.83V55.0892H213.296V52.4563H212.173V58.6583Z" fill="#4B5660"/>
<path d="M224.936 52.4563H219.272V53.4392H221.542V58.6583H222.666V53.4392H224.936V52.4563Z" fill="#4B5660"/>
<path d="M231.591 55.5924C231.591 53.685 230.315 52.3977 228.525 52.3977C226.735 52.3977 225.412 53.7201 225.412 55.5573C225.412 57.4062 226.746 58.7285 228.747 58.7285C229.777 58.7285 230.631 58.3775 231.193 57.7222L230.573 56.9966C230.117 57.4998 229.508 57.7456 228.783 57.7456C227.554 57.7456 226.676 57.0201 226.536 55.9318H231.568C231.579 55.8264 231.591 55.686 231.591 55.5924ZM228.525 53.3456C229.613 53.3456 230.397 54.0828 230.514 55.1243H226.536C226.653 54.0711 227.448 53.3456 228.525 53.3456Z" fill="#4B5660"/>
<path d="M236.798 52.3977C235.885 52.3977 235.089 52.7488 234.586 53.4392V52.4563H233.509V60.9285H234.633V57.7222C235.148 58.3892 235.92 58.7285 236.798 58.7285C238.611 58.7285 239.934 57.4647 239.934 55.5573C239.934 53.6616 238.611 52.3977 236.798 52.3977ZM236.704 57.7456C235.522 57.7456 234.621 56.8796 234.621 55.5573C234.621 54.2467 235.522 53.3807 236.704 53.3807C237.898 53.3807 238.799 54.2467 238.799 55.5573C238.799 56.8796 237.898 57.7456 236.704 57.7456Z" fill="#4B5660"/>
<path d="M241.741 58.6583H242.865V56.0605H246.399V58.6583H247.522V52.4563H246.399V55.0892H242.865V52.4563H241.741V58.6583Z" fill="#4B5660"/>
<path d="M255.487 55.5924C255.487 53.685 254.212 52.3977 252.421 52.3977C250.631 52.3977 249.309 53.7201 249.309 55.5573C249.309 57.4062 250.643 58.7285 252.644 58.7285C253.674 58.7285 254.528 58.3775 255.09 57.7222L254.469 56.9966C254.013 57.4998 253.404 57.7456 252.679 57.7456C251.45 57.7456 250.573 57.0201 250.432 55.9318H255.464C255.476 55.8264 255.487 55.686 255.487 55.5924ZM252.421 53.3456C253.51 53.3456 254.294 54.0828 254.411 55.1243H250.432C250.549 54.0711 251.345 53.3456 252.421 53.3456Z" fill="#4B5660"/>
<path d="M261.765 52.4563H256.101V53.4392H258.372V58.6583H259.495V53.4392H261.765V52.4563Z" fill="#4B5660"/>
</svg>
