<svg width="67" height="68" viewBox="0 0 67 68" fill="none" xmlns="http://www.w3.org/2000/svg">
<path d="M33.4999 0.473633C26.9071 0.473633 20.4625 2.4286 14.9808 6.09131C9.49921 9.75403 5.22679 14.96 2.70387 21.0509C0.180947 27.1417 -0.479164 33.8439 0.80701 40.31C2.09318 46.776 5.26788 52.7154 9.92963 57.3772C14.5914 62.0389 20.5308 65.2136 26.9968 66.4998C33.4629 67.786 40.1651 67.1259 46.256 64.603C52.3468 62.08 57.5528 57.8076 61.2155 52.326C64.8782 46.8443 66.8332 40.3997 66.8332 33.807C66.8332 29.4296 65.971 25.095 64.2958 21.0509C62.6207 17.0067 60.1654 13.332 57.0701 10.2367C53.9748 7.14145 50.3002 4.68614 46.256 3.01098C42.2118 1.33583 37.8772 0.473633 33.4999 0.473633ZM33.4999 60.4736C28.2257 60.4736 23.07 58.9097 18.6846 55.9795C14.2993 53.0493 10.8814 48.8846 8.86307 44.0119C6.84473 39.1392 6.31664 33.7774 7.34558 28.6046C8.37452 23.4317 10.9143 18.6802 14.6437 14.9508C18.3731 11.2214 23.1246 8.68163 28.2974 7.65269C33.4703 6.62375 38.832 7.15184 43.7047 9.17018C48.5774 11.1885 52.7422 14.6064 55.6724 18.9918C58.6025 23.3771 60.1665 28.5328 60.1665 33.807C60.1665 40.8794 57.357 47.6622 52.356 52.6632C47.3551 57.6641 40.5723 60.4736 33.4999 60.4736ZM40.4999 26.107L36.8332 28.0403V17.1403C36.8332 16.2562 36.482 15.4084 35.8569 14.7833C35.2318 14.1582 34.3839 13.807 33.4999 13.807C32.6158 13.807 31.768 14.1582 31.1428 14.7833C30.5177 15.4084 30.1665 16.2562 30.1665 17.1403V33.807C30.1665 33.807 30.1665 33.807 30.1665 34.007C30.1509 34.2289 30.1509 34.4517 30.1665 34.6736C30.2181 34.8783 30.285 35.0789 30.3665 35.2736V35.4736C30.5257 35.7101 30.7041 35.9331 30.8999 36.1403C31.1691 36.4073 31.4856 36.622 31.8332 36.7736H32.0999C32.534 36.9969 33.012 37.1221 33.4999 37.1403C33.8883 37.1292 34.2719 37.0502 34.6332 36.907H34.9332H35.1665L43.8332 31.907C44.6023 31.4649 45.1643 30.7355 45.3956 29.8791C45.6269 29.0227 45.5085 28.1094 45.0665 27.3403C44.6245 26.5712 43.895 26.0091 43.0386 25.7778C42.1822 25.5466 41.269 25.6649 40.4999 26.107Z" fill="url(#paint0_linear_1468_4797)"/>
<defs>
<linearGradient id="paint0_linear_1468_4797" x1="-22.5002" y1="67.5848" x2="72.8092" y2="9.37794" gradientUnits="userSpaceOnUse">
<stop stop-color="#FC00FF"/>
<stop offset="0.209893" stop-color="#C72EF8"/>
<stop offset="0.323239" stop-color="#AB47F4"/>
<stop offset="0.375" stop-color="#9E52F3"/>
<stop offset="1" stop-color="#00DBDE"/>
</linearGradient>
</defs>
</svg>
