<svg width="67" height="68" viewBox="0 0 67 68" fill="none" xmlns="http://www.w3.org/2000/svg">
<path d="M41.1335 51.6333L36.8335 55.9666V37.3333C36.8335 36.4493 36.4823 35.6014 35.8571 34.9763C35.232 34.3512 34.3842 34 33.5001 34C32.6161 34 31.7682 34.3512 31.1431 34.9763C30.518 35.6014 30.1668 36.4493 30.1668 37.3333V55.9666L25.8668 51.6333C25.556 51.3225 25.187 51.076 24.781 50.9078C24.3749 50.7396 23.9397 50.653 23.5001 50.653C23.0606 50.653 22.6254 50.7396 22.2193 50.9078C21.8132 51.076 21.4443 51.3225 21.1335 51.6333C20.8227 51.9441 20.5761 52.3131 20.4079 52.7191C20.2397 53.1252 20.1531 53.5604 20.1531 54C20.1531 54.4395 20.2397 54.8747 20.4079 55.2808C20.5761 55.6869 20.8227 56.0558 21.1335 56.3666L31.1335 66.3666C31.4505 66.6701 31.8243 66.908 32.2335 67.0666C32.6325 67.243 33.0639 67.3341 33.5001 67.3341C33.9364 67.3341 34.3678 67.243 34.7668 67.0666C35.176 66.908 35.5498 66.6701 35.8668 66.3666L45.8668 56.3666C46.4945 55.739 46.8471 54.8876 46.8471 54C46.8471 53.1123 46.4945 52.261 45.8668 51.6333C45.2391 51.0056 44.3878 50.653 43.5001 50.653C42.6124 50.653 41.7611 51.0056 41.1335 51.6333V51.6333ZM54.9001 14.7333C52.8634 10.0533 49.3484 6.17023 44.8937 3.67906C40.439 1.1879 35.2903 0.226083 30.2367 0.941007C25.183 1.65593 20.5032 4.00815 16.9143 7.63723C13.3254 11.2663 11.0254 15.972 10.3668 21.0333C7.18874 21.7944 4.40086 23.6961 2.53258 26.3773C0.664302 29.0585 -0.154264 32.3324 0.232335 35.5774C0.618933 38.8223 2.18377 41.8123 4.62968 43.9795C7.07559 46.1467 10.2322 47.3402 13.5001 47.3333C14.3842 47.3333 15.232 46.9821 15.8571 46.357C16.4823 45.7319 16.8335 44.884 16.8335 44C16.8335 43.1159 16.4823 42.2681 15.8571 41.643C15.232 41.0178 14.3842 40.6666 13.5001 40.6666C11.732 40.6666 10.0363 39.9643 8.78608 38.714C7.53583 37.4638 6.83346 35.7681 6.83346 34C6.83346 32.2319 7.53583 30.5362 8.78608 29.2859C10.0363 28.0357 11.732 27.3333 13.5001 27.3333C14.3842 27.3333 15.232 26.9821 15.8571 26.357C16.4823 25.7319 16.8335 24.884 16.8335 24C16.842 20.0576 18.2477 16.2458 20.801 13.2419C23.3543 10.238 26.8898 8.23648 30.7793 7.59289C34.6688 6.9493 38.6606 7.70533 42.0454 9.72667C45.4301 11.748 47.9888 14.9038 49.2668 18.6333C49.4573 19.2061 49.7998 19.7164 50.2577 20.1098C50.7157 20.5031 51.2718 20.7647 51.8668 20.8666C54.087 21.2862 56.0997 22.4453 57.5769 24.1551C59.0541 25.8649 59.9087 28.0245 60.0014 30.2821C60.0942 32.5397 59.4197 34.7622 58.0878 36.5874C56.7559 38.4126 54.8451 39.733 52.6668 40.3333C52.2422 40.4427 51.8433 40.6347 51.4929 40.8983C51.1425 41.1619 50.8474 41.492 50.6246 41.8696C50.4017 42.2472 50.2554 42.665 50.194 43.0992C50.1326 43.5334 50.1574 43.9754 50.2668 44.4C50.3762 44.8246 50.5682 45.2235 50.8318 45.5739C51.0954 45.9243 51.4254 46.2193 51.8031 46.4422C52.1807 46.6651 52.5985 46.8114 53.0327 46.8728C53.4668 46.9341 53.9089 46.9094 54.3335 46.8C57.8414 45.873 60.951 43.8266 63.1901 40.9715C65.4292 38.1164 66.6755 34.6087 66.7396 30.9809C66.8037 27.3531 65.6822 23.8035 63.5453 20.871C61.4085 17.9386 58.3731 15.7836 54.9001 14.7333V14.7333Z" fill="url(#paint0_linear_1457_2131)"/>
<defs>
<linearGradient id="paint0_linear_1457_2131" x1="-22.5065" y1="67.7782" x2="72.7278" y2="9.63441" gradientUnits="userSpaceOnUse">
<stop stop-color="#FC00FF"/>
<stop offset="0.209893" stop-color="#C72EF8"/>
<stop offset="0.323239" stop-color="#AB47F4"/>
<stop offset="0.375" stop-color="#9E52F3"/>
<stop offset="1" stop-color="#00DBDE"/>
</linearGradient>
</defs>
</svg>
