<svg width="68" height="68" viewBox="0 0 68 68" fill="none" xmlns="http://www.w3.org/2000/svg">
<path d="M65.3665 22.7998C65.3665 22.7998 65.3665 22.7998 65.3665 22.6331C63.0178 16.2205 58.7562 10.684 53.1581 6.77264C47.5601 2.86124 40.8957 0.763672 34.0665 0.763672C27.2373 0.763672 20.573 2.86124 14.9749 6.77264C9.37679 10.684 5.11517 16.2205 2.7665 22.6331C2.7665 22.6331 2.7665 22.6331 2.7665 22.7998C0.143587 30.0361 0.143587 37.9634 2.7665 45.1998C2.7665 45.1998 2.7665 45.1998 2.7665 45.3664C5.11517 51.779 9.37679 57.3155 14.9749 61.2269C20.573 65.1383 27.2373 67.2359 34.0665 67.2359C40.8957 67.2359 47.5601 65.1383 53.1581 61.2269C58.7562 57.3155 63.0178 51.779 65.3665 45.3664C65.3665 45.3664 65.3665 45.3664 65.3665 45.1998C67.9894 37.9634 67.9894 30.0361 65.3665 22.7998V22.7998ZM8.19984 40.6664C7.04393 36.2971 7.04393 31.7024 8.19984 27.3331H14.3998C13.8666 31.7616 13.8666 36.238 14.3998 40.6664H8.19984ZM10.9332 47.3331H15.5998C16.3822 50.3059 17.5005 53.18 18.9332 55.8998C15.6642 53.6729 12.9315 50.7466 10.9332 47.3331ZM15.5998 20.6664H10.9332C12.9027 17.2634 15.6005 14.338 18.8332 12.0998C17.435 14.8239 16.3503 17.6978 15.5998 20.6664V20.6664ZM30.6665 59.6664C26.5724 56.662 23.697 52.2839 22.5665 47.3331H30.6665V59.6664ZM30.6665 40.6664H21.1332C20.5111 36.2438 20.5111 31.7558 21.1332 27.3331H30.6665V40.6664ZM30.6665 20.6664H22.5665C23.697 15.7157 26.5724 11.3375 30.6665 8.3331V20.6664ZM57.0665 20.6664H52.3998C51.6174 17.6936 50.4991 14.8196 49.0665 12.0998C52.3355 14.3267 55.0682 17.2529 57.0665 20.6664ZM37.3332 8.3331C41.4273 11.3375 44.3027 15.7157 45.4332 20.6664H37.3332V8.3331ZM37.3332 59.6664V47.3331H45.4332C44.3027 52.2839 41.4273 56.662 37.3332 59.6664V59.6664ZM46.8665 40.6664H37.3332V27.3331H46.8665C47.4885 31.7558 47.4885 36.2438 46.8665 40.6664ZM49.1665 55.8998C50.5991 53.18 51.7174 50.3059 52.4998 47.3331H57.1665C55.1682 50.7466 52.4355 53.6729 49.1665 55.8998ZM59.7998 40.6664H53.5998C53.8709 38.4546 54.0045 36.2281 53.9998 33.9998C54.0035 31.7714 53.8699 29.545 53.5998 27.3331H59.7998C60.9557 31.7024 60.9557 36.2971 59.7998 40.6664Z" fill="url(#paint0_linear_1457_2121)"/>
<defs>
<linearGradient id="paint0_linear_1457_2121" x1="-21.8224" y1="67.679" x2="73.2495" y2="9.5629" gradientUnits="userSpaceOnUse">
<stop stop-color="#FC00FF"/>
<stop offset="0.209893" stop-color="#C72EF8"/>
<stop offset="0.323239" stop-color="#AB47F4"/>
<stop offset="0.375" stop-color="#9E52F3"/>
<stop offset="1" stop-color="#00DBDE"/>
</linearGradient>
</defs>
</svg>
