<svg width="414" height="414" viewBox="0 0 414 414" fill="none" xmlns="http://www.w3.org/2000/svg">
<g clip-path="url(#clip0_1860_5446)">
<path d="M311.358 136.396H101.779C97.1174 136.396 93.3384 140.175 93.3384 144.837V320.585C93.3384 325.247 97.1174 329.027 101.779 329.027H139.142V388.255C139.142 401.997 150.282 413.138 164.025 413.138C177.767 413.138 188.908 401.998 188.908 388.255V329.027H223.711V388.255C223.711 401.997 234.851 413.138 248.594 413.138C262.336 413.138 273.477 401.998 273.477 388.255V329.027H311.359C316.021 329.027 319.8 325.247 319.8 320.585V144.837C319.799 140.175 316.02 136.396 311.358 136.396Z" fill="white"/>
<path d="M57.8561 136.354C44.1141 136.354 32.9731 147.494 32.9731 161.237V262.302C32.9731 276.044 44.1131 287.185 57.8561 287.185C71.5981 287.185 82.7391 276.045 82.7391 262.302V161.237C82.7381 147.495 71.5981 136.354 57.8561 136.354Z" fill="white"/>
<path d="M355.281 136.354C341.539 136.354 330.398 147.494 330.398 161.237V262.302C330.398 276.044 341.538 287.185 355.281 287.185C369.023 287.185 380.164 276.045 380.164 262.302V161.237C380.164 147.495 369.024 136.354 355.281 136.354Z" fill="white"/>
<path d="M103.475 124.069H309.167C314.533 124.069 318.535 119.126 317.433 113.874C310.629 81.4463 289.983 54.1183 261.968 38.3313L279.552 6.60426C280.742 4.45626 279.966 1.74926 277.818 0.559263C275.665 -0.633737 272.962 0.145263 271.772 2.29326L254.055 34.2593C239.544 27.5253 223.372 23.7643 206.321 23.7643C189.269 23.7643 173.097 27.5253 158.586 34.2593L140.869 2.29226C139.678 0.143264 136.971 -0.631737 134.824 0.558263C132.676 1.74826 131.9 4.45526 133.09 6.60326L150.674 38.3303C122.659 54.1183 102.013 81.4453 95.2091 113.874C94.1061 119.126 98.1081 124.069 103.475 124.069ZM267.697 76.7863C267.697 82.0683 263.415 86.3513 258.132 86.3513C252.85 86.3513 248.567 82.0693 248.567 76.7863C248.567 71.5043 252.849 67.2213 258.132 67.2213C263.415 67.2213 267.697 71.5043 267.697 76.7863ZM154.508 67.2213C159.79 67.2213 164.073 71.5033 164.073 76.7863C164.073 82.0683 159.791 86.3513 154.508 86.3513C149.226 86.3513 144.943 82.0693 144.943 76.7863C144.943 71.5043 149.225 67.2213 154.508 67.2213Z" fill="white"/>
</g>
<defs>
<clipPath id="clip0_1860_5446">
<rect width="413.137" height="413.137" fill="white"/>
</clipPath>
</defs>
</svg>
