<?xml version="1.0" encoding="utf-8"?>
<svg xmlns="http://www.w3.org/2000/svg" xmlns:xlink="http://www.w3.org/1999/xlink" xml:space="preserve" width="264" height="264" viewBox="0 0 264 264"><rect width="264" height="264" fill="#ffffff" x="0" y="0"/><g fill="#000000">
<g transform="translate(96,16) scale(1.3733333333333)"><rect width="6" height="6"/></g>
<g transform="translate(112,16) scale(1.3733333333333)"><rect width="6" height="6"/></g>
<g transform="translate(120,16) scale(1.3733333333333)"><rect width="6" height="6"/></g>
<g transform="translate(136,16) scale(1.3733333333333)"><rect width="6" height="6"/></g>
<g transform="translate(152,16) scale(1.3733333333333)"><rect width="6" height="6"/></g>
<g transform="translate(160,16) scale(1.3733333333333)"><rect width="6" height="6"/></g>
<g transform="translate(168,16) scale(1.3733333333333)"><rect width="6" height="6"/></g>
<g transform="translate(80,24) scale(1.3733333333333)"><rect width="6" height="6"/></g>
<g transform="translate(96,24) scale(1.3733333333333)"><rect width="6" height="6"/></g>
<g transform="translate(120,24) scale(1.3733333333333)"><rect width="6" height="6"/></g>
<g transform="translate(128,24) scale(1.3733333333333)"><rect width="6" height="6"/></g>
<g transform="translate(136,24) scale(1.3733333333333)"><rect width="6" height="6"/></g>
<g transform="translate(144,24) scale(1.3733333333333)"><rect width="6" height="6"/></g>
<g transform="translate(152,24) scale(1.3733333333333)"><rect width="6" height="6"/></g>
<g transform="translate(112,32) scale(1.3733333333333)"><rect width="6" height="6"/></g>
<g transform="translate(120,32) scale(1.3733333333333)"><rect width="6" height="6"/></g>
<g transform="translate(144,32) scale(1.3733333333333)"><rect width="6" height="6"/></g>
<g transform="translate(168,32) scale(1.3733333333333)"><rect width="6" height="6"/></g>
<g transform="translate(80,40) scale(1.3733333333333)"><rect width="6" height="6"/></g>
<g transform="translate(88,40) scale(1.3733333333333)"><rect width="6" height="6"/></g>
<g transform="translate(96,40) scale(1.3733333333333)"><rect width="6" height="6"/></g>
<g transform="translate(112,40) scale(1.3733333333333)"><rect width="6" height="6"/></g>
<g transform="translate(128,40) scale(1.3733333333333)"><rect width="6" height="6"/></g>
<g transform="translate(152,40) scale(1.3733333333333)"><rect width="6" height="6"/></g>
<g transform="translate(176,40) scale(1.3733333333333)"><rect width="6" height="6"/></g>
<g transform="translate(88,48) scale(1.3733333333333)"><rect width="6" height="6"/></g>
<g transform="translate(168,48) scale(1.3733333333333)"><rect width="6" height="6"/></g>
<g transform="translate(176,48) scale(1.3733333333333)"><rect width="6" height="6"/></g>
<g transform="translate(80,56) scale(1.3733333333333)"><rect width="6" height="6"/></g>
<g transform="translate(88,56) scale(1.3733333333333)"><rect width="6" height="6"/></g>
<g transform="translate(104,56) scale(1.3733333333333)"><rect width="6" height="6"/></g>
<g transform="translate(112,56) scale(1.3733333333333)"><rect width="6" height="6"/></g>
<g transform="translate(136,56) scale(1.3733333333333)"><rect width="6" height="6"/></g>
<g transform="translate(152,56) scale(1.3733333333333)"><rect width="6" height="6"/></g>
<g transform="translate(160,56) scale(1.3733333333333)"><rect width="6" height="6"/></g>
<g transform="translate(176,56) scale(1.3733333333333)"><rect width="6" height="6"/></g>
<g transform="translate(80,64) scale(1.3733333333333)"><rect width="6" height="6"/></g>
<g transform="translate(96,64) scale(1.3733333333333)"><rect width="6" height="6"/></g>
<g transform="translate(112,64) scale(1.3733333333333)"><rect width="6" height="6"/></g>
<g transform="translate(128,64) scale(1.3733333333333)"><rect width="6" height="6"/></g>
<g transform="translate(144,64) scale(1.3733333333333)"><rect width="6" height="6"/></g>
<g transform="translate(160,64) scale(1.3733333333333)"><rect width="6" height="6"/></g>
<g transform="translate(176,64) scale(1.3733333333333)"><rect width="6" height="6"/></g>
<g transform="translate(88,72) scale(1.3733333333333)"><rect width="6" height="6"/></g>
<g transform="translate(96,72) scale(1.3733333333333)"><rect width="6" height="6"/></g>
<g transform="translate(104,72) scale(1.3733333333333)"><rect width="6" height="6"/></g>
<g transform="translate(128,72) scale(1.3733333333333)"><rect width="6" height="6"/></g>
<g transform="translate(136,72) scale(1.3733333333333)"><rect width="6" height="6"/></g>
<g transform="translate(144,72) scale(1.3733333333333)"><rect width="6" height="6"/></g>
<g transform="translate(16,80) scale(1.3733333333333)"><rect width="6" height="6"/></g>
<g transform="translate(24,80) scale(1.3733333333333)"><rect width="6" height="6"/></g>
<g transform="translate(32,80) scale(1.3733333333333)"><rect width="6" height="6"/></g>
<g transform="translate(40,80) scale(1.3733333333333)"><rect width="6" height="6"/></g>
<g transform="translate(48,80) scale(1.3733333333333)"><rect width="6" height="6"/></g>
<g transform="translate(64,80) scale(1.3733333333333)"><rect width="6" height="6"/></g>
<g transform="translate(72,80) scale(1.3733333333333)"><rect width="6" height="6"/></g>
<g transform="translate(80,80) scale(1.3733333333333)"><rect width="6" height="6"/></g>
<g transform="translate(88,80) scale(1.3733333333333)"><rect width="6" height="6"/></g>
<g transform="translate(104,80) scale(1.3733333333333)"><rect width="6" height="6"/></g>
<g transform="translate(152,80) scale(1.3733333333333)"><rect width="6" height="6"/></g>
<g transform="translate(176,80) scale(1.3733333333333)"><rect width="6" height="6"/></g>
<g transform="translate(184,80) scale(1.3733333333333)"><rect width="6" height="6"/></g>
<g transform="translate(200,80) scale(1.3733333333333)"><rect width="6" height="6"/></g>
<g transform="translate(216,80) scale(1.3733333333333)"><rect width="6" height="6"/></g>
<g transform="translate(232,80) scale(1.3733333333333)"><rect width="6" height="6"/></g>
<g transform="translate(40,88) scale(1.3733333333333)"><rect width="6" height="6"/></g>
<g transform="translate(48,88) scale(1.3733333333333)"><rect width="6" height="6"/></g>
<g transform="translate(72,88) scale(1.3733333333333)"><rect width="6" height="6"/></g>
<g transform="translate(80,88) scale(1.3733333333333)"><rect width="6" height="6"/></g>
<g transform="translate(96,88) scale(1.3733333333333)"><rect width="6" height="6"/></g>
<g transform="translate(112,88) scale(1.3733333333333)"><rect width="6" height="6"/></g>
<g transform="translate(120,88) scale(1.3733333333333)"><rect width="6" height="6"/></g>
<g transform="translate(128,88) scale(1.3733333333333)"><rect width="6" height="6"/></g>
<g transform="translate(144,88) scale(1.3733333333333)"><rect width="6" height="6"/></g>
<g transform="translate(152,88) scale(1.3733333333333)"><rect width="6" height="6"/></g>
<g transform="translate(160,88) scale(1.3733333333333)"><rect width="6" height="6"/></g>
<g transform="translate(168,88) scale(1.3733333333333)"><rect width="6" height="6"/></g>
<g transform="translate(176,88) scale(1.3733333333333)"><rect width="6" height="6"/></g>
<g transform="translate(184,88) scale(1.3733333333333)"><rect width="6" height="6"/></g>
<g transform="translate(192,88) scale(1.3733333333333)"><rect width="6" height="6"/></g>
<g transform="translate(208,88) scale(1.3733333333333)"><rect width="6" height="6"/></g>
<g transform="translate(240,88) scale(1.3733333333333)"><rect width="6" height="6"/></g>
<g transform="translate(16,96) scale(1.3733333333333)"><rect width="6" height="6"/></g>
<g transform="translate(32,96) scale(1.3733333333333)"><rect width="6" height="6"/></g>
<g transform="translate(48,96) scale(1.3733333333333)"><rect width="6" height="6"/></g>
<g transform="translate(64,96) scale(1.3733333333333)"><rect width="6" height="6"/></g>
<g transform="translate(72,96) scale(1.3733333333333)"><rect width="6" height="6"/></g>
<g transform="translate(80,96) scale(1.3733333333333)"><rect width="6" height="6"/></g>
<g transform="translate(96,96) scale(1.3733333333333)"><rect width="6" height="6"/></g>
<g transform="translate(120,96) scale(1.3733333333333)"><rect width="6" height="6"/></g>
<g transform="translate(128,96) scale(1.3733333333333)"><rect width="6" height="6"/></g>
<g transform="translate(136,96) scale(1.3733333333333)"><rect width="6" height="6"/></g>
<g transform="translate(160,96) scale(1.3733333333333)"><rect width="6" height="6"/></g>
<g transform="translate(176,96) scale(1.3733333333333)"><rect width="6" height="6"/></g>
<g transform="translate(192,96) scale(1.3733333333333)"><rect width="6" height="6"/></g>
<g transform="translate(208,96) scale(1.3733333333333)"><rect width="6" height="6"/></g>
<g transform="translate(16,104) scale(1.3733333333333)"><rect width="6" height="6"/></g>
<g transform="translate(24,104) scale(1.3733333333333)"><rect width="6" height="6"/></g>
<g transform="translate(48,104) scale(1.3733333333333)"><rect width="6" height="6"/></g>
<g transform="translate(56,104) scale(1.3733333333333)"><rect width="6" height="6"/></g>
<g transform="translate(80,104) scale(1.3733333333333)"><rect width="6" height="6"/></g>
<g transform="translate(112,104) scale(1.3733333333333)"><rect width="6" height="6"/></g>
<g transform="translate(120,104) scale(1.3733333333333)"><rect width="6" height="6"/></g>
<g transform="translate(136,104) scale(1.3733333333333)"><rect width="6" height="6"/></g>
<g transform="translate(144,104) scale(1.3733333333333)"><rect width="6" height="6"/></g>
<g transform="translate(168,104) scale(1.3733333333333)"><rect width="6" height="6"/></g>
<g transform="translate(176,104) scale(1.3733333333333)"><rect width="6" height="6"/></g>
<g transform="translate(216,104) scale(1.3733333333333)"><rect width="6" height="6"/></g>
<g transform="translate(232,104) scale(1.3733333333333)"><rect width="6" height="6"/></g>
<g transform="translate(16,112) scale(1.3733333333333)"><rect width="6" height="6"/></g>
<g transform="translate(56,112) scale(1.3733333333333)"><rect width="6" height="6"/></g>
<g transform="translate(64,112) scale(1.3733333333333)"><rect width="6" height="6"/></g>
<g transform="translate(88,112) scale(1.3733333333333)"><rect width="6" height="6"/></g>
<g transform="translate(96,112) scale(1.3733333333333)"><rect width="6" height="6"/></g>
<g transform="translate(112,112) scale(1.3733333333333)"><rect width="6" height="6"/></g>
<g transform="translate(128,112) scale(1.3733333333333)"><rect width="6" height="6"/></g>
<g transform="translate(136,112) scale(1.3733333333333)"><rect width="6" height="6"/></g>
<g transform="translate(152,112) scale(1.3733333333333)"><rect width="6" height="6"/></g>
<g transform="translate(168,112) scale(1.3733333333333)"><rect width="6" height="6"/></g>
<g transform="translate(200,112) scale(1.3733333333333)"><rect width="6" height="6"/></g>
<g transform="translate(216,112) scale(1.3733333333333)"><rect width="6" height="6"/></g>
<g transform="translate(224,112) scale(1.3733333333333)"><rect width="6" height="6"/></g>
<g transform="translate(24,120) scale(1.3733333333333)"><rect width="6" height="6"/></g>
<g transform="translate(48,120) scale(1.3733333333333)"><rect width="6" height="6"/></g>
<g transform="translate(56,120) scale(1.3733333333333)"><rect width="6" height="6"/></g>
<g transform="translate(80,120) scale(1.3733333333333)"><rect width="6" height="6"/></g>
<g transform="translate(88,120) scale(1.3733333333333)"><rect width="6" height="6"/></g>
<g transform="translate(144,120) scale(1.3733333333333)"><rect width="6" height="6"/></g>
<g transform="translate(168,120) scale(1.3733333333333)"><rect width="6" height="6"/></g>
<g transform="translate(184,120) scale(1.3733333333333)"><rect width="6" height="6"/></g>
<g transform="translate(192,120) scale(1.3733333333333)"><rect width="6" height="6"/></g>
<g transform="translate(200,120) scale(1.3733333333333)"><rect width="6" height="6"/></g>
<g transform="translate(208,120) scale(1.3733333333333)"><rect width="6" height="6"/></g>
<g transform="translate(240,120) scale(1.3733333333333)"><rect width="6" height="6"/></g>
<g transform="translate(16,128) scale(1.3733333333333)"><rect width="6" height="6"/></g>
<g transform="translate(32,128) scale(1.3733333333333)"><rect width="6" height="6"/></g>
<g transform="translate(40,128) scale(1.3733333333333)"><rect width="6" height="6"/></g>
<g transform="translate(56,128) scale(1.3733333333333)"><rect width="6" height="6"/></g>
<g transform="translate(64,128) scale(1.3733333333333)"><rect width="6" height="6"/></g>
<g transform="translate(80,128) scale(1.3733333333333)"><rect width="6" height="6"/></g>
<g transform="translate(96,128) scale(1.3733333333333)"><rect width="6" height="6"/></g>
<g transform="translate(104,128) scale(1.3733333333333)"><rect width="6" height="6"/></g>
<g transform="translate(112,128) scale(1.3733333333333)"><rect width="6" height="6"/></g>
<g transform="translate(136,128) scale(1.3733333333333)"><rect width="6" height="6"/></g>
<g transform="translate(144,128) scale(1.3733333333333)"><rect width="6" height="6"/></g>
<g transform="translate(176,128) scale(1.3733333333333)"><rect width="6" height="6"/></g>
<g transform="translate(192,128) scale(1.3733333333333)"><rect width="6" height="6"/></g>
<g transform="translate(200,128) scale(1.3733333333333)"><rect width="6" height="6"/></g>
<g transform="translate(208,128) scale(1.3733333333333)"><rect width="6" height="6"/></g>
<g transform="translate(216,128) scale(1.3733333333333)"><rect width="6" height="6"/></g>
<g transform="translate(224,128) scale(1.3733333333333)"><rect width="6" height="6"/></g>
<g transform="translate(24,136) scale(1.3733333333333)"><rect width="6" height="6"/></g>
<g transform="translate(32,136) scale(1.3733333333333)"><rect width="6" height="6"/></g>
<g transform="translate(56,136) scale(1.3733333333333)"><rect width="6" height="6"/></g>
<g transform="translate(104,136) scale(1.3733333333333)"><rect width="6" height="6"/></g>
<g transform="translate(128,136) scale(1.3733333333333)"><rect width="6" height="6"/></g>
<g transform="translate(144,136) scale(1.3733333333333)"><rect width="6" height="6"/></g>
<g transform="translate(160,136) scale(1.3733333333333)"><rect width="6" height="6"/></g>
<g transform="translate(176,136) scale(1.3733333333333)"><rect width="6" height="6"/></g>
<g transform="translate(184,136) scale(1.3733333333333)"><rect width="6" height="6"/></g>
<g transform="translate(192,136) scale(1.3733333333333)"><rect width="6" height="6"/></g>
<g transform="translate(200,136) scale(1.3733333333333)"><rect width="6" height="6"/></g>
<g transform="translate(208,136) scale(1.3733333333333)"><rect width="6" height="6"/></g>
<g transform="translate(232,136) scale(1.3733333333333)"><rect width="6" height="6"/></g>
<g transform="translate(24,144) scale(1.3733333333333)"><rect width="6" height="6"/></g>
<g transform="translate(56,144) scale(1.3733333333333)"><rect width="6" height="6"/></g>
<g transform="translate(64,144) scale(1.3733333333333)"><rect width="6" height="6"/></g>
<g transform="translate(72,144) scale(1.3733333333333)"><rect width="6" height="6"/></g>
<g transform="translate(80,144) scale(1.3733333333333)"><rect width="6" height="6"/></g>
<g transform="translate(96,144) scale(1.3733333333333)"><rect width="6" height="6"/></g>
<g transform="translate(104,144) scale(1.3733333333333)"><rect width="6" height="6"/></g>
<g transform="translate(152,144) scale(1.3733333333333)"><rect width="6" height="6"/></g>
<g transform="translate(176,144) scale(1.3733333333333)"><rect width="6" height="6"/></g>
<g transform="translate(216,144) scale(1.3733333333333)"><rect width="6" height="6"/></g>
<g transform="translate(224,144) scale(1.3733333333333)"><rect width="6" height="6"/></g>
<g transform="translate(16,152) scale(1.3733333333333)"><rect width="6" height="6"/></g>
<g transform="translate(24,152) scale(1.3733333333333)"><rect width="6" height="6"/></g>
<g transform="translate(32,152) scale(1.3733333333333)"><rect width="6" height="6"/></g>
<g transform="translate(40,152) scale(1.3733333333333)"><rect width="6" height="6"/></g>
<g transform="translate(48,152) scale(1.3733333333333)"><rect width="6" height="6"/></g>
<g transform="translate(56,152) scale(1.3733333333333)"><rect width="6" height="6"/></g>
<g transform="translate(72,152) scale(1.3733333333333)"><rect width="6" height="6"/></g>
<g transform="translate(88,152) scale(1.3733333333333)"><rect width="6" height="6"/></g>
<g transform="translate(96,152) scale(1.3733333333333)"><rect width="6" height="6"/></g>
<g transform="translate(112,152) scale(1.3733333333333)"><rect width="6" height="6"/></g>
<g transform="translate(120,152) scale(1.3733333333333)"><rect width="6" height="6"/></g>
<g transform="translate(128,152) scale(1.3733333333333)"><rect width="6" height="6"/></g>
<g transform="translate(160,152) scale(1.3733333333333)"><rect width="6" height="6"/></g>
<g transform="translate(168,152) scale(1.3733333333333)"><rect width="6" height="6"/></g>
<g transform="translate(176,152) scale(1.3733333333333)"><rect width="6" height="6"/></g>
<g transform="translate(184,152) scale(1.3733333333333)"><rect width="6" height="6"/></g>
<g transform="translate(192,152) scale(1.3733333333333)"><rect width="6" height="6"/></g>
<g transform="translate(200,152) scale(1.3733333333333)"><rect width="6" height="6"/></g>
<g transform="translate(208,152) scale(1.3733333333333)"><rect width="6" height="6"/></g>
<g transform="translate(224,152) scale(1.3733333333333)"><rect width="6" height="6"/></g>
<g transform="translate(240,152) scale(1.3733333333333)"><rect width="6" height="6"/></g>
<g transform="translate(16,160) scale(1.3733333333333)"><rect width="6" height="6"/></g>
<g transform="translate(32,160) scale(1.3733333333333)"><rect width="6" height="6"/></g>
<g transform="translate(40,160) scale(1.3733333333333)"><rect width="6" height="6"/></g>
<g transform="translate(56,160) scale(1.3733333333333)"><rect width="6" height="6"/></g>
<g transform="translate(64,160) scale(1.3733333333333)"><rect width="6" height="6"/></g>
<g transform="translate(72,160) scale(1.3733333333333)"><rect width="6" height="6"/></g>
<g transform="translate(80,160) scale(1.3733333333333)"><rect width="6" height="6"/></g>
<g transform="translate(88,160) scale(1.3733333333333)"><rect width="6" height="6"/></g>
<g transform="translate(120,160) scale(1.3733333333333)"><rect width="6" height="6"/></g>
<g transform="translate(128,160) scale(1.3733333333333)"><rect width="6" height="6"/></g>
<g transform="translate(136,160) scale(1.3733333333333)"><rect width="6" height="6"/></g>
<g transform="translate(208,160) scale(1.3733333333333)"><rect width="6" height="6"/></g>
<g transform="translate(224,160) scale(1.3733333333333)"><rect width="6" height="6"/></g>
<g transform="translate(16,168) scale(1.3733333333333)"><rect width="6" height="6"/></g>
<g transform="translate(72,168) scale(1.3733333333333)"><rect width="6" height="6"/></g>
<g transform="translate(80,168) scale(1.3733333333333)"><rect width="6" height="6"/></g>
<g transform="translate(88,168) scale(1.3733333333333)"><rect width="6" height="6"/></g>
<g transform="translate(96,168) scale(1.3733333333333)"><rect width="6" height="6"/></g>
<g transform="translate(112,168) scale(1.3733333333333)"><rect width="6" height="6"/></g>
<g transform="translate(120,168) scale(1.3733333333333)"><rect width="6" height="6"/></g>
<g transform="translate(168,168) scale(1.3733333333333)"><rect width="6" height="6"/></g>
<g transform="translate(208,168) scale(1.3733333333333)"><rect width="6" height="6"/></g>
<g transform="translate(232,168) scale(1.3733333333333)"><rect width="6" height="6"/></g>
<g transform="translate(16,176) scale(1.3733333333333)"><rect width="6" height="6"/></g>
<g transform="translate(48,176) scale(1.3733333333333)"><rect width="6" height="6"/></g>
<g transform="translate(56,176) scale(1.3733333333333)"><rect width="6" height="6"/></g>
<g transform="translate(64,176) scale(1.3733333333333)"><rect width="6" height="6"/></g>
<g transform="translate(80,176) scale(1.3733333333333)"><rect width="6" height="6"/></g>
<g transform="translate(88,176) scale(1.3733333333333)"><rect width="6" height="6"/></g>
<g transform="translate(96,176) scale(1.3733333333333)"><rect width="6" height="6"/></g>
<g transform="translate(112,176) scale(1.3733333333333)"><rect width="6" height="6"/></g>
<g transform="translate(128,176) scale(1.3733333333333)"><rect width="6" height="6"/></g>
<g transform="translate(136,176) scale(1.3733333333333)"><rect width="6" height="6"/></g>
<g transform="translate(144,176) scale(1.3733333333333)"><rect width="6" height="6"/></g>
<g transform="translate(152,176) scale(1.3733333333333)"><rect width="6" height="6"/></g>
<g transform="translate(160,176) scale(1.3733333333333)"><rect width="6" height="6"/></g>
<g transform="translate(176,176) scale(1.3733333333333)"><rect width="6" height="6"/></g>
<g transform="translate(184,176) scale(1.3733333333333)"><rect width="6" height="6"/></g>
<g transform="translate(192,176) scale(1.3733333333333)"><rect width="6" height="6"/></g>
<g transform="translate(200,176) scale(1.3733333333333)"><rect width="6" height="6"/></g>
<g transform="translate(208,176) scale(1.3733333333333)"><rect width="6" height="6"/></g>
<g transform="translate(224,176) scale(1.3733333333333)"><rect width="6" height="6"/></g>
<g transform="translate(232,176) scale(1.3733333333333)"><rect width="6" height="6"/></g>
<g transform="translate(240,176) scale(1.3733333333333)"><rect width="6" height="6"/></g>
<g transform="translate(80,184) scale(1.3733333333333)"><rect width="6" height="6"/></g>
<g transform="translate(144,184) scale(1.3733333333333)"><rect width="6" height="6"/></g>
<g transform="translate(152,184) scale(1.3733333333333)"><rect width="6" height="6"/></g>
<g transform="translate(160,184) scale(1.3733333333333)"><rect width="6" height="6"/></g>
<g transform="translate(168,184) scale(1.3733333333333)"><rect width="6" height="6"/></g>
<g transform="translate(176,184) scale(1.3733333333333)"><rect width="6" height="6"/></g>
<g transform="translate(208,184) scale(1.3733333333333)"><rect width="6" height="6"/></g>
<g transform="translate(216,184) scale(1.3733333333333)"><rect width="6" height="6"/></g>
<g transform="translate(224,184) scale(1.3733333333333)"><rect width="6" height="6"/></g>
<g transform="translate(232,184) scale(1.3733333333333)"><rect width="6" height="6"/></g>
<g transform="translate(240,184) scale(1.3733333333333)"><rect width="6" height="6"/></g>
<g transform="translate(80,192) scale(1.3733333333333)"><rect width="6" height="6"/></g>
<g transform="translate(96,192) scale(1.3733333333333)"><rect width="6" height="6"/></g>
<g transform="translate(104,192) scale(1.3733333333333)"><rect width="6" height="6"/></g>
<g transform="translate(112,192) scale(1.3733333333333)"><rect width="6" height="6"/></g>
<g transform="translate(136,192) scale(1.3733333333333)"><rect width="6" height="6"/></g>
<g transform="translate(152,192) scale(1.3733333333333)"><rect width="6" height="6"/></g>
<g transform="translate(168,192) scale(1.3733333333333)"><rect width="6" height="6"/></g>
<g transform="translate(176,192) scale(1.3733333333333)"><rect width="6" height="6"/></g>
<g transform="translate(192,192) scale(1.3733333333333)"><rect width="6" height="6"/></g>
<g transform="translate(208,192) scale(1.3733333333333)"><rect width="6" height="6"/></g>
<g transform="translate(216,192) scale(1.3733333333333)"><rect width="6" height="6"/></g>
<g transform="translate(224,192) scale(1.3733333333333)"><rect width="6" height="6"/></g>
<g transform="translate(104,200) scale(1.3733333333333)"><rect width="6" height="6"/></g>
<g transform="translate(128,200) scale(1.3733333333333)"><rect width="6" height="6"/></g>
<g transform="translate(136,200) scale(1.3733333333333)"><rect width="6" height="6"/></g>
<g transform="translate(144,200) scale(1.3733333333333)"><rect width="6" height="6"/></g>
<g transform="translate(168,200) scale(1.3733333333333)"><rect width="6" height="6"/></g>
<g transform="translate(176,200) scale(1.3733333333333)"><rect width="6" height="6"/></g>
<g transform="translate(208,200) scale(1.3733333333333)"><rect width="6" height="6"/></g>
<g transform="translate(232,200) scale(1.3733333333333)"><rect width="6" height="6"/></g>
<g transform="translate(80,208) scale(1.3733333333333)"><rect width="6" height="6"/></g>
<g transform="translate(88,208) scale(1.3733333333333)"><rect width="6" height="6"/></g>
<g transform="translate(104,208) scale(1.3733333333333)"><rect width="6" height="6"/></g>
<g transform="translate(136,208) scale(1.3733333333333)"><rect width="6" height="6"/></g>
<g transform="translate(152,208) scale(1.3733333333333)"><rect width="6" height="6"/></g>
<g transform="translate(176,208) scale(1.3733333333333)"><rect width="6" height="6"/></g>
<g transform="translate(184,208) scale(1.3733333333333)"><rect width="6" height="6"/></g>
<g transform="translate(192,208) scale(1.3733333333333)"><rect width="6" height="6"/></g>
<g transform="translate(200,208) scale(1.3733333333333)"><rect width="6" height="6"/></g>
<g transform="translate(208,208) scale(1.3733333333333)"><rect width="6" height="6"/></g>
<g transform="translate(224,208) scale(1.3733333333333)"><rect width="6" height="6"/></g>
<g transform="translate(80,216) scale(1.3733333333333)"><rect width="6" height="6"/></g>
<g transform="translate(88,216) scale(1.3733333333333)"><rect width="6" height="6"/></g>
<g transform="translate(96,216) scale(1.3733333333333)"><rect width="6" height="6"/></g>
<g transform="translate(112,216) scale(1.3733333333333)"><rect width="6" height="6"/></g>
<g transform="translate(120,216) scale(1.3733333333333)"><rect width="6" height="6"/></g>
<g transform="translate(128,216) scale(1.3733333333333)"><rect width="6" height="6"/></g>
<g transform="translate(144,216) scale(1.3733333333333)"><rect width="6" height="6"/></g>
<g transform="translate(160,216) scale(1.3733333333333)"><rect width="6" height="6"/></g>
<g transform="translate(176,216) scale(1.3733333333333)"><rect width="6" height="6"/></g>
<g transform="translate(200,216) scale(1.3733333333333)"><rect width="6" height="6"/></g>
<g transform="translate(216,216) scale(1.3733333333333)"><rect width="6" height="6"/></g>
<g transform="translate(224,216) scale(1.3733333333333)"><rect width="6" height="6"/></g>
<g transform="translate(232,216) scale(1.3733333333333)"><rect width="6" height="6"/></g>
<g transform="translate(240,216) scale(1.3733333333333)"><rect width="6" height="6"/></g>
<g transform="translate(80,224) scale(1.3733333333333)"><rect width="6" height="6"/></g>
<g transform="translate(88,224) scale(1.3733333333333)"><rect width="6" height="6"/></g>
<g transform="translate(120,224) scale(1.3733333333333)"><rect width="6" height="6"/></g>
<g transform="translate(128,224) scale(1.3733333333333)"><rect width="6" height="6"/></g>
<g transform="translate(136,224) scale(1.3733333333333)"><rect width="6" height="6"/></g>
<g transform="translate(160,224) scale(1.3733333333333)"><rect width="6" height="6"/></g>
<g transform="translate(168,224) scale(1.3733333333333)"><rect width="6" height="6"/></g>
<g transform="translate(176,224) scale(1.3733333333333)"><rect width="6" height="6"/></g>
<g transform="translate(192,224) scale(1.3733333333333)"><rect width="6" height="6"/></g>
<g transform="translate(200,224) scale(1.3733333333333)"><rect width="6" height="6"/></g>
<g transform="translate(208,224) scale(1.3733333333333)"><rect width="6" height="6"/></g>
<g transform="translate(216,224) scale(1.3733333333333)"><rect width="6" height="6"/></g>
<g transform="translate(224,224) scale(1.3733333333333)"><rect width="6" height="6"/></g>
<g transform="translate(232,224) scale(1.3733333333333)"><rect width="6" height="6"/></g>
<g transform="translate(80,232) scale(1.3733333333333)"><rect width="6" height="6"/></g>
<g transform="translate(88,232) scale(1.3733333333333)"><rect width="6" height="6"/></g>
<g transform="translate(96,232) scale(1.3733333333333)"><rect width="6" height="6"/></g>
<g transform="translate(112,232) scale(1.3733333333333)"><rect width="6" height="6"/></g>
<g transform="translate(120,232) scale(1.3733333333333)"><rect width="6" height="6"/></g>
<g transform="translate(144,232) scale(1.3733333333333)"><rect width="6" height="6"/></g>
<g transform="translate(176,232) scale(1.3733333333333)"><rect width="6" height="6"/></g>
<g transform="translate(200,232) scale(1.3733333333333)"><rect width="6" height="6"/></g>
<g transform="translate(208,232) scale(1.3733333333333)"><rect width="6" height="6"/></g>
<g transform="translate(216,232) scale(1.3733333333333)"><rect width="6" height="6"/></g>
<g transform="translate(232,232) scale(1.3733333333333)"><rect width="6" height="6"/></g>
<g transform="translate(80,240) scale(1.3733333333333)"><rect width="6" height="6"/></g>
<g transform="translate(112,240) scale(1.3733333333333)"><rect width="6" height="6"/></g>
<g transform="translate(128,240) scale(1.3733333333333)"><rect width="6" height="6"/></g>
<g transform="translate(152,240) scale(1.3733333333333)"><rect width="6" height="6"/></g>
<g transform="translate(184,240) scale(1.3733333333333)"><rect width="6" height="6"/></g>
<g transform="translate(208,240) scale(1.3733333333333)"><rect width="6" height="6"/></g>
<g transform="translate(224,240) scale(1.3733333333333)"><rect width="6" height="6"/></g>
<g transform="translate(16,16)"><g transform="scale(4)"><path d="M0,0v14h14V0H0z M12,12H2V2h10V12z"/></g></g>
<g transform="translate(192,16)"><g transform="scale(4)"><path d="M0,0v14h14V0H0z M12,12H2V2h10V12z"/></g></g>
<g transform="translate(16,192)"><g transform="scale(4)"><path d="M0,0v14h14V0H0z M12,12H2V2h10V12z"/></g></g>
<g transform="translate(32,32)"><g transform="scale(4)"><rect width="6" height="6"/></g></g>
<g transform="translate(208,32)"><g transform="scale(4)"><rect width="6" height="6"/></g></g>
<g transform="translate(32,208)"><g transform="scale(4)"><rect width="6" height="6"/></g></g>
</g></svg>
