<svg width="50" height="50" viewBox="0 0 50 50" fill="none" xmlns="http://www.w3.org/2000/svg">
<path d="M25 27.0833C24.4475 27.0833 23.9176 27.3028 23.5269 27.6935C23.1362 28.0842 22.9167 28.6141 22.9167 29.1666V35.4166C22.9167 35.9692 23.1362 36.4991 23.5269 36.8898C23.9176 37.2805 24.4475 37.5 25 37.5C25.5526 37.5 26.0825 37.2805 26.4732 36.8898C26.8639 36.4991 27.0834 35.9692 27.0834 35.4166V29.1666C27.0834 28.6141 26.8639 28.0842 26.4732 27.6935C26.0825 27.3028 25.5526 27.0833 25 27.0833ZM35.4167 18.75V14.5833C35.4167 11.8206 34.3192 9.1711 32.3657 7.2176C30.4122 5.26409 27.7627 4.16663 25 4.16663C22.2374 4.16663 19.5878 5.26409 17.6343 7.2176C15.6808 9.1711 14.5834 11.8206 14.5834 14.5833V18.75C12.9258 18.75 11.3361 19.4084 10.164 20.5805C8.99185 21.7526 8.33337 23.3424 8.33337 25V39.5833C8.33337 41.2409 8.99185 42.8306 10.164 44.0027C11.3361 45.1748 12.9258 45.8333 14.5834 45.8333H35.4167C37.0743 45.8333 38.664 45.1748 39.8361 44.0027C41.0082 42.8306 41.6667 41.2409 41.6667 39.5833V25C41.6667 23.3424 41.0082 21.7526 39.8361 20.5805C38.664 19.4084 37.0743 18.75 35.4167 18.75ZM18.75 14.5833C18.75 12.9257 19.4085 11.336 20.5806 10.1639C21.7527 8.99177 23.3424 8.33329 25 8.33329C26.6576 8.33329 28.2474 8.99177 29.4195 10.1639C30.5916 11.336 31.25 12.9257 31.25 14.5833V18.75H18.75V14.5833ZM37.5 39.5833C37.5 40.1358 37.2805 40.6657 36.8898 41.0564C36.4991 41.4471 35.9692 41.6666 35.4167 41.6666H14.5834C14.0308 41.6666 13.5009 41.4471 13.1102 41.0564C12.7195 40.6657 12.5 40.1358 12.5 39.5833V25C12.5 24.4474 12.7195 23.9175 13.1102 23.5268C13.5009 23.1361 14.0308 22.9166 14.5834 22.9166H35.4167C35.9692 22.9166 36.4991 23.1361 36.8898 23.5268C37.2805 23.9175 37.5 24.4474 37.5 25V39.5833Z" fill="#0BBCEF"/>
</svg>
