<svg width="50" height="50" viewBox="0 0 50 50" fill="none" xmlns="http://www.w3.org/2000/svg">
<path d="M25 18.75C24.5879 18.75 24.1851 18.8721 23.8425 19.1011C23.4999 19.33 23.2329 19.6554 23.0752 20.036C22.9175 20.4167 22.8763 20.8356 22.9567 21.2397C23.037 21.6439 23.2355 22.0151 23.5268 22.3064C23.8182 22.5978 24.1894 22.7962 24.5935 22.8766C24.9976 22.957 25.4165 22.9157 25.7972 22.758C26.1779 22.6004 26.5033 22.3333 26.7322 21.9907C26.9611 21.6481 27.0833 21.2453 27.0833 20.8333C27.0833 20.2808 26.8638 19.7509 26.4731 19.3602C26.0824 18.9695 25.5525 18.75 25 18.75ZM39.5833 4.16663H10.4166C8.75902 4.16663 7.16931 4.82511 5.99721 5.99721C4.82511 7.16931 4.16663 8.75902 4.16663 10.4166V31.25C4.16663 32.9076 4.82511 34.4973 5.99721 35.6694C7.16931 36.8415 8.75902 37.5 10.4166 37.5H34.5625L42.2708 45.2291C42.4655 45.4222 42.6963 45.575 42.9502 45.6786C43.204 45.7823 43.4758 45.8349 43.75 45.8333C44.0232 45.8403 44.2944 45.7833 44.5416 45.6666C44.9221 45.5103 45.2478 45.2449 45.4776 44.9038C45.7075 44.5628 45.8312 44.1613 45.8333 43.75V10.4166C45.8333 8.75902 45.1748 7.16931 44.0027 5.99721C42.8306 4.82511 41.2409 4.16663 39.5833 4.16663ZM41.6666 38.7291L36.8958 33.9375C36.7011 33.7444 36.4703 33.5916 36.2164 33.4879C35.9626 33.3843 35.6908 33.3317 35.4166 33.3333H10.4166C9.86409 33.3333 9.33419 33.1138 8.94349 32.7231C8.55279 32.3324 8.33329 31.8025 8.33329 31.25V10.4166C8.33329 9.86409 8.55279 9.33419 8.94349 8.94349C9.33419 8.55279 9.86409 8.33329 10.4166 8.33329H39.5833C40.1358 8.33329 40.6657 8.55279 41.0564 8.94349C41.4471 9.33419 41.6666 9.86409 41.6666 10.4166V38.7291ZM16.6666 18.75C16.2546 18.75 15.8518 18.8721 15.5092 19.1011C15.1666 19.33 14.8996 19.6554 14.7419 20.036C14.5842 20.4167 14.5429 20.8356 14.6233 21.2397C14.7037 21.6439 14.9021 22.0151 15.1935 22.3064C15.4848 22.5978 15.8561 22.7962 16.2602 22.8766C16.6643 22.957 17.0832 22.9157 17.4639 22.758C17.8446 22.6004 18.1699 22.3333 18.3989 21.9907C18.6278 21.6481 18.75 21.2453 18.75 20.8333C18.75 20.2808 18.5305 19.7509 18.1398 19.3602C17.7491 18.9695 17.2192 18.75 16.6666 18.75V18.75ZM33.3333 18.75C32.9213 18.75 32.5185 18.8721 32.1759 19.1011C31.8333 19.33 31.5662 19.6554 31.4085 20.036C31.2509 20.4167 31.2096 20.8356 31.29 21.2397C31.3704 21.6439 31.5688 22.0151 31.8602 22.3064C32.1515 22.5978 32.5227 22.7962 32.9269 22.8766C33.331 22.957 33.7499 22.9157 34.1306 22.758C34.5112 22.6004 34.8366 22.3333 35.0655 21.9907C35.2944 21.6481 35.4166 21.2453 35.4166 20.8333C35.4166 20.2808 35.1971 19.7509 34.8064 19.3602C34.4157 18.9695 33.8858 18.75 33.3333 18.75Z" fill="#0BBCEF"/>
</svg>
