<svg width="50" height="50" viewBox="0 0 50 50" fill="none" xmlns="http://www.w3.org/2000/svg">
<path d="M25 27.0834C26.2362 27.0834 27.4445 26.7168 28.4723 26.0301C29.5001 25.3433 30.3012 24.3672 30.7743 23.2251C31.2473 22.0831 31.3711 20.8264 31.1299 19.6141C30.8888 18.4017 30.2935 17.288 29.4194 16.4139C28.5454 15.5399 27.4317 14.9446 26.2193 14.7035C25.007 14.4623 23.7503 14.5861 22.6083 15.0591C21.4662 15.5322 20.4901 16.3332 19.8033 17.3611C19.1166 18.3889 18.75 19.5972 18.75 20.8334C18.75 22.491 19.4085 24.0807 20.5806 25.2528C21.7527 26.4249 23.3424 27.0834 25 27.0834ZM25 18.75C25.4121 18.75 25.8149 18.8722 26.1575 19.1011C26.5001 19.3301 26.7671 19.6554 26.9248 20.0361C27.0825 20.4168 27.1237 20.8357 27.0433 21.2398C26.9629 21.6439 26.7645 22.0151 26.4732 22.3065C26.1818 22.5979 25.8106 22.7963 25.4065 22.8767C25.0023 22.9571 24.5834 22.9158 24.2028 22.7581C23.8221 22.6004 23.4967 22.3334 23.2678 21.9908C23.0389 21.6482 22.9167 21.2454 22.9167 20.8334C22.9167 20.2808 23.1362 19.7509 23.5269 19.3602C23.9176 18.9695 24.4475 18.75 25 18.75V18.75ZM44.9792 37.8334C43.9619 34.4595 42.1054 31.3987 39.5834 28.9375C40.9872 26.4002 41.7048 23.5404 41.6651 20.6408C41.6255 17.7413 40.83 14.9022 39.3572 12.4042C37.8844 9.90619 35.7854 7.83567 33.2675 6.39721C30.7495 4.95876 27.8999 4.20215 25 4.20215C22.1002 4.20215 19.2505 4.95876 16.7326 6.39721C14.2147 7.83567 12.1156 9.90619 10.6429 12.4042C9.1701 14.9022 8.37458 17.7413 8.33492 20.6408C8.29525 23.5404 9.01281 26.4002 10.4167 28.9375C7.87984 31.3906 6.01482 34.4535 5.00003 37.8334C4.72884 38.7602 4.67612 39.7373 4.84601 40.688C5.0159 41.6386 5.40377 42.537 5.97919 43.3125C6.56546 44.1011 7.3294 44.7403 8.20901 45.1783C9.08861 45.6163 10.0591 45.8407 11.0417 45.8334H38.9584C39.9374 45.8374 40.9038 45.6115 41.7795 45.1736C42.6552 44.7357 43.4158 44.0982 44 43.3125C44.5754 42.537 44.9633 41.6386 45.1332 40.688C45.3031 39.7373 45.2504 38.7602 44.9792 37.8334ZM25 8.33336C27.4723 8.33336 29.889 9.06648 31.9447 10.44C34.0003 11.8135 35.6024 13.7657 36.5485 16.0498C37.4946 18.3339 37.7422 20.8472 37.2598 23.272C36.7775 25.6968 35.587 27.924 33.8389 29.6722C32.0907 31.4204 29.8634 32.6109 27.4387 33.0932C25.0139 33.5755 22.5006 33.328 20.2165 32.3819C17.9324 31.4358 15.9802 29.8336 14.6067 27.778C13.2331 25.7224 12.5 23.3056 12.5 20.8334C12.5 17.5182 13.817 14.3387 16.1612 11.9945C18.5054 9.65033 21.6848 8.33336 25 8.33336V8.33336ZM40.6667 40.8125C40.4707 41.0808 40.2134 41.2983 39.9162 41.4469C39.619 41.5955 39.2906 41.6709 38.9584 41.6667H11.0417C10.7095 41.6709 10.3811 41.5955 10.0839 41.4469C9.78669 41.2983 9.52936 41.0808 9.33336 40.8125C9.14603 40.5545 9.02044 40.2569 8.96626 39.9426C8.91208 39.6284 8.93076 39.3059 9.02086 39C9.7687 36.4818 11.1121 34.1808 12.9375 32.2917C14.494 33.9241 16.3656 35.2237 18.439 36.1116C20.5124 36.9995 22.7445 37.4573 25 37.4573C27.2556 37.4573 29.4876 36.9995 31.561 36.1116C33.6345 35.2237 35.5061 33.9241 37.0625 32.2917C38.8879 34.1808 40.2314 36.4818 40.9792 39C41.0693 39.3059 41.088 39.6284 41.0338 39.9426C40.9796 40.2569 40.854 40.5545 40.6667 40.8125Z" fill="#0BBCEF"/>
</svg>
