<svg width="276" height="277" viewBox="0 0 276 277" fill="none" xmlns="http://www.w3.org/2000/svg">
<path fill-rule="evenodd" clip-rule="evenodd" d="M138.169 242.598C195.725 242.598 242.383 195.992 242.383 138.5C242.383 81.009 195.725 34.403 138.169 34.403C80.6133 34.403 33.9552 81.009 33.9552 138.5C33.9552 195.992 80.6133 242.598 138.169 242.598ZM138.169 276.177C214.291 276.177 276 214.537 276 138.5C276 62.4634 214.291 0.823242 138.169 0.823242C62.047 0.823242 0.337891 62.4634 0.337891 138.5C0.337891 214.537 62.047 276.177 138.169 276.177Z" fill="#0b9fef"/>
<path fill-rule="evenodd" clip-rule="evenodd" d="M242.308 138.5C242.308 164.348 232.674 189.27 215.283 208.41C197.893 227.55 173.991 239.538 148.235 242.036C122.479 244.535 96.715 237.366 75.9621 221.926C55.2091 206.486 40.9542 183.881 35.9749 158.517L2.91309 164.992C5.11091 176.188 8.67412 186.978 13.4664 197.145C23.0438 217.463 37.5302 235.296 55.837 248.916C83.304 269.351 117.404 278.839 151.492 275.532C185.58 272.225 217.215 256.36 240.232 231.028C255.573 214.143 266.353 193.86 271.837 172.08C274.581 161.182 276 149.909 276 138.5L242.308 138.5Z" fill="#FFD522"/>
<path fill-rule="evenodd" clip-rule="evenodd" d="M35.9593 158.427C32.9837 143.199 33.4562 127.499 37.3422 112.476C41.2281 97.4537 48.4292 83.49 58.4178 71.6076L32.6162 49.9665C25.3051 58.6636 19.1225 68.2032 14.1862 78.3564C10.1965 86.5627 7.021 95.1698 4.72212 104.057C2.42322 112.944 1.02695 122.01 0.537391 131.12C-0.0683213 142.391 0.713916 153.728 2.89187 164.874L35.9593 158.427Z" fill="#8F17A3"/>
<path fill-rule="evenodd" clip-rule="evenodd" d="M37.9445 167.635C37.047 164.497 36.2976 161.318 35.6988 158.108C35.6957 158.091 35.6925 158.075 35.6894 158.058L2.59199 164.254C3.38649 168.524 4.38256 172.755 5.57666 176.93L37.9445 167.635Z" fill="#2DBB23"/>
</svg>
