<svg width="50" height="50" viewBox="0 0 50 50" fill="none" xmlns="http://www.w3.org/2000/svg">
<path d="M25 22.5C25.8241 22.5 26.6297 22.2557 27.3149 21.7978C28.0001 21.34 28.5342 20.6892 28.8495 19.9279C29.1649 19.1665 29.2474 18.3287 29.0866 17.5205C28.9259 16.7122 28.529 15.9698 27.9463 15.3871C27.3636 14.8044 26.6212 14.4075 25.8129 14.2467C25.0047 14.086 24.1669 14.1685 23.4055 14.4839C22.6442 14.7992 21.9934 15.3333 21.5356 16.0185C21.0777 16.7037 20.8334 17.5093 20.8334 18.3334C20.8334 19.4384 21.2724 20.4982 22.0538 21.2796C22.8352 22.061 23.895 22.5 25 22.5ZM23.5209 36.8959C23.7145 37.0911 23.945 37.2461 24.1988 37.3519C24.4527 37.4576 24.725 37.5121 25 37.5121C25.2751 37.5121 25.5474 37.4576 25.8012 37.3519C26.0551 37.2461 26.2855 37.0911 26.4792 36.8959L35 28.3542C36.9791 26.3762 38.3271 23.8556 38.8735 21.1114C39.4199 18.3672 39.1402 15.5225 38.0698 12.9373C36.9993 10.352 35.1862 8.14233 32.8598 6.58764C30.5334 5.03295 27.7981 4.20313 25 4.20312C22.2019 4.20313 19.4667 5.03295 17.1403 6.58764C14.8138 8.14233 13.0007 10.352 11.9303 12.9373C10.8598 15.5225 10.5801 18.3672 11.1266 21.1114C11.673 23.8556 13.021 26.3762 15 28.3542L23.5209 36.8959ZM15.0625 17.375C15.2049 15.8896 15.6772 14.4548 16.4449 13.1753C17.2126 11.8957 18.2564 10.8038 19.5 9.97919C21.1338 8.90647 23.0456 8.33493 25 8.33493C26.9545 8.33493 28.8663 8.90647 30.5 9.97919C31.7354 10.801 32.7733 11.8863 33.5391 13.1571C34.3048 14.4279 34.7795 15.8526 34.9289 17.3287C35.0783 18.8049 34.8988 20.2958 34.4031 21.6943C33.9075 23.0928 33.1082 24.364 32.0625 25.4167L25 32.4792L17.9375 25.4167C16.8907 24.3743 16.0895 23.1115 15.5921 21.7204C15.0948 20.3293 14.9139 18.8449 15.0625 17.375V17.375ZM39.5834 41.6667H10.4167C9.86417 41.6667 9.33427 41.8862 8.94357 42.2769C8.55287 42.6676 8.33337 43.1975 8.33337 43.75C8.33337 44.3026 8.55287 44.8325 8.94357 45.2232C9.33427 45.6139 9.86417 45.8334 10.4167 45.8334H39.5834C40.1359 45.8334 40.6658 45.6139 41.0565 45.2232C41.4472 44.8325 41.6667 44.3026 41.6667 43.75C41.6667 43.1975 41.4472 42.6676 41.0565 42.2769C40.6658 41.8862 40.1359 41.6667 39.5834 41.6667Z" fill="#0b9fef"/>
</svg>
