<svg width="19" height="19" viewBox="0 0 19 19" fill="none" xmlns="http://www.w3.org/2000/svg">
<path fill-rule="evenodd" clip-rule="evenodd" d="M1.59043 9.49994C1.59043 5.53094 4.68443 1.58994 9.50043 1.58994C13.3896 1.58994 15.3132 4.46834 16.1322 5.99994H13.7004C13.5148 5.99994 13.3367 6.07369 13.2055 6.20497C13.0742 6.33624 13.0004 6.51429 13.0004 6.69994C13.0004 6.88559 13.0742 7.06364 13.2055 7.19492C13.3367 7.32619 13.5148 7.39994 13.7004 7.39994H17.9004C18.0861 7.39994 18.2641 7.32619 18.3954 7.19492C18.5267 7.06364 18.6004 6.88559 18.6004 6.69994V2.49994C18.6004 2.31429 18.5267 2.13624 18.3954 2.00497C18.2641 1.87369 18.0861 1.79994 17.9004 1.79994C17.7148 1.79994 17.5367 1.87369 17.4055 2.00497C17.2742 2.13624 17.2004 2.31429 17.2004 2.49994V5.03814C16.2148 3.29934 13.9328 0.189941 9.50043 0.189941C3.81223 0.189941 0.19043 4.85894 0.19043 9.49994C0.19043 14.1409 3.81223 18.8099 9.50043 18.8099C12.222 18.8099 14.4872 17.7319 16.1 16.0911C16.9558 15.2183 17.6347 14.1881 18.0992 13.0573C18.1342 12.9723 18.152 12.8812 18.1517 12.7893C18.1515 12.6974 18.1331 12.6064 18.0977 12.5216C18.0622 12.4368 18.0105 12.3597 17.9453 12.2949C17.8801 12.2301 17.8028 12.1788 17.7177 12.1438C17.6327 12.1089 17.5416 12.0911 17.4497 12.0913C17.3578 12.0916 17.2668 12.11 17.182 12.1454C17.0971 12.1808 17.0201 12.2326 16.9553 12.2978C16.8905 12.363 16.8392 12.4403 16.8042 12.5253C16.4086 13.4885 15.8306 14.366 15.1018 15.1097C13.7424 16.4957 11.8314 17.4099 9.50043 17.4099C4.68443 17.4099 1.59043 13.4689 1.59043 9.49994V9.49994Z" fill="#4ABAE9"/>
</svg>
