<svg width="50" height="50" viewBox="0 0 50 50" fill="none" xmlns="http://www.w3.org/2000/svg">
<path d="M25.0001 31.25C23.7639 31.25 22.5556 31.6166 21.5277 32.3033C20.4999 32.9901 19.6989 33.9662 19.2258 35.1082C18.7528 36.2503 18.629 37.5069 18.8702 38.7193C19.1113 39.9317 19.7066 41.0453 20.5806 41.9194C21.4547 42.7935 22.5684 43.3888 23.7807 43.6299C24.9931 43.8711 26.2498 43.7473 27.3918 43.2742C28.5339 42.8012 29.51 42.0001 30.1967 40.9723C30.8835 39.9445 31.2501 38.7361 31.2501 37.5C31.2501 35.8424 30.5916 34.2527 29.4195 33.0806C28.2474 31.9085 26.6577 31.25 25.0001 31.25ZM25.0001 39.5833C24.588 39.5833 24.1852 39.4612 23.8426 39.2322C23.5 39.0033 23.233 38.6779 23.0753 38.2973C22.9176 37.9166 22.8764 37.4977 22.9568 37.0936C23.0371 36.6894 23.2356 36.3182 23.5269 36.0269C23.8183 35.7355 24.1895 35.5371 24.5936 35.4567C24.9978 35.3763 25.4166 35.4176 25.7973 35.5753C26.178 35.7329 26.5034 36 26.7323 36.3426C26.9612 36.6852 27.0834 37.088 27.0834 37.5C27.0834 38.0525 26.8639 38.5824 26.4732 38.9731C26.0825 39.3638 25.5526 39.5833 25.0001 39.5833ZM25.0001 22.9167C21.1349 22.93 17.4304 24.4642 14.6876 27.1875C14.2995 27.5778 14.0817 28.1059 14.0817 28.6563C14.0817 29.2066 14.2995 29.7347 14.6876 30.125C15.0779 30.513 15.6059 30.7308 16.1563 30.7308C16.7067 30.7308 17.2347 30.513 17.6251 30.125C18.5927 29.1549 19.7422 28.3853 21.0077 27.8602C22.2732 27.335 23.6299 27.0647 25.0001 27.0647C26.3702 27.0647 27.7269 27.335 28.9924 27.8602C30.258 28.3853 31.4074 29.1549 32.3751 30.125C32.7597 30.5175 33.2839 30.7422 33.8334 30.75C34.2561 30.7743 34.6762 30.6693 35.0377 30.4489C35.3992 30.2285 35.6849 29.9031 35.8569 29.5162C36.0289 29.1293 36.0788 28.6992 36.0002 28.2832C35.9216 27.8671 35.718 27.485 35.4167 27.1875C34.046 25.8265 32.4205 24.7488 30.6332 24.016C28.8459 23.2832 26.9317 22.9096 25.0001 22.9167ZM25.0001 14.5833C18.925 14.5995 13.1013 17.0098 8.79173 21.2917C8.59748 21.4859 8.4434 21.7165 8.33827 21.9703C8.23314 22.2241 8.17904 22.4961 8.17904 22.7708C8.17904 23.3256 8.39943 23.8577 8.79173 24.25C9.18403 24.6423 9.7161 24.8627 10.2709 24.8627C10.8257 24.8627 11.3578 24.6423 11.7501 24.25C15.2657 20.7387 20.0313 18.7665 25.0001 18.7665C29.9688 18.7665 34.7344 20.7387 38.2501 24.25C38.4447 24.4431 38.6756 24.5958 38.9294 24.6995C39.1833 24.8032 39.455 24.8558 39.7292 24.8542C40.0034 24.8558 40.2752 24.8032 40.529 24.6995C40.7829 24.5958 41.0137 24.4431 41.2084 24.25C41.4037 24.0563 41.5587 23.8259 41.6644 23.572C41.7702 23.3182 41.8246 23.0459 41.8246 22.7708C41.8246 22.4958 41.7702 22.2235 41.6644 21.9696C41.5587 21.7158 41.4037 21.4853 41.2084 21.2917C36.8989 17.0098 31.0751 14.5995 25.0001 14.5833ZM47.1042 15.3958C44.2021 12.4919 40.7563 10.1882 36.9635 8.61652C33.1708 7.04481 29.1056 6.23584 25.0001 6.23584C20.8946 6.23584 16.8293 7.04481 13.0366 8.61652C9.24385 10.1882 5.79799 12.4919 2.89589 15.3958C2.50359 15.7881 2.2832 16.3202 2.2832 16.875C2.2832 17.4298 2.50359 17.9619 2.89589 18.3542C3.28819 18.7465 3.82027 18.9669 4.37506 18.9669C4.92986 18.9669 5.46193 18.7465 5.85423 18.3542C10.9329 13.2781 17.8196 10.4266 25.0001 10.4266C32.1806 10.4266 39.0672 13.2781 44.1459 18.3542C44.3396 18.5494 44.57 18.7044 44.8239 18.8102C45.0777 18.916 45.35 18.9704 45.6251 18.9704C45.9001 18.9704 46.1724 18.916 46.4263 18.8102C46.6801 18.7044 46.9106 18.5494 47.1042 18.3542C47.2995 18.1605 47.4545 17.9301 47.5603 17.6762C47.666 17.4223 47.7205 17.15 47.7205 16.875C47.7205 16.6 47.666 16.3277 47.5603 16.0738C47.4545 15.8199 47.2995 15.5895 47.1042 15.3958V15.3958Z" fill="#0b9fef"/>
</svg>
