<svg width="20" height="20" viewBox="0 0 20 20" fill="none" xmlns="http://www.w3.org/2000/svg">
<path d="M17.5 8.40909C17.5 13.9773 10 18.75 10 18.75C10 18.75 2.5 13.9773 2.5 8.40909C2.5 6.51038 3.29018 4.68944 4.6967 3.34685C6.10322 2.00426 8.01088 1.25 10 1.25C11.9891 1.25 13.8968 2.00426 15.3033 3.34685C16.7098 4.68944 17.5 6.51038 17.5 8.40909Z" stroke="#0BBCEF" stroke-width="2" stroke-linecap="round" stroke-linejoin="round"/>
<path d="M10 11.25C11.3807 11.25 12.5 10.1307 12.5 8.75C12.5 7.36929 11.3807 6.25 10 6.25C8.61929 6.25 7.5 7.36929 7.5 8.75C7.5 10.1307 8.61929 11.25 10 11.25Z" stroke="#0BBCEF" stroke-width="2" stroke-linecap="round" stroke-linejoin="round"/>
</svg>
