<svg width="20" height="20" viewBox="0 0 20 20" fill="none" xmlns="http://www.w3.org/2000/svg">
<path d="M14.1673 9.16683H15.0007C15.2217 9.16683 15.4336 9.07903 15.5899 8.92275C15.7462 8.76647 15.834 8.55451 15.834 8.3335V7.50016C15.834 7.27915 15.7462 7.06719 15.5899 6.91091C15.4336 6.75463 15.2217 6.66683 15.0007 6.66683H14.1673C13.9463 6.66683 13.7343 6.75463 13.5781 6.91091C13.4218 7.06719 13.334 7.27915 13.334 7.50016V8.3335C13.334 8.55451 13.4218 8.76647 13.5781 8.92275C13.7343 9.07903 13.9463 9.16683 14.1673 9.16683ZM5.00065 10.0002H9.16732C9.38833 10.0002 9.60029 9.91237 9.75657 9.75608C9.91285 9.5998 10.0007 9.38784 10.0007 9.16683C10.0007 8.94582 9.91285 8.73385 9.75657 8.57757C9.60029 8.42129 9.38833 8.3335 9.16732 8.3335H5.00065C4.77964 8.3335 4.56768 8.42129 4.4114 8.57757C4.25512 8.73385 4.16732 8.94582 4.16732 9.16683C4.16732 9.38784 4.25512 9.5998 4.4114 9.75608C4.56768 9.91237 4.77964 10.0002 5.00065 10.0002ZM18.334 3.3335H1.66732C1.4463 3.3335 1.23434 3.42129 1.07806 3.57757C0.921782 3.73385 0.833984 3.94582 0.833984 4.16683V15.8335C0.833984 16.0545 0.921782 16.2665 1.07806 16.4228C1.23434 16.579 1.4463 16.6668 1.66732 16.6668H18.334C18.555 16.6668 18.767 16.579 18.9232 16.4228C19.0795 16.2665 19.1673 16.0545 19.1673 15.8335V4.16683C19.1673 3.94582 19.0795 3.73385 18.9232 3.57757C18.767 3.42129 18.555 3.3335 18.334 3.3335V3.3335ZM17.5007 15.0002H2.50065V5.00016H17.5007V15.0002ZM5.00065 13.3335H9.16732C9.38833 13.3335 9.60029 13.2457 9.75657 13.0894C9.91285 12.9331 10.0007 12.7212 10.0007 12.5002C10.0007 12.2791 9.91285 12.0672 9.75657 11.9109C9.60029 11.7546 9.38833 11.6668 9.16732 11.6668H5.00065C4.77964 11.6668 4.56768 11.7546 4.4114 11.9109C4.25512 12.0672 4.16732 12.2791 4.16732 12.5002C4.16732 12.7212 4.25512 12.9331 4.4114 13.0894C4.56768 13.2457 4.77964 13.3335 5.00065 13.3335Z" fill="#0BBCEF"/>
</svg>
