<svg width="15" height="16" viewBox="0 0 15 16" fill="none" xmlns="http://www.w3.org/2000/svg">
<g clip-path="url(#clip0_1772_5526)">
<path d="M6.1875 3.15002C6.61771 3.04932 7.05816 2.99898 7.5 3.00002C11.875 3.00002 14.375 8.00002 14.375 8.00002C13.9956 8.70977 13.5432 9.37798 13.025 9.99377M8.825 9.32502C8.65334 9.50923 8.44634 9.65699 8.21634 9.75947C7.98635 9.86195 7.73806 9.91705 7.48631 9.92149C7.23455 9.92594 6.98448 9.87962 6.75101 9.78532C6.51754 9.69102 6.30545 9.55066 6.1274 9.37261C5.94936 9.19456 5.809 8.98248 5.71469 8.74901C5.62039 8.51554 5.57408 8.26547 5.57852 8.01371C5.58296 7.76195 5.63807 7.51367 5.74055 7.28367C5.84303 7.05367 5.99078 6.84667 6.175 6.67502M11.2125 11.7125C10.1441 12.5269 8.84319 12.9781 7.5 13C3.125 13 0.625 8.00002 0.625 8.00002C1.40243 6.5512 2.48071 5.2854 3.7875 4.28752L11.2125 11.7125Z" stroke="#BDBDBD" stroke-width="1.5" stroke-linecap="round" stroke-linejoin="round"/>
<path d="M0.625 1.125L14.375 14.875" stroke="#BDBDBD" stroke-width="1.5" stroke-linecap="round" stroke-linejoin="round"/>
</g>
<defs>
<clipPath id="clip0_1772_5526">
<rect width="15" height="15" fill="white" transform="translate(0 0.5)"/>
</clipPath>
</defs>
</svg>
