<svg width="20" height="20" viewBox="0 0 20 20" fill="none" xmlns="http://www.w3.org/2000/svg">
<path d="M13.334 3.3335H15.0007C15.4427 3.3335 15.8666 3.50909 16.1792 3.82165C16.4917 4.13421 16.6673 4.55814 16.6673 5.00016V16.6668C16.6673 17.1089 16.4917 17.5328 16.1792 17.8453C15.8666 18.1579 15.4427 18.3335 15.0007 18.3335H5.00065C4.55862 18.3335 4.1347 18.1579 3.82214 17.8453C3.50958 17.5328 3.33398 17.1089 3.33398 16.6668V5.00016C3.33398 4.55814 3.50958 4.13421 3.82214 3.82165C4.1347 3.50909 4.55862 3.3335 5.00065 3.3335H6.66732" stroke="#0BBCEF" stroke-width="2" stroke-linecap="round" stroke-linejoin="round"/>
<path d="M12.4993 1.6665H7.49935C7.03911 1.6665 6.66602 2.0396 6.66602 2.49984V4.1665C6.66602 4.62674 7.03911 4.99984 7.49935 4.99984H12.4993C12.9596 4.99984 13.3327 4.62674 13.3327 4.1665V2.49984C13.3327 2.0396 12.9596 1.6665 12.4993 1.6665Z" stroke="#0BBCEF" stroke-width="2" stroke-linecap="round" stroke-linejoin="round"/>
</svg>
