<svg width="20" height="20" viewBox="0 0 20 20" fill="none" xmlns="http://www.w3.org/2000/svg">
<path d="M10.8327 13.3336H5.83269C5.61168 13.3336 5.39971 13.4213 5.24343 13.5776C5.08715 13.7339 4.99936 13.9459 4.99936 14.1669C4.99936 14.3879 5.08715 14.5999 5.24343 14.7561C5.39971 14.9124 5.61168 15.0002 5.83269 15.0002H10.8327C11.0537 15.0002 11.2657 14.9124 11.4219 14.7561C11.5782 14.5999 11.666 14.3879 11.666 14.1669C11.666 13.9459 11.5782 13.7339 11.4219 13.5776C11.2657 13.4213 11.0537 13.3336 10.8327 13.3336ZM7.49936 8.33355H9.16602C9.38704 8.33355 9.599 8.24576 9.75528 8.08947C9.91156 7.93319 9.99936 7.72123 9.99936 7.50022C9.99936 7.27921 9.91156 7.06724 9.75528 6.91096C9.599 6.75468 9.38704 6.66689 9.16602 6.66689H7.49936C7.27834 6.66689 7.06638 6.75468 6.9101 6.91096C6.75382 7.06724 6.66602 7.27921 6.66602 7.50022C6.66602 7.72123 6.75382 7.93319 6.9101 8.08947C7.06638 8.24576 7.27834 8.33355 7.49936 8.33355V8.33355ZM17.4994 10.0002H14.9994V2.50022C14.9999 2.35338 14.9617 2.20899 14.8885 2.08167C14.8154 1.95436 14.7099 1.84864 14.5827 1.77522C14.456 1.70208 14.3123 1.66357 14.166 1.66357C14.0197 1.66357 13.876 1.70208 13.7494 1.77522L11.2494 3.20855L8.74936 1.77522C8.62267 1.70208 8.47897 1.66357 8.33269 1.66357C8.18641 1.66357 8.04271 1.70208 7.91602 1.77522L5.41602 3.20855L2.91602 1.77522C2.78934 1.70208 2.64564 1.66357 2.49936 1.66357C2.35307 1.66357 2.20937 1.70208 2.08269 1.77522C1.95552 1.84864 1.85001 1.95436 1.77684 2.08167C1.70367 2.20899 1.66544 2.35338 1.66602 2.50022V15.8336C1.66602 16.4966 1.92941 17.1325 2.39826 17.6013C2.8671 18.0702 3.50298 18.3336 4.16602 18.3336H15.8327C16.4957 18.3336 17.1316 18.0702 17.6005 17.6013C18.0693 17.1325 18.3327 16.4966 18.3327 15.8336V10.8336C18.3327 10.6125 18.2449 10.4006 18.0886 10.2443C17.9323 10.088 17.7204 10.0002 17.4994 10.0002ZM4.16602 16.6669C3.94501 16.6669 3.73305 16.5791 3.57677 16.4228C3.42049 16.2665 3.33269 16.0546 3.33269 15.8336V3.94189L4.99936 4.89189C5.12797 4.95906 5.27092 4.99415 5.41602 4.99415C5.56112 4.99415 5.70407 4.95906 5.83269 4.89189L8.33269 3.45855L10.8327 4.89189C10.9613 4.95906 11.1043 4.99415 11.2494 4.99415C11.3945 4.99415 11.5374 4.95906 11.666 4.89189L13.3327 3.94189V15.8336C13.3349 16.1178 13.3857 16.3997 13.4827 16.6669H4.16602ZM16.666 15.8336C16.666 16.0546 16.5782 16.2665 16.4219 16.4228C16.2657 16.5791 16.0537 16.6669 15.8327 16.6669C15.6117 16.6669 15.3997 16.5791 15.2434 16.4228C15.0872 16.2665 14.9994 16.0546 14.9994 15.8336V11.6669H16.666V15.8336ZM10.8327 10.0002H5.83269C5.61168 10.0002 5.39971 10.088 5.24343 10.2443C5.08715 10.4006 4.99936 10.6125 4.99936 10.8336C4.99936 11.0546 5.08715 11.2665 5.24343 11.4228C5.39971 11.5791 5.61168 11.6669 5.83269 11.6669H10.8327C11.0537 11.6669 11.2657 11.5791 11.4219 11.4228C11.5782 11.2665 11.666 11.0546 11.666 10.8336C11.666 10.6125 11.5782 10.4006 11.4219 10.2443C11.2657 10.088 11.0537 10.0002 10.8327 10.0002Z" fill="#0BBCEF"/>
</svg>
