<svg width="46" height="45" viewBox="0 0 46 45" fill="none" xmlns="http://www.w3.org/2000/svg">
<path d="M20.3 31.275L30.8075 23.4C31.415 22.95 31.415 22.05 30.8075 21.6L20.3 13.725C19.5575 13.1625 18.5 13.7025 18.5 14.625V30.375C18.5 31.2975 19.5575 31.8375 20.3 31.275ZM23 0C10.58 0 0.5 10.08 0.5 22.5C0.5 34.92 10.58 45 23 45C35.42 45 45.5 34.92 45.5 22.5C45.5 10.08 35.42 0 23 0ZM23 40.5C13.0775 40.5 5 32.4225 5 22.5C5 12.5775 13.0775 4.5 23 4.5C32.9225 4.5 41 12.5775 41 22.5C41 32.4225 32.9225 40.5 23 40.5Z" fill="white"/>
</svg>
