<svg width="46" height="45" viewBox="0 0 46 45" fill="none" xmlns="http://www.w3.org/2000/svg">
<path d="M18.5 31.25C19.7375 31.25 20.75 30.2656 20.75 29.0625V15.9375C20.75 14.7344 19.7375 13.75 18.5 13.75C17.2625 13.75 16.25 14.7344 16.25 15.9375V29.0625C16.25 30.2656 17.2625 31.25 18.5 31.25ZM23 0.625C10.58 0.625 0.5 10.425 0.5 22.5C0.5 34.575 10.58 44.375 23 44.375C35.42 44.375 45.5 34.575 45.5 22.5C45.5 10.425 35.42 0.625 23 0.625ZM23 40C13.0775 40 5 32.1469 5 22.5C5 12.8531 13.0775 5 23 5C32.9225 5 41 12.8531 41 22.5C41 32.1469 32.9225 40 23 40ZM27.5 31.25C28.7375 31.25 29.75 30.2656 29.75 29.0625V15.9375C29.75 14.7344 28.7375 13.75 27.5 13.75C26.2625 13.75 25.25 14.7344 25.25 15.9375V29.0625C25.25 30.2656 26.2625 31.25 27.5 31.25Z" fill="white"/>
<path d="M18.5 31.25C19.7375 31.25 20.75 30.2656 20.75 29.0625V15.9375C20.75 14.7344 19.7375 13.75 18.5 13.75C17.2625 13.75 16.25 14.7344 16.25 15.9375V29.0625C16.25 30.2656 17.2625 31.25 18.5 31.25ZM23 0.625C10.58 0.625 0.5 10.425 0.5 22.5C0.5 34.575 10.58 44.375 23 44.375C35.42 44.375 45.5 34.575 45.5 22.5C45.5 10.425 35.42 0.625 23 0.625ZM23 40C13.0775 40 5 32.1469 5 22.5C5 12.8531 13.0775 5 23 5C32.9225 5 41 12.8531 41 22.5C41 32.1469 32.9225 40 23 40ZM27.5 31.25C28.7375 31.25 29.75 30.2656 29.75 29.0625V15.9375C29.75 14.7344 28.7375 13.75 27.5 13.75C26.2625 13.75 25.25 14.7344 25.25 15.9375V29.0625C25.25 30.2656 26.2625 31.25 27.5 31.25Z" stroke="white"/>
</svg>
