<svg width="18" height="18" viewBox="0 0 18 18" fill="none" xmlns="http://www.w3.org/2000/svg">
<path fill-rule="evenodd" clip-rule="evenodd" d="M8.99824 3.75C8.52617 3.74889 8.05558 3.80267 7.59593 3.91026C7.19262 4.00467 6.78914 3.75425 6.69474 3.35093C6.60033 2.94762 6.85075 2.54414 7.25407 2.44974C7.82663 2.31572 8.41283 2.24869 9.00087 2.25L9.00176 2.25L9 3V2.25H9.00087C11.9251 2.25033 14.1718 3.91998 15.6409 5.48704C16.3824 6.27795 16.9485 7.06598 17.3292 7.65561C17.5201 7.95114 17.6657 8.19873 17.7645 8.37449C17.814 8.46242 17.8518 8.53252 17.8779 8.58183C17.891 8.60648 17.9011 8.62595 17.9082 8.63987L17.9168 8.65653L17.9193 8.66165L17.9202 8.6634C17.9202 8.6634 17.9208 8.66459 17.25 9L16.875 8.62498C16.875 8.62498 16.875 8.62498 16.3935 8.99833C16.3116 8.85693 16.2033 8.67702 16.0692 8.46939C15.7234 7.93402 15.2114 7.22205 14.5466 6.51296C13.2034 5.08017 11.3254 3.75 9 3.75L8.99824 3.75ZM16.3935 8.99833C16.0054 9.67362 15.5579 10.3133 15.0561 10.9096C14.7894 11.2266 14.8302 11.6997 15.1471 11.9664C15.4641 12.2331 15.9372 12.1923 16.2039 11.8754C16.8593 11.0965 17.4316 10.2513 17.9114 9.35356C18.0261 9.13902 18.0296 8.88218 17.9208 8.66459L17.25 9L16.875 8.62498L16.3935 8.99833C16.3744 8.96446 16.4169 9.03874 16.3935 8.99833ZM4.08982 3.94892C4.38843 3.7209 4.80967 3.74901 5.07533 4.01467L7.93739 6.87673C7.93913 6.87845 7.94087 6.88019 7.9426 6.88194L11.118 10.0574C11.1198 10.0591 11.1216 10.0609 11.1233 10.0627L13.9853 12.9247C14.1383 13.0777 14.2178 13.2893 14.2033 13.5052C14.1888 13.7212 14.0818 13.9203 13.9097 14.0515C12.5003 15.1258 10.7842 15.7209 9.01226 15.7499L9 15.75C6.07537 15.75 3.82836 14.0802 2.3591 12.513C1.61763 11.7221 1.05155 10.934 0.670752 10.3444C0.479888 10.0489 0.334344 9.80127 0.235479 9.62551C0.186018 9.53758 0.148155 9.46748 0.122065 9.41817C0.109018 9.39352 0.0989064 9.37405 0.0917535 9.36013L0.0832426 9.34347L0.0806543 9.33835L0.0797776 9.3366C0.0797776 9.3366 0.0791797 9.33541 0.75 9L0.0791797 9.33541C-0.029804 9.11744 -0.0260921 8.86011 0.0891333 8.64538C1.07262 6.81257 2.43668 5.21128 4.08982 3.94892ZM1.60693 9.00237C1.68874 9.14366 1.79694 9.32333 1.93081 9.53061C2.27658 10.066 2.78862 10.7779 3.4534 11.487C4.79546 12.9186 6.67134 14.2477 8.99388 14.25C10.153 14.23 11.2828 13.9143 12.2786 13.3392L10.5373 11.598C10.4182 11.6726 10.2938 11.739 10.1649 11.7964C9.79686 11.9604 9.39961 12.0486 8.9968 12.0557C8.59399 12.0628 8.19387 11.9887 7.82032 11.8378C7.44677 11.6869 7.10743 11.4623 6.82255 11.1774C6.53768 10.8926 6.3131 10.5532 6.16222 10.1797C6.01133 9.80613 5.93723 9.40601 5.94434 9.0032C5.95145 8.60039 6.03962 8.20314 6.20358 7.83514C6.26104 7.70619 6.32739 7.58176 6.40203 7.46269L4.49032 5.55098C3.33773 6.52603 2.36201 7.69362 1.60693 9.00237ZM7.52092 8.58158C7.47279 8.7259 7.4468 8.87698 7.44411 9.02966C7.44056 9.23107 7.4776 9.43113 7.55305 9.6179C7.62849 9.80468 7.74078 9.97435 7.88321 10.1168C8.02565 10.2592 8.19532 10.3715 8.3821 10.447C8.56887 10.5224 8.76893 10.5594 8.97034 10.5559C9.12302 10.5532 9.2741 10.5272 9.41842 10.4791L7.52092 8.58158Z" fill="#4B5660"/>
<path fill-rule="evenodd" clip-rule="evenodd" d="M0.21967 0.21967C0.512563 -0.0732233 0.987437 -0.0732233 1.28033 0.21967L17.7803 16.7197C18.0732 17.0126 18.0732 17.4874 17.7803 17.7803C17.4874 18.0732 17.0126 18.0732 16.7197 17.7803L0.21967 1.28033C-0.0732233 0.987437 -0.0732233 0.512563 0.21967 0.21967Z" fill="#4B5660"/>
</svg>
