<svg width="18" height="14" viewBox="0 0 18 14" fill="none" xmlns="http://www.w3.org/2000/svg">
<path fill-rule="evenodd" clip-rule="evenodd" d="M8.99824 1.50002C8.52617 1.49891 8.05558 1.55269 7.59593 1.66028C7.57434 1.66534 7.55252 1.66943 7.53056 1.67255C7.17982 1.72241 6.6916 1.91544 6.17985 2.18041C5.69035 2.43387 5.24562 2.71799 4.98984 2.899C3.61814 3.94861 2.4688 5.25855 1.60693 6.75239C1.68874 6.89368 1.79694 7.07334 1.93081 7.28062C2.27658 7.816 2.78862 8.52796 3.4534 9.23706C4.79546 10.6686 6.67134 11.9977 8.99388 12C10.4435 11.975 11.8472 11.4875 13.0003 10.6085L13.0137 10.5986C13.4427 10.2864 14.4428 9.46367 15.0333 8.68817C15.0407 8.67847 15.0483 8.66896 15.0561 8.65963C15.5579 8.06329 16.0054 7.42364 16.3935 6.74835C16.3116 6.60695 16.2033 6.42703 16.0692 6.21941C15.7234 5.68403 15.2114 4.97207 14.5466 4.26297C13.2034 2.83019 11.3254 1.50002 9 1.50002L8.99824 1.50002ZM17.25 6.75002L17.9208 6.41461C18.0296 6.6322 18.0261 6.88903 17.9114 7.10358C17.4344 7.99605 16.866 8.83659 16.2154 9.61168C15.4983 10.5477 14.3794 11.4589 13.9031 11.8065C12.495 12.8776 10.7814 13.471 9.01226 13.4999L9 13.5C6.07537 13.5 3.82836 11.8302 2.3591 10.263C1.61763 9.47207 1.05155 8.68403 0.670752 8.09441C0.479888 7.79888 0.334344 7.55129 0.235479 7.37553C0.186018 7.2876 0.148155 7.21749 0.122065 7.16819C0.109018 7.14353 0.0989064 7.12406 0.0917535 7.11015L0.0832426 7.09349L0.0806543 7.08837L0.0797776 7.08662C0.0797776 7.08662 0.0791797 7.08543 0.75 6.75002L0.0791797 7.08543C-0.029804 6.86746 -0.0260921 6.61013 0.0891333 6.3954C1.07262 4.56259 2.43668 2.96129 4.08982 1.69894C4.0966 1.69376 4.10347 1.6887 4.11042 1.68376C4.41639 1.46623 4.92626 1.14035 5.49015 0.84838C6.02808 0.56985 6.68494 0.285025 7.28498 0.192589C7.84772 0.0633455 8.42341 -0.00126994 9.00087 1.8905e-05L9.00176 2.09614e-05L9 0.750019V1.88603e-05L9.00087 1.8905e-05C11.9251 0.000348727 14.1718 1.67 15.6409 3.23706C16.3824 4.02797 16.9485 4.816 17.3292 5.40562C17.5201 5.70116 17.6657 5.94875 17.7645 6.12451C17.814 6.21244 17.8518 6.28254 17.8779 6.33185C17.891 6.3565 17.9011 6.37597 17.9082 6.38989L17.9168 6.40655L17.9193 6.41167L17.9208 6.41461C17.9208 6.41461 17.9208 6.41461 17.25 6.75002Z" fill="#4B5660"/>
<path fill-rule="evenodd" clip-rule="evenodd" d="M9 8.25C9.82843 8.25 10.5 7.57843 10.5 6.75C10.5 5.92157 9.82843 5.25 9 5.25C8.17157 5.25 7.5 5.92157 7.5 6.75C7.5 7.57843 8.17157 8.25 9 8.25ZM9 9.75C10.6569 9.75 12 8.40685 12 6.75C12 5.09315 10.6569 3.75 9 3.75C7.34315 3.75 6 5.09315 6 6.75C6 8.40685 7.34315 9.75 9 9.75Z" fill="#4B5660"/>
</svg>
