<svg width="12" height="16" viewBox="0 0 12 20" fill="none" xmlns="http://www.w3.org/2000/svg">
<path d="M9.28994 14.29L6.99994 16.59V3.41L9.28994 5.71C9.38291 5.80373 9.4935 5.87813 9.61536 5.92889C9.73722 5.97966 9.86793 6.0058 9.99994 6.0058C10.132 6.0058 10.2627 5.97966 10.3845 5.92889C10.5064 5.87813 10.617 5.80373 10.7099 5.71C10.8037 5.61704 10.8781 5.50644 10.9288 5.38458C10.9796 5.26272 11.0057 5.13202 11.0057 5C11.0057 4.86799 10.9796 4.73729 10.9288 4.61543C10.8781 4.49357 10.8037 4.38297 10.7099 4.29L6.70994 0.290003C6.61484 0.198963 6.50269 0.127598 6.37994 0.0800031C6.13648 -0.0200149 5.8634 -0.0200149 5.61994 0.0800031C5.49719 0.127598 5.38505 0.198963 5.28994 0.290003L1.28994 4.29C1.1967 4.38324 1.12274 4.49393 1.07228 4.61575C1.02182 4.73758 0.99585 4.86814 0.99585 5C0.99585 5.13186 1.02182 5.26243 1.07228 5.38425C1.12274 5.50607 1.1967 5.61677 1.28994 5.71C1.38318 5.80324 1.49387 5.8772 1.61569 5.92766C1.73751 5.97812 1.86808 6.00409 1.99994 6.00409C2.1318 6.00409 2.26237 5.97812 2.38419 5.92766C2.50601 5.8772 2.6167 5.80324 2.70994 5.71L4.99994 3.41V16.59L2.70994 14.29C2.52164 14.1017 2.26624 13.9959 1.99994 13.9959C1.73364 13.9959 1.47825 14.1017 1.28994 14.29C1.10164 14.4783 0.99585 14.7337 0.99585 15C0.99585 15.2663 1.10164 15.5217 1.28994 15.71L5.28994 19.71C5.38505 19.801 5.49719 19.8724 5.61994 19.92C5.73964 19.9729 5.86907 20.0002 5.99994 20.0002C6.13081 20.0002 6.26024 19.9729 6.37994 19.92C6.50269 19.8724 6.61484 19.801 6.70994 19.71L10.7099 15.71C10.8982 15.5217 11.004 15.2663 11.004 15C11.004 14.7337 10.8982 14.4783 10.7099 14.29C10.6167 14.1968 10.506 14.1228 10.3842 14.0723C10.2624 14.0219 10.1318 13.9959 9.99994 13.9959C9.73364 13.9959 9.47825 14.1017 9.28994 14.29Z" fill="#4B5660"/>
</svg>
